%TF.GenerationSoftware,KiCad,Pcbnew,(6.0.0)*%
%TF.CreationDate,2022-06-05T20:03:01+09:00*%
%TF.ProjectId,phemu6809_emuz80_cnvpcb,7068656d-7536-4383-9039-5f656d757a38,rev?*%
%TF.SameCoordinates,Original*%
%TF.FileFunction,Legend,Bot*%
%TF.FilePolarity,Positive*%
%FSLAX46Y46*%
G04 Gerber Fmt 4.6, Leading zero omitted, Abs format (unit mm)*
G04 Created by KiCad (PCBNEW (6.0.0)) date 2022-06-05 20:03:01*
%MOMM*%
%LPD*%
G01*
G04 APERTURE LIST*
%ADD10C,0.150000*%
%ADD11C,0.120000*%
%ADD12R,1.700000X1.700000*%
%ADD13O,1.700000X1.700000*%
%ADD14C,1.600000*%
%ADD15C,1.400000*%
%ADD16O,1.400000X1.400000*%
%ADD17R,1.600000X1.600000*%
%ADD18O,1.600000X1.600000*%
G04 APERTURE END LIST*
D10*
X117063571Y-73645714D02*
X117111190Y-73788571D01*
X117158809Y-73836190D01*
X117254047Y-73883809D01*
X117396904Y-73883809D01*
X117492142Y-73836190D01*
X117539761Y-73788571D01*
X117587380Y-73693333D01*
X117587380Y-73312380D01*
X116587380Y-73312380D01*
X116587380Y-73645714D01*
X116635000Y-73740952D01*
X116682619Y-73788571D01*
X116777857Y-73836190D01*
X116873095Y-73836190D01*
X116968333Y-73788571D01*
X117015952Y-73740952D01*
X117063571Y-73645714D01*
X117063571Y-73312380D01*
X117587380Y-74455238D02*
X117539761Y-74360000D01*
X117492142Y-74312380D01*
X117396904Y-74264761D01*
X117111190Y-74264761D01*
X117015952Y-74312380D01*
X116968333Y-74360000D01*
X116920714Y-74455238D01*
X116920714Y-74598095D01*
X116968333Y-74693333D01*
X117015952Y-74740952D01*
X117111190Y-74788571D01*
X117396904Y-74788571D01*
X117492142Y-74740952D01*
X117539761Y-74693333D01*
X117587380Y-74598095D01*
X117587380Y-74455238D01*
X117587380Y-75645714D02*
X117063571Y-75645714D01*
X116968333Y-75598095D01*
X116920714Y-75502857D01*
X116920714Y-75312380D01*
X116968333Y-75217142D01*
X117539761Y-75645714D02*
X117587380Y-75550476D01*
X117587380Y-75312380D01*
X117539761Y-75217142D01*
X117444523Y-75169523D01*
X117349285Y-75169523D01*
X117254047Y-75217142D01*
X117206428Y-75312380D01*
X117206428Y-75550476D01*
X117158809Y-75645714D01*
X117587380Y-76121904D02*
X116920714Y-76121904D01*
X117111190Y-76121904D02*
X117015952Y-76169523D01*
X116968333Y-76217142D01*
X116920714Y-76312380D01*
X116920714Y-76407619D01*
X117587380Y-77169523D02*
X116587380Y-77169523D01*
X117539761Y-77169523D02*
X117587380Y-77074285D01*
X117587380Y-76883809D01*
X117539761Y-76788571D01*
X117492142Y-76740952D01*
X117396904Y-76693333D01*
X117111190Y-76693333D01*
X117015952Y-76740952D01*
X116968333Y-76788571D01*
X116920714Y-76883809D01*
X116920714Y-77074285D01*
X116968333Y-77169523D01*
X116920714Y-78264761D02*
X116920714Y-78645714D01*
X116587380Y-78407619D02*
X117444523Y-78407619D01*
X117539761Y-78455238D01*
X117587380Y-78550476D01*
X117587380Y-78645714D01*
X117587380Y-79121904D02*
X117539761Y-79026666D01*
X117492142Y-78979047D01*
X117396904Y-78931428D01*
X117111190Y-78931428D01*
X117015952Y-78979047D01*
X116968333Y-79026666D01*
X116920714Y-79121904D01*
X116920714Y-79264761D01*
X116968333Y-79359999D01*
X117015952Y-79407619D01*
X117111190Y-79455238D01*
X117396904Y-79455238D01*
X117492142Y-79407619D01*
X117539761Y-79359999D01*
X117587380Y-79264761D01*
X117587380Y-79121904D01*
X116920714Y-80645714D02*
X117920714Y-80645714D01*
X116968333Y-80645714D02*
X116920714Y-80740952D01*
X116920714Y-80931428D01*
X116968333Y-81026666D01*
X117015952Y-81074285D01*
X117111190Y-81121904D01*
X117396904Y-81121904D01*
X117492142Y-81074285D01*
X117539761Y-81026666D01*
X117587380Y-80931428D01*
X117587380Y-80740952D01*
X117539761Y-80645714D01*
X116920714Y-81979047D02*
X117587380Y-81979047D01*
X116920714Y-81550476D02*
X117444523Y-81550476D01*
X117539761Y-81598095D01*
X117587380Y-81693333D01*
X117587380Y-81836190D01*
X117539761Y-81931428D01*
X117492142Y-81979047D01*
X116920714Y-82312380D02*
X116920714Y-82693333D01*
X116587380Y-82455238D02*
X117444523Y-82455238D01*
X117539761Y-82502857D01*
X117587380Y-82598095D01*
X117587380Y-82693333D01*
X117587380Y-83788571D02*
X116587380Y-83788571D01*
X117301666Y-84121904D01*
X116587380Y-84455238D01*
X117587380Y-84455238D01*
X117492142Y-85502857D02*
X117539761Y-85455238D01*
X117587380Y-85312380D01*
X117587380Y-85217142D01*
X117539761Y-85074285D01*
X117444523Y-84979047D01*
X117349285Y-84931428D01*
X117158809Y-84883809D01*
X117015952Y-84883809D01*
X116825476Y-84931428D01*
X116730238Y-84979047D01*
X116635000Y-85074285D01*
X116587380Y-85217142D01*
X116587380Y-85312380D01*
X116635000Y-85455238D01*
X116682619Y-85502857D01*
X116587380Y-86359999D02*
X116587380Y-86169523D01*
X116635000Y-86074285D01*
X116682619Y-86026666D01*
X116825476Y-85931428D01*
X117015952Y-85883809D01*
X117396904Y-85883809D01*
X117492142Y-85931428D01*
X117539761Y-85979047D01*
X117587380Y-86074285D01*
X117587380Y-86264761D01*
X117539761Y-86359999D01*
X117492142Y-86407619D01*
X117396904Y-86455238D01*
X117158809Y-86455238D01*
X117063571Y-86407619D01*
X117015952Y-86359999D01*
X116968333Y-86264761D01*
X116968333Y-86074285D01*
X117015952Y-85979047D01*
X117063571Y-85931428D01*
X117158809Y-85883809D01*
X117015952Y-87026666D02*
X116968333Y-86931428D01*
X116920714Y-86883809D01*
X116825476Y-86836190D01*
X116777857Y-86836190D01*
X116682619Y-86883809D01*
X116635000Y-86931428D01*
X116587380Y-87026666D01*
X116587380Y-87217142D01*
X116635000Y-87312380D01*
X116682619Y-87359999D01*
X116777857Y-87407619D01*
X116825476Y-87407619D01*
X116920714Y-87359999D01*
X116968333Y-87312380D01*
X117015952Y-87217142D01*
X117015952Y-87026666D01*
X117063571Y-86931428D01*
X117111190Y-86883809D01*
X117206428Y-86836190D01*
X117396904Y-86836190D01*
X117492142Y-86883809D01*
X117539761Y-86931428D01*
X117587380Y-87026666D01*
X117587380Y-87217142D01*
X117539761Y-87312380D01*
X117492142Y-87359999D01*
X117396904Y-87407619D01*
X117206428Y-87407619D01*
X117111190Y-87359999D01*
X117063571Y-87312380D01*
X117015952Y-87217142D01*
X117301666Y-87788571D02*
X117301666Y-88264761D01*
X117587380Y-87693333D02*
X116587380Y-88026666D01*
X117587380Y-88359999D01*
X116587380Y-88883809D02*
X116587380Y-88979047D01*
X116635000Y-89074285D01*
X116682619Y-89121904D01*
X116777857Y-89169523D01*
X116968333Y-89217142D01*
X117206428Y-89217142D01*
X117396904Y-89169523D01*
X117492142Y-89121904D01*
X117539761Y-89074285D01*
X117587380Y-88979047D01*
X117587380Y-88883809D01*
X117539761Y-88788571D01*
X117492142Y-88740952D01*
X117396904Y-88693333D01*
X117206428Y-88645714D01*
X116968333Y-88645714D01*
X116777857Y-88693333D01*
X116682619Y-88740952D01*
X116635000Y-88788571D01*
X116587380Y-88883809D01*
X117587380Y-89693333D02*
X117587380Y-89883809D01*
X117539761Y-89979047D01*
X117492142Y-90026666D01*
X117349285Y-90121904D01*
X117158809Y-90169523D01*
X116777857Y-90169523D01*
X116682619Y-90121904D01*
X116635000Y-90074285D01*
X116587380Y-89979047D01*
X116587380Y-89788571D01*
X116635000Y-89693333D01*
X116682619Y-89645714D01*
X116777857Y-89598095D01*
X117015952Y-89598095D01*
X117111190Y-89645714D01*
X117158809Y-89693333D01*
X117206428Y-89788571D01*
X117206428Y-89979047D01*
X117158809Y-90074285D01*
X117111190Y-90121904D01*
X117015952Y-90169523D01*
X117587380Y-91502857D02*
X117539761Y-91407619D01*
X117492142Y-91359999D01*
X117396904Y-91312380D01*
X117111190Y-91312380D01*
X117015952Y-91359999D01*
X116968333Y-91407619D01*
X116920714Y-91502857D01*
X116920714Y-91645714D01*
X116968333Y-91740952D01*
X117015952Y-91788571D01*
X117111190Y-91836190D01*
X117396904Y-91836190D01*
X117492142Y-91788571D01*
X117539761Y-91740952D01*
X117587380Y-91645714D01*
X117587380Y-91502857D01*
X116920714Y-92264761D02*
X117587380Y-92264761D01*
X117015952Y-92264761D02*
X116968333Y-92312380D01*
X116920714Y-92407619D01*
X116920714Y-92550476D01*
X116968333Y-92645714D01*
X117063571Y-92693333D01*
X117587380Y-92693333D01*
X117063571Y-93931428D02*
X117063571Y-94264761D01*
X117587380Y-94407619D02*
X117587380Y-93931428D01*
X116587380Y-93931428D01*
X116587380Y-94407619D01*
X117587380Y-94836190D02*
X116587380Y-94836190D01*
X117301666Y-95169523D01*
X116587380Y-95502857D01*
X117587380Y-95502857D01*
X116587380Y-95979047D02*
X117396904Y-95979047D01*
X117492142Y-96026666D01*
X117539761Y-96074285D01*
X117587380Y-96169523D01*
X117587380Y-96359999D01*
X117539761Y-96455238D01*
X117492142Y-96502857D01*
X117396904Y-96550476D01*
X116587380Y-96550476D01*
X116587380Y-96931428D02*
X116587380Y-97598095D01*
X117587380Y-96931428D01*
X117587380Y-97598095D01*
X117015952Y-98121904D02*
X116968333Y-98026666D01*
X116920714Y-97979047D01*
X116825476Y-97931428D01*
X116777857Y-97931428D01*
X116682619Y-97979047D01*
X116635000Y-98026666D01*
X116587380Y-98121904D01*
X116587380Y-98312380D01*
X116635000Y-98407619D01*
X116682619Y-98455238D01*
X116777857Y-98502857D01*
X116825476Y-98502857D01*
X116920714Y-98455238D01*
X116968333Y-98407619D01*
X117015952Y-98312380D01*
X117015952Y-98121904D01*
X117063571Y-98026666D01*
X117111190Y-97979047D01*
X117206428Y-97931428D01*
X117396904Y-97931428D01*
X117492142Y-97979047D01*
X117539761Y-98026666D01*
X117587380Y-98121904D01*
X117587380Y-98312380D01*
X117539761Y-98407619D01*
X117492142Y-98455238D01*
X117396904Y-98502857D01*
X117206428Y-98502857D01*
X117111190Y-98455238D01*
X117063571Y-98407619D01*
X117015952Y-98312380D01*
X116587380Y-99121904D02*
X116587380Y-99217142D01*
X116635000Y-99312380D01*
X116682619Y-99359999D01*
X116777857Y-99407619D01*
X116968333Y-99455238D01*
X117206428Y-99455238D01*
X117396904Y-99407619D01*
X117492142Y-99359999D01*
X117539761Y-99312380D01*
X117587380Y-99217142D01*
X117587380Y-99121904D01*
X117539761Y-99026666D01*
X117492142Y-98979047D01*
X117396904Y-98931428D01*
X117206428Y-98883809D01*
X116968333Y-98883809D01*
X116777857Y-98931428D01*
X116682619Y-98979047D01*
X116635000Y-99026666D01*
X116587380Y-99121904D01*
X119102142Y-76240952D02*
X119149761Y-76193333D01*
X119197380Y-76050476D01*
X119197380Y-75955238D01*
X119149761Y-75812380D01*
X119054523Y-75717142D01*
X118959285Y-75669523D01*
X118768809Y-75621904D01*
X118625952Y-75621904D01*
X118435476Y-75669523D01*
X118340238Y-75717142D01*
X118245000Y-75812380D01*
X118197380Y-75955238D01*
X118197380Y-76050476D01*
X118245000Y-76193333D01*
X118292619Y-76240952D01*
X119197380Y-76812380D02*
X119149761Y-76717142D01*
X119102142Y-76669523D01*
X119006904Y-76621904D01*
X118721190Y-76621904D01*
X118625952Y-76669523D01*
X118578333Y-76717142D01*
X118530714Y-76812380D01*
X118530714Y-76955238D01*
X118578333Y-77050476D01*
X118625952Y-77098095D01*
X118721190Y-77145714D01*
X119006904Y-77145714D01*
X119102142Y-77098095D01*
X119149761Y-77050476D01*
X119197380Y-76955238D01*
X119197380Y-76812380D01*
X119197380Y-77574285D02*
X118530714Y-77574285D01*
X118625952Y-77574285D02*
X118578333Y-77621904D01*
X118530714Y-77717142D01*
X118530714Y-77860000D01*
X118578333Y-77955238D01*
X118673571Y-78002857D01*
X119197380Y-78002857D01*
X118673571Y-78002857D02*
X118578333Y-78050476D01*
X118530714Y-78145714D01*
X118530714Y-78288571D01*
X118578333Y-78383809D01*
X118673571Y-78431428D01*
X119197380Y-78431428D01*
X118530714Y-78907619D02*
X119530714Y-78907619D01*
X118578333Y-78907619D02*
X118530714Y-79002857D01*
X118530714Y-79193333D01*
X118578333Y-79288571D01*
X118625952Y-79336190D01*
X118721190Y-79383809D01*
X119006904Y-79383809D01*
X119102142Y-79336190D01*
X119149761Y-79288571D01*
X119197380Y-79193333D01*
X119197380Y-79002857D01*
X119149761Y-78907619D01*
X119197380Y-80240952D02*
X118673571Y-80240952D01*
X118578333Y-80193333D01*
X118530714Y-80098095D01*
X118530714Y-79907619D01*
X118578333Y-79812380D01*
X119149761Y-80240952D02*
X119197380Y-80145714D01*
X119197380Y-79907619D01*
X119149761Y-79812380D01*
X119054523Y-79764761D01*
X118959285Y-79764761D01*
X118864047Y-79812380D01*
X118816428Y-79907619D01*
X118816428Y-80145714D01*
X118768809Y-80240952D01*
X118530714Y-80574285D02*
X118530714Y-80955238D01*
X118197380Y-80717142D02*
X119054523Y-80717142D01*
X119149761Y-80764761D01*
X119197380Y-80860000D01*
X119197380Y-80955238D01*
X119197380Y-81288571D02*
X118530714Y-81288571D01*
X118197380Y-81288571D02*
X118245000Y-81240952D01*
X118292619Y-81288571D01*
X118245000Y-81336190D01*
X118197380Y-81288571D01*
X118292619Y-81288571D01*
X119197380Y-81764761D02*
X118197380Y-81764761D01*
X118578333Y-81764761D02*
X118530714Y-81860000D01*
X118530714Y-82050476D01*
X118578333Y-82145714D01*
X118625952Y-82193333D01*
X118721190Y-82240952D01*
X119006904Y-82240952D01*
X119102142Y-82193333D01*
X119149761Y-82145714D01*
X119197380Y-82050476D01*
X119197380Y-81860000D01*
X119149761Y-81764761D01*
X119197380Y-82812380D02*
X119149761Y-82717142D01*
X119054523Y-82669523D01*
X118197380Y-82669523D01*
X119149761Y-83574285D02*
X119197380Y-83479047D01*
X119197380Y-83288571D01*
X119149761Y-83193333D01*
X119054523Y-83145714D01*
X118673571Y-83145714D01*
X118578333Y-83193333D01*
X118530714Y-83288571D01*
X118530714Y-83479047D01*
X118578333Y-83574285D01*
X118673571Y-83621904D01*
X118768809Y-83621904D01*
X118864047Y-83145714D01*
X118530714Y-84717142D02*
X119197380Y-84907619D01*
X118721190Y-85098095D01*
X119197380Y-85288571D01*
X118530714Y-85479047D01*
X119197380Y-85860000D02*
X118530714Y-85860000D01*
X118197380Y-85860000D02*
X118245000Y-85812380D01*
X118292619Y-85860000D01*
X118245000Y-85907619D01*
X118197380Y-85860000D01*
X118292619Y-85860000D01*
X118530714Y-86193333D02*
X118530714Y-86574285D01*
X118197380Y-86336190D02*
X119054523Y-86336190D01*
X119149761Y-86383809D01*
X119197380Y-86479047D01*
X119197380Y-86574285D01*
X119197380Y-86907619D02*
X118197380Y-86907619D01*
X119197380Y-87336190D02*
X118673571Y-87336190D01*
X118578333Y-87288571D01*
X118530714Y-87193333D01*
X118530714Y-87050476D01*
X118578333Y-86955238D01*
X118625952Y-86907619D01*
X119197380Y-88574285D02*
X118197380Y-88574285D01*
X118197380Y-88955238D01*
X118245000Y-89050476D01*
X118292619Y-89098095D01*
X118387857Y-89145714D01*
X118530714Y-89145714D01*
X118625952Y-89098095D01*
X118673571Y-89050476D01*
X118721190Y-88955238D01*
X118721190Y-88574285D01*
X119197380Y-89574285D02*
X118197380Y-89574285D01*
X118673571Y-89574285D02*
X118673571Y-90145714D01*
X119197380Y-90145714D02*
X118197380Y-90145714D01*
X118673571Y-90621904D02*
X118673571Y-90955238D01*
X119197380Y-91098095D02*
X119197380Y-90621904D01*
X118197380Y-90621904D01*
X118197380Y-91098095D01*
X119197380Y-91526666D02*
X118197380Y-91526666D01*
X118911666Y-91860000D01*
X118197380Y-92193333D01*
X119197380Y-92193333D01*
X118197380Y-92669523D02*
X119006904Y-92669523D01*
X119102142Y-92717142D01*
X119149761Y-92764761D01*
X119197380Y-92859999D01*
X119197380Y-93050476D01*
X119149761Y-93145714D01*
X119102142Y-93193333D01*
X119006904Y-93240952D01*
X118197380Y-93240952D01*
X118197380Y-94145714D02*
X118197380Y-93955238D01*
X118245000Y-93859999D01*
X118292619Y-93812380D01*
X118435476Y-93717142D01*
X118625952Y-93669523D01*
X119006904Y-93669523D01*
X119102142Y-93717142D01*
X119149761Y-93764761D01*
X119197380Y-93859999D01*
X119197380Y-94050476D01*
X119149761Y-94145714D01*
X119102142Y-94193333D01*
X119006904Y-94240952D01*
X118768809Y-94240952D01*
X118673571Y-94193333D01*
X118625952Y-94145714D01*
X118578333Y-94050476D01*
X118578333Y-93859999D01*
X118625952Y-93764761D01*
X118673571Y-93717142D01*
X118768809Y-93669523D01*
X118625952Y-94812380D02*
X118578333Y-94717142D01*
X118530714Y-94669523D01*
X118435476Y-94621904D01*
X118387857Y-94621904D01*
X118292619Y-94669523D01*
X118245000Y-94717142D01*
X118197380Y-94812380D01*
X118197380Y-95002857D01*
X118245000Y-95098095D01*
X118292619Y-95145714D01*
X118387857Y-95193333D01*
X118435476Y-95193333D01*
X118530714Y-95145714D01*
X118578333Y-95098095D01*
X118625952Y-95002857D01*
X118625952Y-94812380D01*
X118673571Y-94717142D01*
X118721190Y-94669523D01*
X118816428Y-94621904D01*
X119006904Y-94621904D01*
X119102142Y-94669523D01*
X119149761Y-94717142D01*
X119197380Y-94812380D01*
X119197380Y-95002857D01*
X119149761Y-95098095D01*
X119102142Y-95145714D01*
X119006904Y-95193333D01*
X118816428Y-95193333D01*
X118721190Y-95145714D01*
X118673571Y-95098095D01*
X118625952Y-95002857D01*
X118197380Y-95812380D02*
X118197380Y-95907619D01*
X118245000Y-96002857D01*
X118292619Y-96050476D01*
X118387857Y-96098095D01*
X118578333Y-96145714D01*
X118816428Y-96145714D01*
X119006904Y-96098095D01*
X119102142Y-96050476D01*
X119149761Y-96002857D01*
X119197380Y-95907619D01*
X119197380Y-95812380D01*
X119149761Y-95717142D01*
X119102142Y-95669523D01*
X119006904Y-95621904D01*
X118816428Y-95574285D01*
X118578333Y-95574285D01*
X118387857Y-95621904D01*
X118292619Y-95669523D01*
X118245000Y-95717142D01*
X118197380Y-95812380D01*
X119197380Y-96621904D02*
X119197380Y-96812380D01*
X119149761Y-96907619D01*
X119102142Y-96955238D01*
X118959285Y-97050476D01*
X118768809Y-97098095D01*
X118387857Y-97098095D01*
X118292619Y-97050476D01*
X118245000Y-97002857D01*
X118197380Y-96907619D01*
X118197380Y-96717142D01*
X118245000Y-96621904D01*
X118292619Y-96574285D01*
X118387857Y-96526666D01*
X118625952Y-96526666D01*
X118721190Y-96574285D01*
X118768809Y-96621904D01*
X118816428Y-96717142D01*
X118816428Y-96907619D01*
X118768809Y-97002857D01*
X118721190Y-97050476D01*
X118625952Y-97098095D01*
X120712142Y-73717142D02*
X120759761Y-73669523D01*
X120807380Y-73526666D01*
X120807380Y-73431428D01*
X120759761Y-73288571D01*
X120664523Y-73193333D01*
X120569285Y-73145714D01*
X120378809Y-73098095D01*
X120235952Y-73098095D01*
X120045476Y-73145714D01*
X119950238Y-73193333D01*
X119855000Y-73288571D01*
X119807380Y-73431428D01*
X119807380Y-73526666D01*
X119855000Y-73669523D01*
X119902619Y-73717142D01*
X120807380Y-74145714D02*
X119807380Y-74145714D01*
X120807380Y-74717142D01*
X119807380Y-74717142D01*
X120426428Y-75193333D02*
X120426428Y-75955238D01*
X120807380Y-76479047D02*
X120807380Y-76669523D01*
X120759761Y-76764761D01*
X120712142Y-76812380D01*
X120569285Y-76907619D01*
X120378809Y-76955238D01*
X119997857Y-76955238D01*
X119902619Y-76907619D01*
X119855000Y-76860000D01*
X119807380Y-76764761D01*
X119807380Y-76574285D01*
X119855000Y-76479047D01*
X119902619Y-76431428D01*
X119997857Y-76383809D01*
X120235952Y-76383809D01*
X120331190Y-76431428D01*
X120378809Y-76479047D01*
X120426428Y-76574285D01*
X120426428Y-76764761D01*
X120378809Y-76860000D01*
X120331190Y-76907619D01*
X120235952Y-76955238D01*
X119807380Y-77574285D02*
X119807380Y-77669523D01*
X119855000Y-77764761D01*
X119902619Y-77812380D01*
X119997857Y-77860000D01*
X120188333Y-77907619D01*
X120426428Y-77907619D01*
X120616904Y-77860000D01*
X120712142Y-77812380D01*
X120759761Y-77764761D01*
X120807380Y-77669523D01*
X120807380Y-77574285D01*
X120759761Y-77479047D01*
X120712142Y-77431428D01*
X120616904Y-77383809D01*
X120426428Y-77336190D01*
X120188333Y-77336190D01*
X119997857Y-77383809D01*
X119902619Y-77431428D01*
X119855000Y-77479047D01*
X119807380Y-77574285D01*
X119807380Y-78526666D02*
X119807380Y-78621904D01*
X119855000Y-78717142D01*
X119902619Y-78764761D01*
X119997857Y-78812380D01*
X120188333Y-78860000D01*
X120426428Y-78860000D01*
X120616904Y-78812380D01*
X120712142Y-78764761D01*
X120759761Y-78717142D01*
X120807380Y-78621904D01*
X120807380Y-78526666D01*
X120759761Y-78431428D01*
X120712142Y-78383809D01*
X120616904Y-78336190D01*
X120426428Y-78288571D01*
X120188333Y-78288571D01*
X119997857Y-78336190D01*
X119902619Y-78383809D01*
X119855000Y-78431428D01*
X119807380Y-78526666D01*
X119902619Y-79240952D02*
X119855000Y-79288571D01*
X119807380Y-79383809D01*
X119807380Y-79621904D01*
X119855000Y-79717142D01*
X119902619Y-79764761D01*
X119997857Y-79812380D01*
X120093095Y-79812380D01*
X120235952Y-79764761D01*
X120807380Y-79193333D01*
X120807380Y-79812380D01*
X120807380Y-81574285D02*
X120331190Y-81240952D01*
X120807380Y-81002857D02*
X119807380Y-81002857D01*
X119807380Y-81383809D01*
X119855000Y-81479047D01*
X119902619Y-81526666D01*
X119997857Y-81574285D01*
X120140714Y-81574285D01*
X120235952Y-81526666D01*
X120283571Y-81479047D01*
X120331190Y-81383809D01*
X120331190Y-81002857D01*
X120759761Y-82383809D02*
X120807380Y-82288571D01*
X120807380Y-82098095D01*
X120759761Y-82002857D01*
X120664523Y-81955238D01*
X120283571Y-81955238D01*
X120188333Y-82002857D01*
X120140714Y-82098095D01*
X120140714Y-82288571D01*
X120188333Y-82383809D01*
X120283571Y-82431428D01*
X120378809Y-82431428D01*
X120474047Y-81955238D01*
X120140714Y-82764761D02*
X120807380Y-83002857D01*
X120140714Y-83240952D01*
X120712142Y-83621904D02*
X120759761Y-83669523D01*
X120807380Y-83621904D01*
X120759761Y-83574285D01*
X120712142Y-83621904D01*
X120807380Y-83621904D01*
X120807380Y-84621904D02*
X120807380Y-84050476D01*
X120807380Y-84336190D02*
X119807380Y-84336190D01*
X119950238Y-84240952D01*
X120045476Y-84145714D01*
X120093095Y-84050476D01*
X120712142Y-85050476D02*
X120759761Y-85098095D01*
X120807380Y-85050476D01*
X120759761Y-85002857D01*
X120712142Y-85050476D01*
X120807380Y-85050476D01*
X119807380Y-85717142D02*
X119807380Y-85812380D01*
X119855000Y-85907619D01*
X119902619Y-85955238D01*
X119997857Y-86002857D01*
X120188333Y-86050476D01*
X120426428Y-86050476D01*
X120616904Y-86002857D01*
X120712142Y-85955238D01*
X120759761Y-85907619D01*
X120807380Y-85812380D01*
X120807380Y-85717142D01*
X120759761Y-85621904D01*
X120712142Y-85574285D01*
X120616904Y-85526666D01*
X120426428Y-85479047D01*
X120188333Y-85479047D01*
X119997857Y-85526666D01*
X119902619Y-85574285D01*
X119855000Y-85621904D01*
X119807380Y-85717142D01*
X120759761Y-87669523D02*
X120807380Y-87574285D01*
X120807380Y-87383809D01*
X120759761Y-87288571D01*
X120712142Y-87240952D01*
X120616904Y-87193333D01*
X120331190Y-87193333D01*
X120235952Y-87240952D01*
X120188333Y-87288571D01*
X120140714Y-87383809D01*
X120140714Y-87574285D01*
X120188333Y-87669523D01*
X120807380Y-88240952D02*
X120759761Y-88145714D01*
X120712142Y-88098095D01*
X120616904Y-88050476D01*
X120331190Y-88050476D01*
X120235952Y-88098095D01*
X120188333Y-88145714D01*
X120140714Y-88240952D01*
X120140714Y-88383809D01*
X120188333Y-88479047D01*
X120235952Y-88526666D01*
X120331190Y-88574285D01*
X120616904Y-88574285D01*
X120712142Y-88526666D01*
X120759761Y-88479047D01*
X120807380Y-88383809D01*
X120807380Y-88240952D01*
X120807380Y-89002857D02*
X120140714Y-89002857D01*
X120235952Y-89002857D02*
X120188333Y-89050476D01*
X120140714Y-89145714D01*
X120140714Y-89288571D01*
X120188333Y-89383809D01*
X120283571Y-89431428D01*
X120807380Y-89431428D01*
X120283571Y-89431428D02*
X120188333Y-89479047D01*
X120140714Y-89574285D01*
X120140714Y-89717142D01*
X120188333Y-89812380D01*
X120283571Y-89859999D01*
X120807380Y-89859999D01*
X120807380Y-90479047D02*
X120759761Y-90383809D01*
X120712142Y-90336190D01*
X120616904Y-90288571D01*
X120331190Y-90288571D01*
X120235952Y-90336190D01*
X120188333Y-90383809D01*
X120140714Y-90479047D01*
X120140714Y-90621904D01*
X120188333Y-90717142D01*
X120235952Y-90764761D01*
X120331190Y-90812380D01*
X120616904Y-90812380D01*
X120712142Y-90764761D01*
X120759761Y-90717142D01*
X120807380Y-90621904D01*
X120807380Y-90479047D01*
X120140714Y-91240952D02*
X120807380Y-91240952D01*
X120235952Y-91240952D02*
X120188333Y-91288571D01*
X120140714Y-91383809D01*
X120140714Y-91526666D01*
X120188333Y-91621904D01*
X120283571Y-91669523D01*
X120807380Y-91669523D01*
X120759761Y-92526666D02*
X120807380Y-92431428D01*
X120807380Y-92240952D01*
X120759761Y-92145714D01*
X120664523Y-92098095D01*
X120283571Y-92098095D01*
X120188333Y-92145714D01*
X120140714Y-92240952D01*
X120140714Y-92431428D01*
X120188333Y-92526666D01*
X120283571Y-92574285D01*
X120378809Y-92574285D01*
X120474047Y-92098095D01*
X120807380Y-93002857D02*
X119807380Y-93002857D01*
X120426428Y-93098095D02*
X120807380Y-93383809D01*
X120140714Y-93383809D02*
X120521666Y-93002857D01*
X120807380Y-93955238D02*
X120759761Y-93859999D01*
X120712142Y-93812380D01*
X120616904Y-93764761D01*
X120331190Y-93764761D01*
X120235952Y-93812380D01*
X120188333Y-93859999D01*
X120140714Y-93955238D01*
X120140714Y-94098095D01*
X120188333Y-94193333D01*
X120235952Y-94240952D01*
X120331190Y-94288571D01*
X120616904Y-94288571D01*
X120712142Y-94240952D01*
X120759761Y-94193333D01*
X120807380Y-94098095D01*
X120807380Y-93955238D01*
X119902619Y-95431428D02*
X119855000Y-95479047D01*
X119807380Y-95574285D01*
X119807380Y-95812380D01*
X119855000Y-95907619D01*
X119902619Y-95955238D01*
X119997857Y-96002857D01*
X120093095Y-96002857D01*
X120235952Y-95955238D01*
X120807380Y-95383809D01*
X120807380Y-96002857D01*
X119807380Y-96621904D02*
X119807380Y-96717142D01*
X119855000Y-96812380D01*
X119902619Y-96859999D01*
X119997857Y-96907619D01*
X120188333Y-96955238D01*
X120426428Y-96955238D01*
X120616904Y-96907619D01*
X120712142Y-96859999D01*
X120759761Y-96812380D01*
X120807380Y-96717142D01*
X120807380Y-96621904D01*
X120759761Y-96526666D01*
X120712142Y-96479047D01*
X120616904Y-96431428D01*
X120426428Y-96383809D01*
X120188333Y-96383809D01*
X119997857Y-96431428D01*
X119902619Y-96479047D01*
X119855000Y-96526666D01*
X119807380Y-96621904D01*
X119902619Y-97336190D02*
X119855000Y-97383809D01*
X119807380Y-97479047D01*
X119807380Y-97717142D01*
X119855000Y-97812380D01*
X119902619Y-97859999D01*
X119997857Y-97907619D01*
X120093095Y-97907619D01*
X120235952Y-97859999D01*
X120807380Y-97288571D01*
X120807380Y-97907619D01*
X119902619Y-98288571D02*
X119855000Y-98336190D01*
X119807380Y-98431428D01*
X119807380Y-98669523D01*
X119855000Y-98764761D01*
X119902619Y-98812380D01*
X119997857Y-98859999D01*
X120093095Y-98859999D01*
X120235952Y-98812380D01*
X120807380Y-98240952D01*
X120807380Y-98859999D01*
%TO.C,J1*%
X109553333Y-59142380D02*
X109553333Y-59856666D01*
X109600952Y-59999523D01*
X109696190Y-60094761D01*
X109839047Y-60142380D01*
X109934285Y-60142380D01*
X108553333Y-60142380D02*
X109124761Y-60142380D01*
X108839047Y-60142380D02*
X108839047Y-59142380D01*
X108934285Y-59285238D01*
X109029523Y-59380476D01*
X109124761Y-59428095D01*
%TO.C,J2*%
X129873333Y-59142380D02*
X129873333Y-59856666D01*
X129920952Y-59999523D01*
X130016190Y-60094761D01*
X130159047Y-60142380D01*
X130254285Y-60142380D01*
X129444761Y-59237619D02*
X129397142Y-59190000D01*
X129301904Y-59142380D01*
X129063809Y-59142380D01*
X128968571Y-59190000D01*
X128920952Y-59237619D01*
X128873333Y-59332857D01*
X128873333Y-59428095D01*
X128920952Y-59570952D01*
X129492380Y-60142380D01*
X128873333Y-60142380D01*
D11*
%TO.C,J1*%
X110550000Y-64770000D02*
X110550000Y-113090000D01*
X110550000Y-113090000D02*
X107890000Y-113090000D01*
X110550000Y-64770000D02*
X107890000Y-64770000D01*
X110550000Y-62170000D02*
X109220000Y-62170000D01*
X110550000Y-63500000D02*
X110550000Y-62170000D01*
X107890000Y-64770000D02*
X107890000Y-113090000D01*
%TO.C,J2*%
X128210000Y-111760000D02*
X128210000Y-113090000D01*
X128210000Y-62170000D02*
X130870000Y-62170000D01*
X128210000Y-110490000D02*
X128210000Y-62170000D01*
X130870000Y-110490000D02*
X130870000Y-62170000D01*
X128210000Y-113090000D02*
X129540000Y-113090000D01*
X128210000Y-110490000D02*
X130870000Y-110490000D01*
%TD*%
%LPC*%
D12*
%TO.C,J3*%
X126365000Y-57150000D03*
D13*
X123825000Y-57150000D03*
%TD*%
D14*
%TO.C,C1*%
X121285000Y-114300000D03*
X126285000Y-114300000D03*
%TD*%
D15*
%TO.C,R1*%
X116840000Y-114300000D03*
D16*
X111760000Y-114300000D03*
%TD*%
D17*
%TO.C,U1*%
X127000000Y-110490000D03*
D18*
X127000000Y-107950000D03*
X127000000Y-105410000D03*
X127000000Y-102870000D03*
X127000000Y-100330000D03*
X127000000Y-97790000D03*
X127000000Y-95250000D03*
X127000000Y-92710000D03*
X127000000Y-90170000D03*
X127000000Y-87630000D03*
X127000000Y-85090000D03*
X127000000Y-82550000D03*
X127000000Y-80010000D03*
X127000000Y-77470000D03*
X127000000Y-74930000D03*
X127000000Y-72390000D03*
X127000000Y-69850000D03*
X127000000Y-67310000D03*
X127000000Y-64770000D03*
X127000000Y-62230000D03*
X111760000Y-62230000D03*
X111760000Y-64770000D03*
X111760000Y-67310000D03*
X111760000Y-69850000D03*
X111760000Y-72390000D03*
X111760000Y-74930000D03*
X111760000Y-77470000D03*
X111760000Y-80010000D03*
X111760000Y-82550000D03*
X111760000Y-85090000D03*
X111760000Y-87630000D03*
X111760000Y-90170000D03*
X111760000Y-92710000D03*
X111760000Y-95250000D03*
X111760000Y-97790000D03*
X111760000Y-100330000D03*
X111760000Y-102870000D03*
X111760000Y-105410000D03*
X111760000Y-107950000D03*
X111760000Y-110490000D03*
%TD*%
D12*
%TO.C,J4*%
X114935000Y-57150000D03*
D13*
X112395000Y-57150000D03*
%TD*%
D12*
%TO.C,J1*%
X109220000Y-63500000D03*
D13*
X109220000Y-66040000D03*
X109220000Y-68580000D03*
X109220000Y-71120000D03*
X109220000Y-73660000D03*
X109220000Y-76200000D03*
X109220000Y-78740000D03*
X109220000Y-81280000D03*
X109220000Y-83820000D03*
X109220000Y-86360000D03*
X109220000Y-88900000D03*
X109220000Y-91440000D03*
X109220000Y-93980000D03*
X109220000Y-96520000D03*
X109220000Y-99060000D03*
X109220000Y-101600000D03*
X109220000Y-104140000D03*
X109220000Y-106680000D03*
X109220000Y-109220000D03*
X109220000Y-111760000D03*
%TD*%
D12*
%TO.C,J2*%
X129540000Y-111760000D03*
D13*
X129540000Y-109220000D03*
X129540000Y-106680000D03*
X129540000Y-104140000D03*
X129540000Y-101600000D03*
X129540000Y-99060000D03*
X129540000Y-96520000D03*
X129540000Y-93980000D03*
X129540000Y-91440000D03*
X129540000Y-88900000D03*
X129540000Y-86360000D03*
X129540000Y-83820000D03*
X129540000Y-81280000D03*
X129540000Y-78740000D03*
X129540000Y-76200000D03*
X129540000Y-73660000D03*
X129540000Y-71120000D03*
X129540000Y-68580000D03*
X129540000Y-66040000D03*
X129540000Y-63500000D03*
%TD*%
M02*
