%TF.GenerationSoftware,KiCad,Pcbnew,(6.0.0)*%
%TF.CreationDate,2022-06-05T20:03:01+09:00*%
%TF.ProjectId,phemu6809_emuz80_cnvpcb,7068656d-7536-4383-9039-5f656d757a38,rev?*%
%TF.SameCoordinates,Original*%
%TF.FileFunction,Copper,L2,Bot*%
%TF.FilePolarity,Positive*%
%FSLAX46Y46*%
G04 Gerber Fmt 4.6, Leading zero omitted, Abs format (unit mm)*
G04 Created by KiCad (PCBNEW (6.0.0)) date 2022-06-05 20:03:01*
%MOMM*%
%LPD*%
G01*
G04 APERTURE LIST*
%TA.AperFunction,ComponentPad*%
%ADD10R,1.700000X1.700000*%
%TD*%
%TA.AperFunction,ComponentPad*%
%ADD11O,1.700000X1.700000*%
%TD*%
%TA.AperFunction,ComponentPad*%
%ADD12C,1.600000*%
%TD*%
%TA.AperFunction,ComponentPad*%
%ADD13C,1.400000*%
%TD*%
%TA.AperFunction,ComponentPad*%
%ADD14O,1.400000X1.400000*%
%TD*%
%TA.AperFunction,ComponentPad*%
%ADD15R,1.600000X1.600000*%
%TD*%
%TA.AperFunction,ComponentPad*%
%ADD16O,1.600000X1.600000*%
%TD*%
%TA.AperFunction,ViaPad*%
%ADD17C,0.800000*%
%TD*%
%TA.AperFunction,Conductor*%
%ADD18C,0.250000*%
%TD*%
%TA.AperFunction,Conductor*%
%ADD19C,1.270000*%
%TD*%
G04 APERTURE END LIST*
D10*
%TO.P,J3,1,Pin_1*%
%TO.N,/AB6*%
X126365000Y-57150000D03*
D11*
%TO.P,J3,2,Pin_2*%
%TO.N,/AB6O*%
X123825000Y-57150000D03*
%TD*%
D12*
%TO.P,C1,1*%
%TO.N,+5V*%
X121285000Y-114300000D03*
%TO.P,C1,2*%
%TO.N,GND*%
X126285000Y-114300000D03*
%TD*%
D13*
%TO.P,R1,1*%
%TO.N,/CLK*%
X116840000Y-114300000D03*
D14*
%TO.P,R1,2*%
%TO.N,Net-(J1-Pad6)*%
X111760000Y-114300000D03*
%TD*%
D15*
%TO.P,U1,1,VSS*%
%TO.N,GND*%
X127000000Y-110490000D03*
D16*
%TO.P,U1,2,~{NMI}*%
%TO.N,/NMI*%
X127000000Y-107950000D03*
%TO.P,U1,3,~{IRQ}*%
%TO.N,/IRQ*%
X127000000Y-105410000D03*
%TO.P,U1,4,~{FIRQ}*%
%TO.N,+5V*%
X127000000Y-102870000D03*
%TO.P,U1,5,BS*%
%TO.N,/BS*%
X127000000Y-100330000D03*
%TO.P,U1,6,BA*%
%TO.N,/BA*%
X127000000Y-97790000D03*
%TO.P,U1,7,VCC*%
%TO.N,+5V*%
X127000000Y-95250000D03*
%TO.P,U1,8,A0*%
%TO.N,/AB0*%
X127000000Y-92710000D03*
%TO.P,U1,9,A1*%
%TO.N,/AB1*%
X127000000Y-90170000D03*
%TO.P,U1,10,A2*%
%TO.N,/AB2*%
X127000000Y-87630000D03*
%TO.P,U1,11,A3*%
%TO.N,/AB3*%
X127000000Y-85090000D03*
%TO.P,U1,12,A4*%
%TO.N,/AB4*%
X127000000Y-82550000D03*
%TO.P,U1,13,A5*%
%TO.N,/AB5*%
X127000000Y-80010000D03*
%TO.P,U1,14,A6*%
%TO.N,/AB6O*%
X127000000Y-77470000D03*
%TO.P,U1,15,A7*%
%TO.N,/AB7O*%
X127000000Y-74930000D03*
%TO.P,U1,16,A8*%
%TO.N,/AB8*%
X127000000Y-72390000D03*
%TO.P,U1,17,A9*%
%TO.N,/AB9*%
X127000000Y-69850000D03*
%TO.P,U1,18,A10*%
%TO.N,/AB10*%
X127000000Y-67310000D03*
%TO.P,U1,19,A11*%
%TO.N,/AB11*%
X127000000Y-64770000D03*
%TO.P,U1,20,A12*%
%TO.N,/AB12*%
X127000000Y-62230000D03*
%TO.P,U1,21,A13*%
%TO.N,/AB13*%
X111760000Y-62230000D03*
%TO.P,U1,22,A14*%
%TO.N,/AB14*%
X111760000Y-64770000D03*
%TO.P,U1,23,A15*%
%TO.N,/AB15*%
X111760000Y-67310000D03*
%TO.P,U1,24,D7*%
%TO.N,/DB7*%
X111760000Y-69850000D03*
%TO.P,U1,25,D6*%
%TO.N,/DB6*%
X111760000Y-72390000D03*
%TO.P,U1,26,D5*%
%TO.N,/DB5*%
X111760000Y-74930000D03*
%TO.P,U1,27,D4*%
%TO.N,/DB4*%
X111760000Y-77470000D03*
%TO.P,U1,28,D3*%
%TO.N,/DB3*%
X111760000Y-80010000D03*
%TO.P,U1,29,D2*%
%TO.N,/DB2*%
X111760000Y-82550000D03*
%TO.P,U1,30,D1*%
%TO.N,/DB1*%
X111760000Y-85090000D03*
%TO.P,U1,31,D0*%
%TO.N,/DB0*%
X111760000Y-87630000D03*
%TO.P,U1,32,R/~{W}*%
%TO.N,/RW*%
X111760000Y-90170000D03*
%TO.P,U1,33,~{DMA/BREQ}*%
%TO.N,/DMA*%
X111760000Y-92710000D03*
%TO.P,U1,34,E*%
%TO.N,/E*%
X111760000Y-95250000D03*
%TO.P,U1,35,Q*%
%TO.N,/Q*%
X111760000Y-97790000D03*
%TO.P,U1,36,MRDY*%
%TO.N,/MRDY*%
X111760000Y-100330000D03*
%TO.P,U1,37,~{RESET}*%
%TO.N,/RESET*%
X111760000Y-102870000D03*
%TO.P,U1,38,EXTAL*%
%TO.N,/CLK*%
X111760000Y-105410000D03*
%TO.P,U1,39,XTAL*%
%TO.N,GND*%
X111760000Y-107950000D03*
%TO.P,U1,40,~{HALT}*%
%TO.N,/HALT*%
X111760000Y-110490000D03*
%TD*%
D10*
%TO.P,J4,1,Pin_1*%
%TO.N,/AB7*%
X114935000Y-57150000D03*
D11*
%TO.P,J4,2,Pin_2*%
%TO.N,/AB7O*%
X112395000Y-57150000D03*
%TD*%
D10*
%TO.P,J1,1,Pin_1*%
%TO.N,/AB11*%
X109220000Y-63500000D03*
D11*
%TO.P,J1,2,Pin_2*%
%TO.N,/AB12*%
X109220000Y-66040000D03*
%TO.P,J1,3,Pin_3*%
%TO.N,/AB13*%
X109220000Y-68580000D03*
%TO.P,J1,4,Pin_4*%
%TO.N,/AB14*%
X109220000Y-71120000D03*
%TO.P,J1,5,Pin_5*%
%TO.N,/AB15*%
X109220000Y-73660000D03*
%TO.P,J1,6,Pin_6*%
%TO.N,Net-(J1-Pad6)*%
X109220000Y-76200000D03*
%TO.P,J1,7,Pin_7*%
%TO.N,/DB4*%
X109220000Y-78740000D03*
%TO.P,J1,8,Pin_8*%
%TO.N,/DB3*%
X109220000Y-81280000D03*
%TO.P,J1,9,Pin_9*%
%TO.N,/DB5*%
X109220000Y-83820000D03*
%TO.P,J1,10,Pin_10*%
%TO.N,/DB6*%
X109220000Y-86360000D03*
%TO.P,J1,11,Pin_11*%
%TO.N,+5V*%
X109220000Y-88900000D03*
%TO.P,J1,12,Pin_12*%
%TO.N,/DB2*%
X109220000Y-91440000D03*
%TO.P,J1,13,Pin_13*%
%TO.N,/DB7*%
X109220000Y-93980000D03*
%TO.P,J1,14,Pin_14*%
%TO.N,/DB0*%
X109220000Y-96520000D03*
%TO.P,J1,15,Pin_15*%
%TO.N,/DB1*%
X109220000Y-99060000D03*
%TO.P,J1,16,Pin_16*%
%TO.N,/IRQ*%
X109220000Y-101600000D03*
%TO.P,J1,17,Pin_17*%
%TO.N,/NMI*%
X109220000Y-104140000D03*
%TO.P,J1,18,Pin_18*%
%TO.N,/BA*%
X109220000Y-106680000D03*
%TO.P,J1,19,Pin_19*%
%TO.N,/Q*%
X109220000Y-109220000D03*
%TO.P,J1,20,Pin_20*%
%TO.N,/E*%
X109220000Y-111760000D03*
%TD*%
D10*
%TO.P,J2,1,Pin_1*%
%TO.N,/RW*%
X129540000Y-111760000D03*
D11*
%TO.P,J2,2,Pin_2*%
%TO.N,/HALT*%
X129540000Y-109220000D03*
%TO.P,J2,3,Pin_3*%
%TO.N,unconnected-(J2-Pad3)*%
X129540000Y-106680000D03*
%TO.P,J2,4,Pin_4*%
%TO.N,/MRDY*%
X129540000Y-104140000D03*
%TO.P,J2,5,Pin_5*%
%TO.N,/DMA*%
X129540000Y-101600000D03*
%TO.P,J2,6,Pin_6*%
%TO.N,/RESET*%
X129540000Y-99060000D03*
%TO.P,J2,7,Pin_7*%
%TO.N,unconnected-(J2-Pad7)*%
X129540000Y-96520000D03*
%TO.P,J2,8,Pin_8*%
%TO.N,/BS*%
X129540000Y-93980000D03*
%TO.P,J2,9,Pin_9*%
%TO.N,GND*%
X129540000Y-91440000D03*
%TO.P,J2,10,Pin_10*%
%TO.N,/AB0*%
X129540000Y-88900000D03*
%TO.P,J2,11,Pin_11*%
%TO.N,/AB1*%
X129540000Y-86360000D03*
%TO.P,J2,12,Pin_12*%
%TO.N,/AB2*%
X129540000Y-83820000D03*
%TO.P,J2,13,Pin_13*%
%TO.N,/AB3*%
X129540000Y-81280000D03*
%TO.P,J2,14,Pin_14*%
%TO.N,/AB4*%
X129540000Y-78740000D03*
%TO.P,J2,15,Pin_15*%
%TO.N,/AB5*%
X129540000Y-76200000D03*
%TO.P,J2,16,Pin_16*%
%TO.N,/AB6*%
X129540000Y-73660000D03*
%TO.P,J2,17,Pin_17*%
%TO.N,/AB7*%
X129540000Y-71120000D03*
%TO.P,J2,18,Pin_18*%
%TO.N,/AB8*%
X129540000Y-68580000D03*
%TO.P,J2,19,Pin_19*%
%TO.N,/AB9*%
X129540000Y-66040000D03*
%TO.P,J2,20,Pin_20*%
%TO.N,/AB10*%
X129540000Y-63500000D03*
%TD*%
D17*
%TO.N,GND*%
X124460000Y-88900000D03*
X119380000Y-93980000D03*
X119380000Y-73660000D03*
X106680000Y-116840000D03*
X124460000Y-78740000D03*
X122555000Y-100330000D03*
X106680000Y-55880000D03*
X119380000Y-101600000D03*
X121920000Y-106680000D03*
X119380000Y-83820000D03*
X130810000Y-55880000D03*
X106680000Y-72390000D03*
X114300000Y-78740000D03*
X119380000Y-109220000D03*
X129540000Y-60960000D03*
X114300000Y-68580000D03*
%TO.N,/AB13*%
X107315000Y-68580000D03*
X107315000Y-62230000D03*
%TO.N,+5V*%
X124460000Y-95250000D03*
%TO.N,/DB7*%
X113030000Y-93980000D03*
%TO.N,/BA*%
X114300000Y-97790000D03*
X114300000Y-106680000D03*
%TO.N,/DB1*%
X113030000Y-99060000D03*
X114300000Y-85090000D03*
%TO.N,/DB0*%
X114300000Y-87630000D03*
X113030000Y-96520000D03*
%TO.N,/RW*%
X115570000Y-90170000D03*
X116840000Y-111760000D03*
%TO.N,/DMA*%
X123825000Y-92710000D03*
X125730000Y-101600000D03*
%TO.N,/E*%
X116205000Y-95250000D03*
X114300000Y-111760000D03*
%TO.N,/AB7O*%
X124460000Y-74930000D03*
%TO.N,/Q*%
X115570000Y-99060000D03*
X114300000Y-109220000D03*
%TO.N,/RESET*%
X118110000Y-99060000D03*
X115570000Y-102870000D03*
%TD*%
D18*
%TO.N,/CLK*%
X114300000Y-114300000D02*
X116840000Y-114300000D01*
X113030000Y-113030000D02*
X114300000Y-114300000D01*
X111760000Y-105410000D02*
X113030000Y-106680000D01*
X113030000Y-106680000D02*
X113030000Y-113030000D01*
%TO.N,Net-(J1-Pad6)*%
X107950000Y-77470000D02*
X107950000Y-113665000D01*
X108585000Y-114300000D02*
X111760000Y-114300000D01*
X109220000Y-76200000D02*
X107950000Y-77470000D01*
X107950000Y-113665000D02*
X108585000Y-114300000D01*
%TO.N,/AB13*%
X107315000Y-68580000D02*
X107315000Y-62230000D01*
%TO.N,/AB14*%
X110490000Y-66040000D02*
X111760000Y-64770000D01*
X109220000Y-71120000D02*
X110490000Y-69850000D01*
X110490000Y-69850000D02*
X110490000Y-66040000D01*
D19*
%TO.N,+5V*%
X123190000Y-114300000D02*
X124460000Y-113030000D01*
X124460000Y-113030000D02*
X124460000Y-103505000D01*
X124460000Y-103505000D02*
X124460000Y-95250000D01*
X125095000Y-102870000D02*
X124460000Y-103505000D01*
X127000000Y-102870000D02*
X125095000Y-102870000D01*
X121285000Y-114300000D02*
X123190000Y-114300000D01*
D18*
%TO.N,/DB7*%
X113030000Y-71120000D02*
X111760000Y-69850000D01*
X113030000Y-93980000D02*
X113030000Y-71120000D01*
%TO.N,/BS*%
X127000000Y-100330000D02*
X128270000Y-99060000D01*
X128270000Y-99060000D02*
X128270000Y-95250000D01*
X128270000Y-95250000D02*
X129540000Y-93980000D01*
%TO.N,/BA*%
X114300000Y-99060000D02*
X114300000Y-97790000D01*
X113030000Y-100330000D02*
X114300000Y-99060000D01*
X114300000Y-106045000D02*
X113030000Y-104775000D01*
X113030000Y-100965000D02*
X113030000Y-100330000D01*
X113030000Y-104775000D02*
X113030000Y-100965000D01*
X114300000Y-106680000D02*
X114300000Y-106045000D01*
%TO.N,/DB5*%
X110490000Y-82550000D02*
X110490000Y-76200000D01*
X109220000Y-83820000D02*
X110490000Y-82550000D01*
X110490000Y-76200000D02*
X111760000Y-74930000D01*
%TO.N,/DB2*%
X110490000Y-83820000D02*
X111760000Y-82550000D01*
X109220000Y-91440000D02*
X110490000Y-90170000D01*
X110490000Y-90170000D02*
X110490000Y-83820000D01*
%TO.N,/DB1*%
X113030000Y-97790000D02*
X114300000Y-96520000D01*
X114300000Y-88900000D02*
X114935000Y-88265000D01*
X114935000Y-93980000D02*
X114935000Y-93345000D01*
X114935000Y-88265000D02*
X115570000Y-87630000D01*
X115570000Y-86995000D02*
X114300000Y-85725000D01*
X115570000Y-87630000D02*
X115570000Y-86995000D01*
X114300000Y-92710000D02*
X114300000Y-88900000D01*
X114935000Y-93345000D02*
X114300000Y-92710000D01*
X114300000Y-96520000D02*
X114935000Y-95885000D01*
X113030000Y-99060000D02*
X113030000Y-97790000D01*
X114300000Y-85725000D02*
X114300000Y-85090000D01*
X114935000Y-95885000D02*
X114935000Y-93980000D01*
%TO.N,/DB0*%
X113030000Y-96520000D02*
X113665000Y-95885000D01*
X113665000Y-95885000D02*
X114300000Y-95250000D01*
X114300000Y-95250000D02*
X114300000Y-93980000D01*
X113665000Y-88265000D02*
X114300000Y-87630000D01*
X113665000Y-93345000D02*
X113665000Y-88265000D01*
X114300000Y-93980000D02*
X113665000Y-93345000D01*
%TO.N,/RW*%
X116840000Y-102235000D02*
X116840000Y-111760000D01*
X119380000Y-99695000D02*
X116840000Y-102235000D01*
X119380000Y-99060000D02*
X119380000Y-99695000D01*
X117475000Y-95250000D02*
X117475000Y-97155000D01*
X118745000Y-98425000D02*
X119380000Y-99060000D01*
X115570000Y-90170000D02*
X115570000Y-93345000D01*
X117475000Y-97155000D02*
X118745000Y-98425000D01*
X115570000Y-93345000D02*
X117475000Y-95250000D01*
%TO.N,/DMA*%
X125730000Y-101600000D02*
X125730000Y-94615000D01*
X125730000Y-94615000D02*
X123825000Y-92710000D01*
%TO.N,/AB6O*%
X125730000Y-76835000D02*
X125730000Y-59690000D01*
X125095000Y-59055000D02*
X124460000Y-59055000D01*
X123825000Y-58420000D02*
X123825000Y-57150000D01*
X125730000Y-59690000D02*
X125095000Y-59055000D01*
X124460000Y-59055000D02*
X123825000Y-58420000D01*
X127000000Y-77470000D02*
X126365000Y-77470000D01*
X126365000Y-77470000D02*
X125730000Y-76835000D01*
%TO.N,/E*%
X116840000Y-97790000D02*
X115570000Y-96520000D01*
X115570000Y-95885000D02*
X116205000Y-95250000D01*
X116205000Y-105410000D02*
X114300000Y-103505000D01*
X116205000Y-108585000D02*
X116205000Y-106045000D01*
X114300000Y-101600000D02*
X116840000Y-99060000D01*
X114300000Y-110490000D02*
X116205000Y-108585000D01*
X116205000Y-106045000D02*
X116205000Y-105410000D01*
X116840000Y-99060000D02*
X116840000Y-98425000D01*
X115570000Y-96520000D02*
X115570000Y-95885000D01*
X114300000Y-111760000D02*
X114300000Y-110490000D01*
X114300000Y-103505000D02*
X114300000Y-101600000D01*
X116840000Y-98425000D02*
X116840000Y-97790000D01*
%TO.N,/AB7O*%
X125095000Y-73660000D02*
X125095000Y-60325000D01*
X124460000Y-74930000D02*
X124460000Y-74295000D01*
X112395000Y-59055000D02*
X112395000Y-57150000D01*
X113030000Y-59690000D02*
X112395000Y-59055000D01*
X125095000Y-60325000D02*
X124460000Y-59690000D01*
X124460000Y-74295000D02*
X125095000Y-73660000D01*
X124460000Y-59690000D02*
X113030000Y-59690000D01*
%TO.N,/Q*%
X115570000Y-107950000D02*
X115570000Y-106045000D01*
X115570000Y-106045000D02*
X113665000Y-104140000D01*
X113665000Y-100965000D02*
X115570000Y-99060000D01*
X113665000Y-104140000D02*
X113665000Y-100965000D01*
X114300000Y-109220000D02*
X115570000Y-107950000D01*
%TO.N,/RESET*%
X115570000Y-102870000D02*
X115570000Y-101600000D01*
X115570000Y-101600000D02*
X118110000Y-99060000D01*
%TD*%
%TA.AperFunction,Conductor*%
%TO.N,GND*%
G36*
X132022121Y-54630002D02*
G01*
X132068614Y-54683658D01*
X132080000Y-54736000D01*
X132080000Y-117349000D01*
X132059998Y-117417121D01*
X132006342Y-117463614D01*
X131954000Y-117475000D01*
X106171000Y-117475000D01*
X106102879Y-117454998D01*
X106056386Y-117401342D01*
X106045000Y-117349000D01*
X106045000Y-68580000D01*
X106401496Y-68580000D01*
X106402186Y-68586565D01*
X106415752Y-68715634D01*
X106421458Y-68769928D01*
X106480473Y-68951556D01*
X106483776Y-68957278D01*
X106483777Y-68957279D01*
X106509483Y-69001803D01*
X106575960Y-69116944D01*
X106703747Y-69258866D01*
X106858248Y-69371118D01*
X106864276Y-69373802D01*
X106864278Y-69373803D01*
X106998922Y-69433750D01*
X107032712Y-69448794D01*
X107119009Y-69467137D01*
X107213056Y-69487128D01*
X107213061Y-69487128D01*
X107219513Y-69488500D01*
X107410487Y-69488500D01*
X107416939Y-69487128D01*
X107416944Y-69487128D01*
X107510991Y-69467137D01*
X107597288Y-69448794D01*
X107631078Y-69433750D01*
X107765722Y-69373803D01*
X107765724Y-69373802D01*
X107771752Y-69371118D01*
X107846820Y-69316578D01*
X107896510Y-69280476D01*
X107963378Y-69256617D01*
X108032529Y-69272698D01*
X108078004Y-69316578D01*
X108117287Y-69380684D01*
X108117295Y-69380694D01*
X108119987Y-69385088D01*
X108266250Y-69553938D01*
X108438126Y-69696632D01*
X108508595Y-69737811D01*
X108511445Y-69739476D01*
X108560169Y-69791114D01*
X108573240Y-69860897D01*
X108546509Y-69926669D01*
X108506055Y-69960027D01*
X108493607Y-69966507D01*
X108489474Y-69969610D01*
X108489471Y-69969612D01*
X108337917Y-70083402D01*
X108314965Y-70100635D01*
X108160629Y-70262138D01*
X108034743Y-70446680D01*
X107940688Y-70649305D01*
X107880989Y-70864570D01*
X107857251Y-71086695D01*
X107857548Y-71091848D01*
X107857548Y-71091851D01*
X107863011Y-71186590D01*
X107870110Y-71309715D01*
X107871247Y-71314761D01*
X107871248Y-71314767D01*
X107893533Y-71413650D01*
X107919222Y-71527639D01*
X108003266Y-71734616D01*
X108119987Y-71925088D01*
X108266250Y-72093938D01*
X108438126Y-72236632D01*
X108508595Y-72277811D01*
X108511445Y-72279476D01*
X108560169Y-72331114D01*
X108573240Y-72400897D01*
X108546509Y-72466669D01*
X108506055Y-72500027D01*
X108493607Y-72506507D01*
X108489474Y-72509610D01*
X108489471Y-72509612D01*
X108344996Y-72618087D01*
X108314965Y-72640635D01*
X108160629Y-72802138D01*
X108034743Y-72986680D01*
X107940688Y-73189305D01*
X107880989Y-73404570D01*
X107857251Y-73626695D01*
X107857548Y-73631848D01*
X107857548Y-73631851D01*
X107867416Y-73803000D01*
X107870110Y-73849715D01*
X107871247Y-73854761D01*
X107871248Y-73854767D01*
X107893533Y-73953650D01*
X107919222Y-74067639D01*
X108003266Y-74274616D01*
X108119987Y-74465088D01*
X108266250Y-74633938D01*
X108438126Y-74776632D01*
X108508595Y-74817811D01*
X108511445Y-74819476D01*
X108560169Y-74871114D01*
X108573240Y-74940897D01*
X108546509Y-75006669D01*
X108506055Y-75040027D01*
X108493607Y-75046507D01*
X108489474Y-75049610D01*
X108489471Y-75049612D01*
X108337917Y-75163402D01*
X108314965Y-75180635D01*
X108160629Y-75342138D01*
X108157715Y-75346410D01*
X108157714Y-75346411D01*
X108079393Y-75461226D01*
X108034743Y-75526680D01*
X108006860Y-75586749D01*
X107943524Y-75723196D01*
X107940688Y-75729305D01*
X107880989Y-75944570D01*
X107857251Y-76166695D01*
X107857548Y-76171848D01*
X107857548Y-76171851D01*
X107863011Y-76266590D01*
X107870110Y-76389715D01*
X107871247Y-76394761D01*
X107871248Y-76394767D01*
X107903453Y-76537668D01*
X107898917Y-76608520D01*
X107869631Y-76654464D01*
X107557747Y-76966348D01*
X107549461Y-76973888D01*
X107542982Y-76978000D01*
X107537557Y-76983777D01*
X107496357Y-77027651D01*
X107493602Y-77030493D01*
X107473865Y-77050230D01*
X107471385Y-77053427D01*
X107463682Y-77062447D01*
X107433414Y-77094679D01*
X107429595Y-77101625D01*
X107429593Y-77101628D01*
X107423652Y-77112434D01*
X107412801Y-77128953D01*
X107400386Y-77144959D01*
X107397241Y-77152228D01*
X107397238Y-77152232D01*
X107382826Y-77185537D01*
X107377609Y-77196187D01*
X107356305Y-77234940D01*
X107354334Y-77242615D01*
X107354334Y-77242616D01*
X107351267Y-77254562D01*
X107344863Y-77273266D01*
X107336819Y-77291855D01*
X107335580Y-77299678D01*
X107335577Y-77299688D01*
X107329901Y-77335524D01*
X107327495Y-77347144D01*
X107316500Y-77389970D01*
X107316500Y-77410224D01*
X107314949Y-77429934D01*
X107311780Y-77449943D01*
X107312526Y-77457835D01*
X107315941Y-77493961D01*
X107316500Y-77505819D01*
X107316500Y-113586233D01*
X107315973Y-113597416D01*
X107314298Y-113604909D01*
X107314547Y-113612835D01*
X107314547Y-113612836D01*
X107316438Y-113672986D01*
X107316500Y-113676945D01*
X107316500Y-113704856D01*
X107316997Y-113708790D01*
X107316997Y-113708791D01*
X107317005Y-113708856D01*
X107317938Y-113720693D01*
X107319327Y-113764889D01*
X107324978Y-113784339D01*
X107328987Y-113803700D01*
X107331526Y-113823797D01*
X107334445Y-113831168D01*
X107334445Y-113831170D01*
X107347804Y-113864912D01*
X107351649Y-113876142D01*
X107363982Y-113918593D01*
X107368015Y-113925412D01*
X107368017Y-113925417D01*
X107374293Y-113936028D01*
X107382988Y-113953776D01*
X107390448Y-113972617D01*
X107395110Y-113979033D01*
X107395110Y-113979034D01*
X107416436Y-114008387D01*
X107422952Y-114018307D01*
X107445458Y-114056362D01*
X107459779Y-114070683D01*
X107472619Y-114085716D01*
X107484528Y-114102107D01*
X107490634Y-114107158D01*
X107518605Y-114130298D01*
X107527384Y-114138288D01*
X108081343Y-114692247D01*
X108088887Y-114700537D01*
X108093000Y-114707018D01*
X108098777Y-114712443D01*
X108142667Y-114753658D01*
X108145509Y-114756413D01*
X108165231Y-114776135D01*
X108168352Y-114778556D01*
X108168359Y-114778562D01*
X108168424Y-114778612D01*
X108177445Y-114786317D01*
X108209679Y-114816586D01*
X108216627Y-114820405D01*
X108216629Y-114820407D01*
X108227432Y-114826346D01*
X108243959Y-114837202D01*
X108253698Y-114844757D01*
X108253700Y-114844758D01*
X108259960Y-114849614D01*
X108300540Y-114867174D01*
X108311186Y-114872390D01*
X108349940Y-114893695D01*
X108357616Y-114895666D01*
X108357619Y-114895667D01*
X108369562Y-114898733D01*
X108388266Y-114905137D01*
X108388269Y-114905138D01*
X108406855Y-114913181D01*
X108414678Y-114914420D01*
X108414688Y-114914423D01*
X108450524Y-114920099D01*
X108462144Y-114922505D01*
X108497289Y-114931528D01*
X108504970Y-114933500D01*
X108525224Y-114933500D01*
X108544934Y-114935051D01*
X108564943Y-114938220D01*
X108572835Y-114937474D01*
X108608961Y-114934059D01*
X108620819Y-114933500D01*
X110662685Y-114933500D01*
X110730806Y-114953502D01*
X110765898Y-114987230D01*
X110830699Y-115079776D01*
X110980224Y-115229301D01*
X111153442Y-115350589D01*
X111158420Y-115352910D01*
X111158423Y-115352912D01*
X111339872Y-115437523D01*
X111345090Y-115439956D01*
X111350398Y-115441378D01*
X111350400Y-115441379D01*
X111544030Y-115493262D01*
X111544032Y-115493262D01*
X111549345Y-115494686D01*
X111760000Y-115513116D01*
X111970655Y-115494686D01*
X111975968Y-115493262D01*
X111975970Y-115493262D01*
X112169600Y-115441379D01*
X112169602Y-115441378D01*
X112174910Y-115439956D01*
X112180128Y-115437523D01*
X112361577Y-115352912D01*
X112361580Y-115352910D01*
X112366558Y-115350589D01*
X112539776Y-115229301D01*
X112689301Y-115079776D01*
X112810589Y-114906558D01*
X112814239Y-114898732D01*
X112897633Y-114719892D01*
X112897634Y-114719891D01*
X112899956Y-114714910D01*
X112904355Y-114698495D01*
X112953262Y-114515970D01*
X112953262Y-114515968D01*
X112954686Y-114510655D01*
X112973116Y-114300000D01*
X112961967Y-114172563D01*
X112975956Y-114102959D01*
X113025356Y-114051966D01*
X113094482Y-114035776D01*
X113161387Y-114059529D01*
X113176583Y-114072487D01*
X113796343Y-114692247D01*
X113803887Y-114700537D01*
X113808000Y-114707018D01*
X113813777Y-114712443D01*
X113857667Y-114753658D01*
X113860509Y-114756413D01*
X113880230Y-114776134D01*
X113883425Y-114778612D01*
X113892446Y-114786317D01*
X113924679Y-114816586D01*
X113935858Y-114822732D01*
X113942432Y-114826346D01*
X113958956Y-114837199D01*
X113974959Y-114849613D01*
X114015543Y-114867176D01*
X114026173Y-114872383D01*
X114064940Y-114893695D01*
X114072617Y-114895666D01*
X114072622Y-114895668D01*
X114084558Y-114898732D01*
X114103266Y-114905137D01*
X114121855Y-114913181D01*
X114129683Y-114914421D01*
X114129690Y-114914423D01*
X114165524Y-114920099D01*
X114177144Y-114922505D01*
X114212289Y-114931528D01*
X114219970Y-114933500D01*
X114240224Y-114933500D01*
X114259934Y-114935051D01*
X114279943Y-114938220D01*
X114287835Y-114937474D01*
X114323961Y-114934059D01*
X114335819Y-114933500D01*
X115742685Y-114933500D01*
X115810806Y-114953502D01*
X115845898Y-114987230D01*
X115910699Y-115079776D01*
X116060224Y-115229301D01*
X116233442Y-115350589D01*
X116238420Y-115352910D01*
X116238423Y-115352912D01*
X116419872Y-115437523D01*
X116425090Y-115439956D01*
X116430398Y-115441378D01*
X116430400Y-115441379D01*
X116624030Y-115493262D01*
X116624032Y-115493262D01*
X116629345Y-115494686D01*
X116840000Y-115513116D01*
X117050655Y-115494686D01*
X117055968Y-115493262D01*
X117055970Y-115493262D01*
X117249600Y-115441379D01*
X117249602Y-115441378D01*
X117254910Y-115439956D01*
X117260128Y-115437523D01*
X117441577Y-115352912D01*
X117441580Y-115352910D01*
X117446558Y-115350589D01*
X117619776Y-115229301D01*
X117769301Y-115079776D01*
X117890589Y-114906558D01*
X117894239Y-114898732D01*
X117977633Y-114719892D01*
X117977634Y-114719891D01*
X117979956Y-114714910D01*
X117984355Y-114698495D01*
X118033262Y-114515970D01*
X118033262Y-114515968D01*
X118034686Y-114510655D01*
X118053116Y-114300000D01*
X118034686Y-114089345D01*
X118031507Y-114077481D01*
X117981379Y-113890400D01*
X117981378Y-113890398D01*
X117979956Y-113885090D01*
X117977633Y-113880108D01*
X117892912Y-113698423D01*
X117892910Y-113698420D01*
X117890589Y-113693442D01*
X117769301Y-113520224D01*
X117619776Y-113370699D01*
X117446558Y-113249411D01*
X117441580Y-113247090D01*
X117441577Y-113247088D01*
X117259892Y-113162367D01*
X117259891Y-113162366D01*
X117254910Y-113160044D01*
X117249602Y-113158622D01*
X117249600Y-113158621D01*
X117055970Y-113106738D01*
X117055968Y-113106738D01*
X117050655Y-113105314D01*
X116840000Y-113086884D01*
X116629345Y-113105314D01*
X116624032Y-113106738D01*
X116624030Y-113106738D01*
X116430400Y-113158621D01*
X116430398Y-113158622D01*
X116425090Y-113160044D01*
X116420109Y-113162366D01*
X116420108Y-113162367D01*
X116238423Y-113247088D01*
X116238420Y-113247090D01*
X116233442Y-113249411D01*
X116060224Y-113370699D01*
X115910699Y-113520224D01*
X115869841Y-113578576D01*
X115845898Y-113612770D01*
X115790441Y-113657099D01*
X115742685Y-113666500D01*
X114614595Y-113666500D01*
X114546474Y-113646498D01*
X114525500Y-113629595D01*
X113700405Y-112804500D01*
X113666379Y-112742188D01*
X113663500Y-112715405D01*
X113663500Y-112664782D01*
X113683502Y-112596661D01*
X113737158Y-112550168D01*
X113807432Y-112540064D01*
X113842730Y-112552282D01*
X113843248Y-112551118D01*
X114017712Y-112628794D01*
X114104009Y-112647137D01*
X114198056Y-112667128D01*
X114198061Y-112667128D01*
X114204513Y-112668500D01*
X114395487Y-112668500D01*
X114401939Y-112667128D01*
X114401944Y-112667128D01*
X114495991Y-112647137D01*
X114582288Y-112628794D01*
X114588319Y-112626109D01*
X114750722Y-112553803D01*
X114750724Y-112553802D01*
X114756752Y-112551118D01*
X114771967Y-112540064D01*
X114885691Y-112457438D01*
X114911253Y-112438866D01*
X115039040Y-112296944D01*
X115134527Y-112131556D01*
X115193542Y-111949928D01*
X115206157Y-111829908D01*
X115212814Y-111766565D01*
X115213504Y-111760000D01*
X115208237Y-111709889D01*
X115194232Y-111576635D01*
X115194232Y-111576633D01*
X115193542Y-111570072D01*
X115134527Y-111388444D01*
X115039040Y-111223056D01*
X114965863Y-111141785D01*
X114935147Y-111077779D01*
X114933500Y-111057476D01*
X114933500Y-110804594D01*
X114953502Y-110736473D01*
X114970405Y-110715499D01*
X115991405Y-109694500D01*
X116053717Y-109660474D01*
X116124533Y-109665539D01*
X116181368Y-109708086D01*
X116206179Y-109774606D01*
X116206500Y-109783595D01*
X116206500Y-111057476D01*
X116186498Y-111125597D01*
X116174142Y-111141779D01*
X116100960Y-111223056D01*
X116005473Y-111388444D01*
X115946458Y-111570072D01*
X115945768Y-111576633D01*
X115945768Y-111576635D01*
X115931763Y-111709889D01*
X115926496Y-111760000D01*
X115927186Y-111766565D01*
X115933844Y-111829908D01*
X115946458Y-111949928D01*
X116005473Y-112131556D01*
X116100960Y-112296944D01*
X116228747Y-112438866D01*
X116254309Y-112457438D01*
X116368034Y-112540064D01*
X116383248Y-112551118D01*
X116389276Y-112553802D01*
X116389278Y-112553803D01*
X116551681Y-112626109D01*
X116557712Y-112628794D01*
X116644009Y-112647137D01*
X116738056Y-112667128D01*
X116738061Y-112667128D01*
X116744513Y-112668500D01*
X116935487Y-112668500D01*
X116941939Y-112667128D01*
X116941944Y-112667128D01*
X117035991Y-112647137D01*
X117122288Y-112628794D01*
X117128319Y-112626109D01*
X117290722Y-112553803D01*
X117290724Y-112553802D01*
X117296752Y-112551118D01*
X117311967Y-112540064D01*
X117425691Y-112457438D01*
X117451253Y-112438866D01*
X117579040Y-112296944D01*
X117674527Y-112131556D01*
X117733542Y-111949928D01*
X117746157Y-111829908D01*
X117752814Y-111766565D01*
X117753504Y-111760000D01*
X117748237Y-111709889D01*
X117734232Y-111576635D01*
X117734232Y-111576633D01*
X117733542Y-111570072D01*
X117674527Y-111388444D01*
X117579040Y-111223056D01*
X117505863Y-111141785D01*
X117475147Y-111077779D01*
X117473500Y-111057476D01*
X117473500Y-102549594D01*
X117493502Y-102481473D01*
X117510405Y-102460499D01*
X119772247Y-100198657D01*
X119780537Y-100191113D01*
X119787018Y-100187000D01*
X119833659Y-100137332D01*
X119836413Y-100134491D01*
X119856134Y-100114770D01*
X119858612Y-100111575D01*
X119866318Y-100102553D01*
X119891158Y-100076101D01*
X119896586Y-100070321D01*
X119906346Y-100052568D01*
X119917199Y-100036045D01*
X119924753Y-100026306D01*
X119929613Y-100020041D01*
X119947176Y-99979457D01*
X119952383Y-99968827D01*
X119973695Y-99930060D01*
X119975666Y-99922383D01*
X119975668Y-99922378D01*
X119978732Y-99910442D01*
X119985138Y-99891730D01*
X119987704Y-99885802D01*
X119993181Y-99873145D01*
X120000097Y-99829481D01*
X120002504Y-99817860D01*
X120011528Y-99782711D01*
X120011528Y-99782710D01*
X120013500Y-99775030D01*
X120013500Y-99754769D01*
X120015051Y-99735058D01*
X120016979Y-99722885D01*
X120018219Y-99715057D01*
X120014059Y-99671046D01*
X120013500Y-99659189D01*
X120013500Y-99138768D01*
X120014027Y-99127585D01*
X120015702Y-99120092D01*
X120013562Y-99052001D01*
X120013500Y-99048044D01*
X120013500Y-99020144D01*
X120012996Y-99016153D01*
X120012063Y-99004311D01*
X120010923Y-98968036D01*
X120010674Y-98960111D01*
X120005021Y-98940652D01*
X120001012Y-98921293D01*
X120000846Y-98919983D01*
X119998474Y-98901203D01*
X119995558Y-98893837D01*
X119995556Y-98893831D01*
X119982200Y-98860098D01*
X119978355Y-98848868D01*
X119968230Y-98814017D01*
X119968230Y-98814016D01*
X119966019Y-98806407D01*
X119955705Y-98788966D01*
X119947008Y-98771213D01*
X119942472Y-98759758D01*
X119939552Y-98752383D01*
X119913563Y-98716612D01*
X119907047Y-98706692D01*
X119884542Y-98668638D01*
X119870221Y-98654317D01*
X119857380Y-98639283D01*
X119850132Y-98629307D01*
X119845472Y-98622893D01*
X119811407Y-98594712D01*
X119802626Y-98586722D01*
X119485737Y-98269832D01*
X118145404Y-96929499D01*
X118111379Y-96867187D01*
X118108500Y-96840404D01*
X118108500Y-95328767D01*
X118109027Y-95317584D01*
X118110702Y-95310091D01*
X118108986Y-95255475D01*
X118108562Y-95242001D01*
X118108500Y-95238043D01*
X118108500Y-95210144D01*
X118107996Y-95206153D01*
X118107063Y-95194311D01*
X118106473Y-95175516D01*
X118105674Y-95150111D01*
X118103462Y-95142497D01*
X118103461Y-95142492D01*
X118100023Y-95130659D01*
X118096012Y-95111295D01*
X118094467Y-95099064D01*
X118093474Y-95091203D01*
X118090557Y-95083836D01*
X118090556Y-95083831D01*
X118077198Y-95050092D01*
X118073354Y-95038865D01*
X118070021Y-95027393D01*
X118061018Y-94996407D01*
X118050707Y-94978972D01*
X118042012Y-94961224D01*
X118034552Y-94942383D01*
X118008564Y-94906613D01*
X118002048Y-94896693D01*
X117983580Y-94865465D01*
X117983578Y-94865462D01*
X117979542Y-94858638D01*
X117965221Y-94844317D01*
X117952380Y-94829283D01*
X117945131Y-94819306D01*
X117940472Y-94812893D01*
X117906395Y-94784702D01*
X117897616Y-94776712D01*
X116240405Y-93119500D01*
X116206379Y-93057188D01*
X116203500Y-93030405D01*
X116203500Y-90872524D01*
X116223502Y-90804403D01*
X116235858Y-90788221D01*
X116309040Y-90706944D01*
X116369161Y-90602812D01*
X116401223Y-90547279D01*
X116401224Y-90547278D01*
X116404527Y-90541556D01*
X116463542Y-90359928D01*
X116468977Y-90308222D01*
X116482814Y-90176565D01*
X116483504Y-90170000D01*
X116476313Y-90101581D01*
X116464232Y-89986635D01*
X116464232Y-89986633D01*
X116463542Y-89980072D01*
X116404527Y-89798444D01*
X116309040Y-89633056D01*
X116281147Y-89602077D01*
X116185675Y-89496045D01*
X116185674Y-89496044D01*
X116181253Y-89491134D01*
X116058311Y-89401811D01*
X116032094Y-89382763D01*
X116032093Y-89382762D01*
X116026752Y-89378882D01*
X116020724Y-89376198D01*
X116020722Y-89376197D01*
X115858319Y-89303891D01*
X115858318Y-89303891D01*
X115852288Y-89301206D01*
X115743847Y-89278156D01*
X115671944Y-89262872D01*
X115671939Y-89262872D01*
X115665487Y-89261500D01*
X115474513Y-89261500D01*
X115468061Y-89262872D01*
X115468056Y-89262872D01*
X115396153Y-89278156D01*
X115287712Y-89301206D01*
X115281682Y-89303891D01*
X115281681Y-89303891D01*
X115187013Y-89346040D01*
X115113248Y-89378882D01*
X115112323Y-89376804D01*
X115053512Y-89391076D01*
X114986419Y-89367859D01*
X114942528Y-89312055D01*
X114933500Y-89265218D01*
X114933500Y-89214594D01*
X114953502Y-89146473D01*
X114970405Y-89125499D01*
X115962247Y-88133657D01*
X115970537Y-88126113D01*
X115977018Y-88122000D01*
X116023659Y-88072332D01*
X116026413Y-88069491D01*
X116046135Y-88049769D01*
X116048612Y-88046576D01*
X116056317Y-88037555D01*
X116081159Y-88011100D01*
X116086586Y-88005321D01*
X116090407Y-87998371D01*
X116096346Y-87987568D01*
X116107202Y-87971041D01*
X116114757Y-87961302D01*
X116114758Y-87961300D01*
X116119614Y-87955040D01*
X116137174Y-87914460D01*
X116142391Y-87903812D01*
X116159875Y-87872009D01*
X116159876Y-87872007D01*
X116163695Y-87865060D01*
X116166893Y-87852607D01*
X116168733Y-87845438D01*
X116175137Y-87826734D01*
X116180033Y-87815420D01*
X116180033Y-87815419D01*
X116183181Y-87808145D01*
X116184420Y-87800322D01*
X116184423Y-87800312D01*
X116190099Y-87764476D01*
X116192505Y-87752856D01*
X116201528Y-87717711D01*
X116201528Y-87717710D01*
X116203500Y-87710030D01*
X116203500Y-87689776D01*
X116205051Y-87670065D01*
X116206980Y-87657886D01*
X116208220Y-87650057D01*
X116204059Y-87606038D01*
X116203500Y-87594181D01*
X116203500Y-87073767D01*
X116204027Y-87062584D01*
X116205702Y-87055091D01*
X116203562Y-86987014D01*
X116203500Y-86983055D01*
X116203500Y-86955144D01*
X116202995Y-86951144D01*
X116202062Y-86939301D01*
X116200922Y-86903029D01*
X116200673Y-86895110D01*
X116195022Y-86875658D01*
X116191014Y-86856306D01*
X116189467Y-86844063D01*
X116188474Y-86836203D01*
X116185556Y-86828832D01*
X116172200Y-86795097D01*
X116168355Y-86783870D01*
X116161770Y-86761206D01*
X116156018Y-86741407D01*
X116151984Y-86734585D01*
X116151981Y-86734579D01*
X116145706Y-86723968D01*
X116137010Y-86706218D01*
X116132472Y-86694756D01*
X116132469Y-86694751D01*
X116129552Y-86687383D01*
X116106868Y-86656161D01*
X116103573Y-86651625D01*
X116097057Y-86641707D01*
X116078575Y-86610457D01*
X116074542Y-86603637D01*
X116060218Y-86589313D01*
X116047376Y-86574278D01*
X116035472Y-86557893D01*
X116001406Y-86529711D01*
X115992627Y-86521722D01*
X115128931Y-85658026D01*
X115094905Y-85595714D01*
X115099970Y-85524899D01*
X115108907Y-85505931D01*
X115131223Y-85467279D01*
X115131224Y-85467278D01*
X115134527Y-85461556D01*
X115193542Y-85279928D01*
X115199620Y-85222104D01*
X115212814Y-85096565D01*
X115213504Y-85090000D01*
X115193542Y-84900072D01*
X115134527Y-84718444D01*
X115039040Y-84553056D01*
X115011147Y-84522077D01*
X114915675Y-84416045D01*
X114915674Y-84416044D01*
X114911253Y-84411134D01*
X114788311Y-84321811D01*
X114762094Y-84302763D01*
X114762093Y-84302762D01*
X114756752Y-84298882D01*
X114750724Y-84296198D01*
X114750722Y-84296197D01*
X114588319Y-84223891D01*
X114588318Y-84223891D01*
X114582288Y-84221206D01*
X114473847Y-84198156D01*
X114401944Y-84182872D01*
X114401939Y-84182872D01*
X114395487Y-84181500D01*
X114204513Y-84181500D01*
X114198061Y-84182872D01*
X114198056Y-84182872D01*
X114126153Y-84198156D01*
X114017712Y-84221206D01*
X114011682Y-84223891D01*
X114011681Y-84223891D01*
X113917013Y-84266040D01*
X113843248Y-84298882D01*
X113842323Y-84296804D01*
X113783512Y-84311076D01*
X113716419Y-84287859D01*
X113672528Y-84232055D01*
X113663500Y-84185218D01*
X113663500Y-71198767D01*
X113664027Y-71187584D01*
X113665702Y-71180091D01*
X113663562Y-71112014D01*
X113663500Y-71108055D01*
X113663500Y-71080144D01*
X113662995Y-71076144D01*
X113662062Y-71064301D01*
X113660922Y-71028029D01*
X113660673Y-71020110D01*
X113655022Y-71000658D01*
X113651014Y-70981306D01*
X113649467Y-70969063D01*
X113648474Y-70961203D01*
X113645556Y-70953832D01*
X113632200Y-70920097D01*
X113628355Y-70908870D01*
X113623552Y-70892339D01*
X113616018Y-70866407D01*
X113611984Y-70859585D01*
X113611981Y-70859579D01*
X113605706Y-70848968D01*
X113597010Y-70831218D01*
X113592472Y-70819756D01*
X113592469Y-70819751D01*
X113589552Y-70812383D01*
X113576901Y-70794970D01*
X113563573Y-70776625D01*
X113557057Y-70766707D01*
X113538575Y-70735457D01*
X113534542Y-70728637D01*
X113520218Y-70714313D01*
X113507376Y-70699278D01*
X113495472Y-70682893D01*
X113461406Y-70654711D01*
X113452627Y-70646722D01*
X113069152Y-70263247D01*
X113035126Y-70200935D01*
X113036540Y-70141541D01*
X113040471Y-70126870D01*
X113053543Y-70078087D01*
X113073498Y-69850000D01*
X113053543Y-69621913D01*
X113007156Y-69448794D01*
X112995707Y-69406067D01*
X112995706Y-69406065D01*
X112994284Y-69400757D01*
X112988797Y-69388990D01*
X112899849Y-69198238D01*
X112899846Y-69198233D01*
X112897523Y-69193251D01*
X112816023Y-69076857D01*
X112769357Y-69010211D01*
X112769355Y-69010208D01*
X112766198Y-69005700D01*
X112604300Y-68843802D01*
X112599792Y-68840645D01*
X112599789Y-68840643D01*
X112489424Y-68763365D01*
X112416749Y-68712477D01*
X112411767Y-68710154D01*
X112411762Y-68710151D01*
X112377543Y-68694195D01*
X112324258Y-68647278D01*
X112304797Y-68579001D01*
X112325339Y-68511041D01*
X112377543Y-68465805D01*
X112411762Y-68449849D01*
X112411767Y-68449846D01*
X112416749Y-68447523D01*
X112552681Y-68352342D01*
X112599789Y-68319357D01*
X112599792Y-68319355D01*
X112604300Y-68316198D01*
X112766198Y-68154300D01*
X112775720Y-68140702D01*
X112894366Y-67971257D01*
X112897523Y-67966749D01*
X112899846Y-67961767D01*
X112899849Y-67961762D01*
X112991961Y-67764225D01*
X112991961Y-67764224D01*
X112994284Y-67759243D01*
X112996060Y-67752617D01*
X113052119Y-67543402D01*
X113052119Y-67543400D01*
X113053543Y-67538087D01*
X113073498Y-67310000D01*
X113053543Y-67081913D01*
X113009327Y-66916898D01*
X112995707Y-66866067D01*
X112995706Y-66866065D01*
X112994284Y-66860757D01*
X112991961Y-66855775D01*
X112899849Y-66658238D01*
X112899846Y-66658233D01*
X112897523Y-66653251D01*
X112816023Y-66536857D01*
X112769357Y-66470211D01*
X112769355Y-66470208D01*
X112766198Y-66465700D01*
X112604300Y-66303802D01*
X112599792Y-66300645D01*
X112599789Y-66300643D01*
X112491112Y-66224547D01*
X112416749Y-66172477D01*
X112411767Y-66170154D01*
X112411762Y-66170151D01*
X112377543Y-66154195D01*
X112324258Y-66107278D01*
X112304797Y-66039001D01*
X112325339Y-65971041D01*
X112377543Y-65925805D01*
X112411762Y-65909849D01*
X112411767Y-65909846D01*
X112416749Y-65907523D01*
X112552681Y-65812342D01*
X112599789Y-65779357D01*
X112599792Y-65779355D01*
X112604300Y-65776198D01*
X112766198Y-65614300D01*
X112775720Y-65600702D01*
X112894366Y-65431257D01*
X112897523Y-65426749D01*
X112899846Y-65421767D01*
X112899849Y-65421762D01*
X112991961Y-65224225D01*
X112991961Y-65224224D01*
X112994284Y-65219243D01*
X112996060Y-65212617D01*
X113052119Y-65003402D01*
X113052120Y-65003397D01*
X113053543Y-64998087D01*
X113073498Y-64770000D01*
X113053543Y-64541913D01*
X113009969Y-64379292D01*
X112995707Y-64326067D01*
X112995706Y-64326065D01*
X112994284Y-64320757D01*
X112991961Y-64315775D01*
X112899849Y-64118238D01*
X112899846Y-64118233D01*
X112897523Y-64113251D01*
X112816023Y-63996857D01*
X112769357Y-63930211D01*
X112769355Y-63930208D01*
X112766198Y-63925700D01*
X112604300Y-63763802D01*
X112599792Y-63760645D01*
X112599789Y-63760643D01*
X112491112Y-63684547D01*
X112416749Y-63632477D01*
X112411767Y-63630154D01*
X112411762Y-63630151D01*
X112377543Y-63614195D01*
X112324258Y-63567278D01*
X112304797Y-63499001D01*
X112325339Y-63431041D01*
X112377543Y-63385805D01*
X112411762Y-63369849D01*
X112411767Y-63369846D01*
X112416749Y-63367523D01*
X112552681Y-63272342D01*
X112599789Y-63239357D01*
X112599792Y-63239355D01*
X112604300Y-63236198D01*
X112766198Y-63074300D01*
X112775720Y-63060702D01*
X112894366Y-62891257D01*
X112897523Y-62886749D01*
X112899846Y-62881767D01*
X112899849Y-62881762D01*
X112991961Y-62684225D01*
X112991961Y-62684224D01*
X112994284Y-62679243D01*
X112996060Y-62672617D01*
X113052119Y-62463402D01*
X113052119Y-62463400D01*
X113053543Y-62458087D01*
X113073498Y-62230000D01*
X113053543Y-62001913D01*
X113052119Y-61996598D01*
X112995707Y-61786067D01*
X112995706Y-61786065D01*
X112994284Y-61780757D01*
X112951100Y-61688148D01*
X112899849Y-61578238D01*
X112899846Y-61578233D01*
X112897523Y-61573251D01*
X112803437Y-61438882D01*
X112769357Y-61390211D01*
X112769355Y-61390208D01*
X112766198Y-61385700D01*
X112604300Y-61223802D01*
X112599792Y-61220645D01*
X112599789Y-61220643D01*
X112521611Y-61165902D01*
X112416749Y-61092477D01*
X112411767Y-61090154D01*
X112411762Y-61090151D01*
X112214225Y-60998039D01*
X112214224Y-60998039D01*
X112209243Y-60995716D01*
X112203935Y-60994294D01*
X112203933Y-60994293D01*
X111993402Y-60937881D01*
X111993400Y-60937881D01*
X111988087Y-60936457D01*
X111760000Y-60916502D01*
X111531913Y-60936457D01*
X111526600Y-60937881D01*
X111526598Y-60937881D01*
X111316067Y-60994293D01*
X111316065Y-60994294D01*
X111310757Y-60995716D01*
X111305776Y-60998039D01*
X111305775Y-60998039D01*
X111108238Y-61090151D01*
X111108233Y-61090154D01*
X111103251Y-61092477D01*
X110998389Y-61165902D01*
X110920211Y-61220643D01*
X110920208Y-61220645D01*
X110915700Y-61223802D01*
X110753802Y-61385700D01*
X110750645Y-61390208D01*
X110750643Y-61390211D01*
X110716563Y-61438882D01*
X110622477Y-61573251D01*
X110620154Y-61578233D01*
X110620151Y-61578238D01*
X110568900Y-61688148D01*
X110525716Y-61780757D01*
X110524294Y-61786065D01*
X110524293Y-61786067D01*
X110467881Y-61996598D01*
X110466457Y-62001913D01*
X110462544Y-62046635D01*
X110459428Y-62082253D01*
X110433564Y-62148371D01*
X110376061Y-62190011D01*
X110305173Y-62193951D01*
X110289682Y-62189254D01*
X110180316Y-62148255D01*
X110118134Y-62141500D01*
X108331428Y-62141500D01*
X108263307Y-62121498D01*
X108216814Y-62067842D01*
X108208961Y-62044058D01*
X108208542Y-62040072D01*
X108149527Y-61858444D01*
X108054040Y-61693056D01*
X107926253Y-61551134D01*
X107771752Y-61438882D01*
X107765724Y-61436198D01*
X107765722Y-61436197D01*
X107603319Y-61363891D01*
X107603318Y-61363891D01*
X107597288Y-61361206D01*
X107503887Y-61341353D01*
X107416944Y-61322872D01*
X107416939Y-61322872D01*
X107410487Y-61321500D01*
X107219513Y-61321500D01*
X107213061Y-61322872D01*
X107213056Y-61322872D01*
X107126113Y-61341353D01*
X107032712Y-61361206D01*
X107026682Y-61363891D01*
X107026681Y-61363891D01*
X106864278Y-61436197D01*
X106864276Y-61436198D01*
X106858248Y-61438882D01*
X106703747Y-61551134D01*
X106575960Y-61693056D01*
X106480473Y-61858444D01*
X106421458Y-62040072D01*
X106420768Y-62046633D01*
X106420768Y-62046635D01*
X106412900Y-62121498D01*
X106401496Y-62230000D01*
X106402186Y-62236565D01*
X106414068Y-62349612D01*
X106421458Y-62419928D01*
X106480473Y-62601556D01*
X106575960Y-62766944D01*
X106649137Y-62848215D01*
X106679853Y-62912221D01*
X106681500Y-62932524D01*
X106681500Y-67877476D01*
X106661498Y-67945597D01*
X106649142Y-67961779D01*
X106575960Y-68043056D01*
X106480473Y-68208444D01*
X106421458Y-68390072D01*
X106420768Y-68396633D01*
X106420768Y-68396635D01*
X106415420Y-68447523D01*
X106401496Y-68580000D01*
X106045000Y-68580000D01*
X106045000Y-57116695D01*
X111032251Y-57116695D01*
X111045110Y-57339715D01*
X111046247Y-57344761D01*
X111046248Y-57344767D01*
X111070304Y-57451508D01*
X111094222Y-57557639D01*
X111178266Y-57764616D01*
X111294987Y-57955088D01*
X111441250Y-58123938D01*
X111613126Y-58266632D01*
X111699070Y-58316853D01*
X111747794Y-58368491D01*
X111761500Y-58425641D01*
X111761500Y-58976233D01*
X111760973Y-58987416D01*
X111759298Y-58994909D01*
X111759547Y-59002835D01*
X111759547Y-59002836D01*
X111761438Y-59062986D01*
X111761500Y-59066945D01*
X111761500Y-59094856D01*
X111761997Y-59098790D01*
X111761997Y-59098791D01*
X111762005Y-59098856D01*
X111762938Y-59110693D01*
X111764327Y-59154889D01*
X111769978Y-59174339D01*
X111773987Y-59193700D01*
X111776526Y-59213797D01*
X111779445Y-59221168D01*
X111779445Y-59221170D01*
X111792804Y-59254912D01*
X111796649Y-59266142D01*
X111801929Y-59284317D01*
X111808982Y-59308593D01*
X111813015Y-59315412D01*
X111813017Y-59315417D01*
X111819293Y-59326028D01*
X111827988Y-59343776D01*
X111835448Y-59362617D01*
X111840110Y-59369033D01*
X111840110Y-59369034D01*
X111861436Y-59398387D01*
X111867952Y-59408307D01*
X111884571Y-59436407D01*
X111890458Y-59446362D01*
X111904779Y-59460683D01*
X111917619Y-59475716D01*
X111929528Y-59492107D01*
X111935634Y-59497158D01*
X111963605Y-59520298D01*
X111972384Y-59528288D01*
X112526343Y-60082247D01*
X112533887Y-60090537D01*
X112538000Y-60097018D01*
X112543777Y-60102443D01*
X112587667Y-60143658D01*
X112590509Y-60146413D01*
X112610231Y-60166135D01*
X112613355Y-60168558D01*
X112613359Y-60168562D01*
X112613424Y-60168612D01*
X112622445Y-60176317D01*
X112654679Y-60206586D01*
X112661627Y-60210405D01*
X112661629Y-60210407D01*
X112672432Y-60216346D01*
X112688959Y-60227202D01*
X112698698Y-60234757D01*
X112698700Y-60234758D01*
X112704960Y-60239614D01*
X112745540Y-60257174D01*
X112756188Y-60262391D01*
X112794940Y-60283695D01*
X112802616Y-60285666D01*
X112802619Y-60285667D01*
X112814562Y-60288733D01*
X112833267Y-60295137D01*
X112851855Y-60303181D01*
X112859678Y-60304420D01*
X112859688Y-60304423D01*
X112895524Y-60310099D01*
X112907144Y-60312505D01*
X112942289Y-60321528D01*
X112949970Y-60323500D01*
X112970224Y-60323500D01*
X112989934Y-60325051D01*
X113009943Y-60328220D01*
X113017835Y-60327474D01*
X113053961Y-60324059D01*
X113065819Y-60323500D01*
X124145406Y-60323500D01*
X124213527Y-60343502D01*
X124234501Y-60360405D01*
X124424595Y-60550499D01*
X124458621Y-60612811D01*
X124461500Y-60639594D01*
X124461500Y-73345405D01*
X124441498Y-73413526D01*
X124424595Y-73434501D01*
X124067742Y-73791353D01*
X124059463Y-73798887D01*
X124052982Y-73803000D01*
X124013967Y-73844547D01*
X124006357Y-73852651D01*
X124003602Y-73855493D01*
X123983865Y-73875230D01*
X123981385Y-73878427D01*
X123973682Y-73887447D01*
X123943414Y-73919679D01*
X123939595Y-73926625D01*
X123939593Y-73926628D01*
X123933652Y-73937434D01*
X123922801Y-73953953D01*
X123910386Y-73969959D01*
X123907241Y-73977228D01*
X123907238Y-73977232D01*
X123892826Y-74010537D01*
X123887609Y-74021187D01*
X123866305Y-74059940D01*
X123864334Y-74067615D01*
X123864334Y-74067616D01*
X123861267Y-74079562D01*
X123854863Y-74098266D01*
X123846819Y-74116855D01*
X123845580Y-74124678D01*
X123845577Y-74124688D01*
X123839901Y-74160524D01*
X123837495Y-74172144D01*
X123826500Y-74214970D01*
X123826500Y-74227474D01*
X123806498Y-74295595D01*
X123794137Y-74311784D01*
X123720960Y-74393056D01*
X123717658Y-74398775D01*
X123717656Y-74398778D01*
X123659629Y-74499284D01*
X123625473Y-74558444D01*
X123566458Y-74740072D01*
X123546496Y-74930000D01*
X123547186Y-74936565D01*
X123560381Y-75062104D01*
X123566458Y-75119928D01*
X123625473Y-75301556D01*
X123628776Y-75307278D01*
X123628777Y-75307279D01*
X123648903Y-75342138D01*
X123720960Y-75466944D01*
X123725378Y-75471851D01*
X123725379Y-75471852D01*
X123774746Y-75526680D01*
X123848747Y-75608866D01*
X124003248Y-75721118D01*
X124009276Y-75723802D01*
X124009278Y-75723803D01*
X124161129Y-75791411D01*
X124177712Y-75798794D01*
X124271112Y-75818647D01*
X124358056Y-75837128D01*
X124358061Y-75837128D01*
X124364513Y-75838500D01*
X124555487Y-75838500D01*
X124561939Y-75837128D01*
X124561944Y-75837128D01*
X124648888Y-75818647D01*
X124742288Y-75798794D01*
X124766656Y-75787945D01*
X124916752Y-75721118D01*
X124917677Y-75723196D01*
X124976488Y-75708924D01*
X125043581Y-75732141D01*
X125087472Y-75787945D01*
X125096500Y-75834782D01*
X125096500Y-76756233D01*
X125095973Y-76767416D01*
X125094298Y-76774909D01*
X125094547Y-76782835D01*
X125094547Y-76782836D01*
X125096438Y-76842986D01*
X125096500Y-76846945D01*
X125096500Y-76874856D01*
X125096997Y-76878790D01*
X125096997Y-76878791D01*
X125097005Y-76878856D01*
X125097938Y-76890693D01*
X125099327Y-76934889D01*
X125104978Y-76954339D01*
X125108987Y-76973700D01*
X125111526Y-76993797D01*
X125114445Y-77001168D01*
X125114445Y-77001170D01*
X125127804Y-77034912D01*
X125131649Y-77046142D01*
X125143982Y-77088593D01*
X125148015Y-77095412D01*
X125148017Y-77095417D01*
X125154293Y-77106028D01*
X125162988Y-77123776D01*
X125170448Y-77142617D01*
X125175110Y-77149033D01*
X125175110Y-77149034D01*
X125196436Y-77178387D01*
X125202952Y-77188307D01*
X125225458Y-77226362D01*
X125239779Y-77240683D01*
X125252619Y-77255716D01*
X125264528Y-77272107D01*
X125288399Y-77291855D01*
X125298605Y-77300298D01*
X125307384Y-77308288D01*
X125685978Y-77686882D01*
X125718590Y-77743366D01*
X125763941Y-77912617D01*
X125765716Y-77919243D01*
X125768039Y-77924224D01*
X125768039Y-77924225D01*
X125860151Y-78121762D01*
X125860154Y-78121767D01*
X125862477Y-78126749D01*
X125865634Y-78131257D01*
X125984281Y-78300702D01*
X125993802Y-78314300D01*
X126155700Y-78476198D01*
X126160208Y-78479355D01*
X126160211Y-78479357D01*
X126207319Y-78512342D01*
X126343251Y-78607523D01*
X126348233Y-78609846D01*
X126348238Y-78609849D01*
X126382457Y-78625805D01*
X126435742Y-78672722D01*
X126455203Y-78740999D01*
X126434661Y-78808959D01*
X126382457Y-78854195D01*
X126348238Y-78870151D01*
X126348233Y-78870154D01*
X126343251Y-78872477D01*
X126268888Y-78924547D01*
X126160211Y-79000643D01*
X126160208Y-79000645D01*
X126155700Y-79003802D01*
X125993802Y-79165700D01*
X125990645Y-79170208D01*
X125990643Y-79170211D01*
X125943977Y-79236857D01*
X125862477Y-79353251D01*
X125860154Y-79358233D01*
X125860151Y-79358238D01*
X125768039Y-79555775D01*
X125765716Y-79560757D01*
X125764294Y-79566065D01*
X125764293Y-79566067D01*
X125750031Y-79619292D01*
X125706457Y-79781913D01*
X125686502Y-80010000D01*
X125706457Y-80238087D01*
X125707881Y-80243400D01*
X125707881Y-80243402D01*
X125763941Y-80452617D01*
X125765716Y-80459243D01*
X125768039Y-80464224D01*
X125768039Y-80464225D01*
X125860151Y-80661762D01*
X125860154Y-80661767D01*
X125862477Y-80666749D01*
X125865634Y-80671257D01*
X125984281Y-80840702D01*
X125993802Y-80854300D01*
X126155700Y-81016198D01*
X126160208Y-81019355D01*
X126160211Y-81019357D01*
X126207319Y-81052342D01*
X126343251Y-81147523D01*
X126348233Y-81149846D01*
X126348238Y-81149849D01*
X126382457Y-81165805D01*
X126435742Y-81212722D01*
X126455203Y-81280999D01*
X126434661Y-81348959D01*
X126382457Y-81394195D01*
X126348238Y-81410151D01*
X126348233Y-81410154D01*
X126343251Y-81412477D01*
X126268888Y-81464547D01*
X126160211Y-81540643D01*
X126160208Y-81540645D01*
X126155700Y-81543802D01*
X125993802Y-81705700D01*
X125990645Y-81710208D01*
X125990643Y-81710211D01*
X125943977Y-81776857D01*
X125862477Y-81893251D01*
X125860154Y-81898233D01*
X125860151Y-81898238D01*
X125768039Y-82095775D01*
X125765716Y-82100757D01*
X125764294Y-82106065D01*
X125764293Y-82106067D01*
X125750031Y-82159292D01*
X125706457Y-82321913D01*
X125686502Y-82550000D01*
X125706457Y-82778087D01*
X125707881Y-82783400D01*
X125707881Y-82783402D01*
X125763941Y-82992617D01*
X125765716Y-82999243D01*
X125768039Y-83004224D01*
X125768039Y-83004225D01*
X125860151Y-83201762D01*
X125860154Y-83201767D01*
X125862477Y-83206749D01*
X125865634Y-83211257D01*
X125984281Y-83380702D01*
X125993802Y-83394300D01*
X126155700Y-83556198D01*
X126160208Y-83559355D01*
X126160211Y-83559357D01*
X126207319Y-83592342D01*
X126343251Y-83687523D01*
X126348233Y-83689846D01*
X126348238Y-83689849D01*
X126382457Y-83705805D01*
X126435742Y-83752722D01*
X126455203Y-83820999D01*
X126434661Y-83888959D01*
X126382457Y-83934195D01*
X126348238Y-83950151D01*
X126348233Y-83950154D01*
X126343251Y-83952477D01*
X126268888Y-84004547D01*
X126160211Y-84080643D01*
X126160208Y-84080645D01*
X126155700Y-84083802D01*
X125993802Y-84245700D01*
X125990645Y-84250208D01*
X125990643Y-84250211D01*
X125958018Y-84296804D01*
X125862477Y-84433251D01*
X125860154Y-84438233D01*
X125860151Y-84438238D01*
X125768039Y-84635775D01*
X125765716Y-84640757D01*
X125764294Y-84646065D01*
X125764293Y-84646067D01*
X125741121Y-84732546D01*
X125706457Y-84861913D01*
X125686502Y-85090000D01*
X125706457Y-85318087D01*
X125707881Y-85323400D01*
X125707881Y-85323402D01*
X125763941Y-85532617D01*
X125765716Y-85539243D01*
X125768039Y-85544224D01*
X125768039Y-85544225D01*
X125860151Y-85741762D01*
X125860154Y-85741767D01*
X125862477Y-85746749D01*
X125865634Y-85751257D01*
X125984281Y-85920702D01*
X125993802Y-85934300D01*
X126155700Y-86096198D01*
X126160208Y-86099355D01*
X126160211Y-86099357D01*
X126221857Y-86142522D01*
X126343251Y-86227523D01*
X126348233Y-86229846D01*
X126348238Y-86229849D01*
X126382457Y-86245805D01*
X126435742Y-86292722D01*
X126455203Y-86360999D01*
X126434661Y-86428959D01*
X126382457Y-86474195D01*
X126348238Y-86490151D01*
X126348233Y-86490154D01*
X126343251Y-86492477D01*
X126290074Y-86529712D01*
X126160211Y-86620643D01*
X126160208Y-86620645D01*
X126155700Y-86623802D01*
X125993802Y-86785700D01*
X125990645Y-86790208D01*
X125990643Y-86790211D01*
X125958439Y-86836203D01*
X125862477Y-86973251D01*
X125860154Y-86978233D01*
X125860151Y-86978238D01*
X125768039Y-87175775D01*
X125765716Y-87180757D01*
X125764294Y-87186065D01*
X125764293Y-87186067D01*
X125750031Y-87239292D01*
X125706457Y-87401913D01*
X125686502Y-87630000D01*
X125706457Y-87858087D01*
X125707881Y-87863400D01*
X125707881Y-87863402D01*
X125763941Y-88072617D01*
X125765716Y-88079243D01*
X125768039Y-88084224D01*
X125768039Y-88084225D01*
X125860151Y-88281762D01*
X125860154Y-88281767D01*
X125862477Y-88286749D01*
X125865634Y-88291257D01*
X125984281Y-88460702D01*
X125993802Y-88474300D01*
X126155700Y-88636198D01*
X126160208Y-88639355D01*
X126160211Y-88639357D01*
X126207319Y-88672342D01*
X126343251Y-88767523D01*
X126348233Y-88769846D01*
X126348238Y-88769849D01*
X126382457Y-88785805D01*
X126435742Y-88832722D01*
X126455203Y-88900999D01*
X126434661Y-88968959D01*
X126382457Y-89014195D01*
X126348238Y-89030151D01*
X126348233Y-89030154D01*
X126343251Y-89032477D01*
X126268888Y-89084547D01*
X126160211Y-89160643D01*
X126160208Y-89160645D01*
X126155700Y-89163802D01*
X125993802Y-89325700D01*
X125990645Y-89330208D01*
X125990643Y-89330211D01*
X125958018Y-89376804D01*
X125862477Y-89513251D01*
X125860154Y-89518233D01*
X125860151Y-89518238D01*
X125768039Y-89715775D01*
X125765716Y-89720757D01*
X125764294Y-89726065D01*
X125764293Y-89726067D01*
X125741121Y-89812546D01*
X125706457Y-89941913D01*
X125686502Y-90170000D01*
X125706457Y-90398087D01*
X125707881Y-90403400D01*
X125707881Y-90403402D01*
X125762240Y-90606269D01*
X125765716Y-90619243D01*
X125768039Y-90624224D01*
X125768039Y-90624225D01*
X125860151Y-90821762D01*
X125860154Y-90821767D01*
X125862477Y-90826749D01*
X125865634Y-90831257D01*
X125987903Y-91005875D01*
X125993802Y-91014300D01*
X126155700Y-91176198D01*
X126160208Y-91179355D01*
X126160211Y-91179357D01*
X126214487Y-91217361D01*
X126343251Y-91307523D01*
X126348233Y-91309846D01*
X126348238Y-91309849D01*
X126382457Y-91325805D01*
X126435742Y-91372722D01*
X126455203Y-91440999D01*
X126434661Y-91508959D01*
X126382457Y-91554195D01*
X126348238Y-91570151D01*
X126348233Y-91570154D01*
X126343251Y-91572477D01*
X126238389Y-91645902D01*
X126160211Y-91700643D01*
X126160208Y-91700645D01*
X126155700Y-91703802D01*
X125993802Y-91865700D01*
X125990645Y-91870208D01*
X125990643Y-91870211D01*
X125956563Y-91918882D01*
X125862477Y-92053251D01*
X125860154Y-92058233D01*
X125860151Y-92058238D01*
X125823339Y-92137183D01*
X125765716Y-92260757D01*
X125764294Y-92266065D01*
X125764293Y-92266067D01*
X125714849Y-92450595D01*
X125706457Y-92481913D01*
X125686502Y-92710000D01*
X125706457Y-92938087D01*
X125707880Y-92943399D01*
X125707881Y-92943402D01*
X125763941Y-93152617D01*
X125765716Y-93159243D01*
X125768039Y-93164224D01*
X125768039Y-93164225D01*
X125860151Y-93361762D01*
X125860154Y-93361767D01*
X125862477Y-93366749D01*
X125935902Y-93471611D01*
X125984281Y-93540702D01*
X125993802Y-93554300D01*
X126155700Y-93716198D01*
X126160208Y-93719355D01*
X126160211Y-93719357D01*
X126207319Y-93752342D01*
X126343251Y-93847523D01*
X126348233Y-93849846D01*
X126348238Y-93849849D01*
X126382457Y-93865805D01*
X126435742Y-93912722D01*
X126455203Y-93980999D01*
X126434661Y-94048959D01*
X126382457Y-94094195D01*
X126348238Y-94110151D01*
X126348233Y-94110154D01*
X126343251Y-94112477D01*
X126300538Y-94142385D01*
X126233266Y-94165074D01*
X126164405Y-94147790D01*
X126139172Y-94128268D01*
X124772122Y-92761217D01*
X124738096Y-92698905D01*
X124735907Y-92685292D01*
X124732614Y-92653955D01*
X124718542Y-92520072D01*
X124659527Y-92338444D01*
X124564040Y-92173056D01*
X124536147Y-92142077D01*
X124440675Y-92036045D01*
X124440674Y-92036044D01*
X124436253Y-92031134D01*
X124281752Y-91918882D01*
X124275724Y-91916198D01*
X124275722Y-91916197D01*
X124113319Y-91843891D01*
X124113318Y-91843891D01*
X124107288Y-91841206D01*
X124001957Y-91818817D01*
X123926944Y-91802872D01*
X123926939Y-91802872D01*
X123920487Y-91801500D01*
X123729513Y-91801500D01*
X123723061Y-91802872D01*
X123723056Y-91802872D01*
X123648043Y-91818817D01*
X123542712Y-91841206D01*
X123536682Y-91843891D01*
X123536681Y-91843891D01*
X123374278Y-91916197D01*
X123374276Y-91916198D01*
X123368248Y-91918882D01*
X123213747Y-92031134D01*
X123209326Y-92036044D01*
X123209325Y-92036045D01*
X123113854Y-92142077D01*
X123085960Y-92173056D01*
X122990473Y-92338444D01*
X122931458Y-92520072D01*
X122911496Y-92710000D01*
X122912186Y-92716565D01*
X122925381Y-92842104D01*
X122931458Y-92899928D01*
X122990473Y-93081556D01*
X123085960Y-93246944D01*
X123213747Y-93388866D01*
X123368248Y-93501118D01*
X123374276Y-93503802D01*
X123374278Y-93503803D01*
X123496450Y-93558197D01*
X123542712Y-93578794D01*
X123636113Y-93598647D01*
X123723056Y-93617128D01*
X123723061Y-93617128D01*
X123729513Y-93618500D01*
X123785405Y-93618500D01*
X123853526Y-93638502D01*
X123874501Y-93655405D01*
X124167541Y-93948446D01*
X124201566Y-94010758D01*
X124196501Y-94081574D01*
X124153954Y-94138409D01*
X124122057Y-94155753D01*
X123965601Y-94213472D01*
X123960640Y-94216424D01*
X123960639Y-94216424D01*
X123864941Y-94273359D01*
X123784988Y-94320926D01*
X123626981Y-94459494D01*
X123623410Y-94464024D01*
X123516867Y-94599174D01*
X123496872Y-94624537D01*
X123494181Y-94629653D01*
X123494179Y-94629655D01*
X123412605Y-94784702D01*
X123399018Y-94810527D01*
X123336696Y-95011234D01*
X123336017Y-95016969D01*
X123336017Y-95016970D01*
X123333426Y-95038865D01*
X123316500Y-95181874D01*
X123316500Y-103412878D01*
X123315196Y-103430958D01*
X123313175Y-103444897D01*
X123313402Y-103450665D01*
X123316403Y-103527054D01*
X123316500Y-103532001D01*
X123316500Y-112504157D01*
X123296498Y-112572278D01*
X123279595Y-112593252D01*
X122753252Y-113119595D01*
X122690940Y-113153621D01*
X122664157Y-113156500D01*
X121956865Y-113156500D01*
X121903615Y-113144695D01*
X121739225Y-113068039D01*
X121739224Y-113068039D01*
X121734243Y-113065716D01*
X121728935Y-113064294D01*
X121728933Y-113064293D01*
X121518402Y-113007881D01*
X121518400Y-113007881D01*
X121513087Y-113006457D01*
X121285000Y-112986502D01*
X121056913Y-113006457D01*
X121051600Y-113007881D01*
X121051598Y-113007881D01*
X120841067Y-113064293D01*
X120841065Y-113064294D01*
X120835757Y-113065716D01*
X120830776Y-113068039D01*
X120830775Y-113068039D01*
X120633238Y-113160151D01*
X120633233Y-113160154D01*
X120628251Y-113162477D01*
X120554757Y-113213938D01*
X120445211Y-113290643D01*
X120445208Y-113290645D01*
X120440700Y-113293802D01*
X120278802Y-113455700D01*
X120147477Y-113643251D01*
X120145154Y-113648233D01*
X120145151Y-113648238D01*
X120053039Y-113845775D01*
X120050716Y-113850757D01*
X120049294Y-113856065D01*
X120049293Y-113856067D01*
X120018063Y-113972617D01*
X119991457Y-114071913D01*
X119971502Y-114300000D01*
X119991457Y-114528087D01*
X119992881Y-114533400D01*
X119992881Y-114533402D01*
X120040094Y-114709600D01*
X120050716Y-114749243D01*
X120053039Y-114754224D01*
X120053039Y-114754225D01*
X120145151Y-114951762D01*
X120145154Y-114951767D01*
X120147477Y-114956749D01*
X120278802Y-115144300D01*
X120440700Y-115306198D01*
X120445208Y-115309355D01*
X120445211Y-115309357D01*
X120459020Y-115319026D01*
X120628251Y-115437523D01*
X120633233Y-115439846D01*
X120633238Y-115439849D01*
X120829765Y-115531490D01*
X120835757Y-115534284D01*
X120841065Y-115535706D01*
X120841067Y-115535707D01*
X121051598Y-115592119D01*
X121051600Y-115592119D01*
X121056913Y-115593543D01*
X121285000Y-115613498D01*
X121513087Y-115593543D01*
X121518400Y-115592119D01*
X121518402Y-115592119D01*
X121728933Y-115535707D01*
X121728935Y-115535706D01*
X121734243Y-115534284D01*
X121780666Y-115512637D01*
X121903615Y-115455305D01*
X121956865Y-115443500D01*
X123147195Y-115443500D01*
X123155436Y-115443770D01*
X123220061Y-115448006D01*
X123307973Y-115437601D01*
X123311186Y-115437264D01*
X123399279Y-115429169D01*
X123404839Y-115427601D01*
X123408412Y-115426939D01*
X123419415Y-115424750D01*
X123423028Y-115423982D01*
X123428765Y-115423303D01*
X123513276Y-115397062D01*
X123516373Y-115396146D01*
X123552127Y-115386062D01*
X125563493Y-115386062D01*
X125572789Y-115398077D01*
X125623994Y-115433931D01*
X125633489Y-115439414D01*
X125830947Y-115531490D01*
X125841239Y-115535236D01*
X126051688Y-115591625D01*
X126062481Y-115593528D01*
X126279525Y-115612517D01*
X126290475Y-115612517D01*
X126507519Y-115593528D01*
X126518312Y-115591625D01*
X126728761Y-115535236D01*
X126739053Y-115531490D01*
X126936511Y-115439414D01*
X126946006Y-115433931D01*
X126998048Y-115397491D01*
X127006424Y-115387012D01*
X126999356Y-115373566D01*
X126297812Y-114672022D01*
X126283868Y-114664408D01*
X126282035Y-114664539D01*
X126275420Y-114668790D01*
X125569923Y-115374287D01*
X125563493Y-115386062D01*
X123552127Y-115386062D01*
X123601549Y-115372123D01*
X123606737Y-115369565D01*
X123610188Y-115368240D01*
X123620566Y-115364099D01*
X123623953Y-115362696D01*
X123629473Y-115360982D01*
X123707746Y-115319801D01*
X123710682Y-115318305D01*
X123790037Y-115279171D01*
X123794668Y-115275713D01*
X123797871Y-115273750D01*
X123807258Y-115267827D01*
X123810351Y-115265818D01*
X123815463Y-115263129D01*
X123884956Y-115208344D01*
X123887526Y-115206373D01*
X123953801Y-115156884D01*
X123953808Y-115156877D01*
X123958429Y-115153427D01*
X124014249Y-115093041D01*
X124017679Y-115089474D01*
X124767676Y-114339478D01*
X124829988Y-114305453D01*
X124900804Y-114310518D01*
X124957639Y-114353065D01*
X124982292Y-114417593D01*
X124991472Y-114522520D01*
X124993375Y-114533312D01*
X125049764Y-114743761D01*
X125053510Y-114754053D01*
X125145586Y-114951511D01*
X125151069Y-114961006D01*
X125187509Y-115013048D01*
X125197988Y-115021424D01*
X125211434Y-115014356D01*
X125924658Y-114301132D01*
X126649408Y-114301132D01*
X126649539Y-114302965D01*
X126653790Y-114309580D01*
X127359287Y-115015077D01*
X127371062Y-115021507D01*
X127383077Y-115012211D01*
X127418931Y-114961006D01*
X127424414Y-114951511D01*
X127516490Y-114754053D01*
X127520236Y-114743761D01*
X127576625Y-114533312D01*
X127578528Y-114522519D01*
X127597517Y-114305475D01*
X127597517Y-114294525D01*
X127578528Y-114077481D01*
X127576625Y-114066688D01*
X127520236Y-113856239D01*
X127516490Y-113845947D01*
X127424414Y-113648489D01*
X127418931Y-113638994D01*
X127382491Y-113586952D01*
X127372012Y-113578576D01*
X127358566Y-113585644D01*
X126657022Y-114287188D01*
X126649408Y-114301132D01*
X125924658Y-114301132D01*
X127000077Y-113225713D01*
X127006507Y-113213938D01*
X126997211Y-113201923D01*
X126946006Y-113166069D01*
X126936511Y-113160586D01*
X126739053Y-113068510D01*
X126728761Y-113064764D01*
X126518312Y-113008375D01*
X126507519Y-113006472D01*
X126290475Y-112987483D01*
X126279525Y-112987483D01*
X126062481Y-113006472D01*
X126051688Y-113008375D01*
X125841239Y-113064764D01*
X125830947Y-113068510D01*
X125782750Y-113090985D01*
X125712559Y-113101646D01*
X125647746Y-113072666D01*
X125608889Y-113013247D01*
X125603500Y-112976790D01*
X125603500Y-111719436D01*
X125623502Y-111651315D01*
X125677158Y-111604822D01*
X125747432Y-111594718D01*
X125812012Y-111624212D01*
X125830325Y-111643870D01*
X125831713Y-111645722D01*
X125844276Y-111658285D01*
X125946351Y-111734786D01*
X125961946Y-111743324D01*
X126082394Y-111788478D01*
X126097649Y-111792105D01*
X126148514Y-111797631D01*
X126155328Y-111798000D01*
X126727885Y-111798000D01*
X126743124Y-111793525D01*
X126744329Y-111792135D01*
X126746000Y-111784452D01*
X126746000Y-110362000D01*
X126766002Y-110293879D01*
X126819658Y-110247386D01*
X126872000Y-110236000D01*
X127128000Y-110236000D01*
X127196121Y-110256002D01*
X127242614Y-110309658D01*
X127254000Y-110362000D01*
X127254000Y-111779884D01*
X127258475Y-111795123D01*
X127259865Y-111796328D01*
X127267548Y-111797999D01*
X127844669Y-111797999D01*
X127851490Y-111797629D01*
X127902352Y-111792105D01*
X127917604Y-111788479D01*
X128011270Y-111753365D01*
X128082077Y-111748182D01*
X128144446Y-111782103D01*
X128178576Y-111844358D01*
X128181500Y-111871347D01*
X128181500Y-112658134D01*
X128188255Y-112720316D01*
X128239385Y-112856705D01*
X128326739Y-112973261D01*
X128443295Y-113060615D01*
X128579684Y-113111745D01*
X128641866Y-113118500D01*
X130438134Y-113118500D01*
X130500316Y-113111745D01*
X130636705Y-113060615D01*
X130753261Y-112973261D01*
X130840615Y-112856705D01*
X130891745Y-112720316D01*
X130898500Y-112658134D01*
X130898500Y-110861866D01*
X130891745Y-110799684D01*
X130840615Y-110663295D01*
X130753261Y-110546739D01*
X130636705Y-110459385D01*
X130609905Y-110449338D01*
X130518203Y-110414960D01*
X130461439Y-110372318D01*
X130436739Y-110305756D01*
X130451947Y-110236408D01*
X130473493Y-110207727D01*
X130574435Y-110107137D01*
X130578096Y-110103489D01*
X130583118Y-110096501D01*
X130705435Y-109926277D01*
X130708453Y-109922077D01*
X130752354Y-109833251D01*
X130805136Y-109726453D01*
X130805137Y-109726451D01*
X130807430Y-109721811D01*
X130869332Y-109518068D01*
X130870865Y-109513023D01*
X130870865Y-109513021D01*
X130872370Y-109508069D01*
X130901529Y-109286590D01*
X130902165Y-109260564D01*
X130903074Y-109223365D01*
X130903074Y-109223361D01*
X130903156Y-109220000D01*
X130884852Y-108997361D01*
X130830431Y-108780702D01*
X130741354Y-108575840D01*
X130644938Y-108426804D01*
X130622822Y-108392617D01*
X130622820Y-108392614D01*
X130620014Y-108388277D01*
X130469670Y-108223051D01*
X130465619Y-108219852D01*
X130465615Y-108219848D01*
X130298414Y-108087800D01*
X130298410Y-108087798D01*
X130294359Y-108084598D01*
X130253053Y-108061796D01*
X130203084Y-108011364D01*
X130188312Y-107941921D01*
X130213428Y-107875516D01*
X130240780Y-107848909D01*
X130284603Y-107817650D01*
X130419860Y-107721173D01*
X130578096Y-107563489D01*
X130587670Y-107550166D01*
X130705435Y-107386277D01*
X130708453Y-107382077D01*
X130752354Y-107293251D01*
X130805136Y-107186453D01*
X130805137Y-107186451D01*
X130807430Y-107181811D01*
X130872370Y-106968069D01*
X130901529Y-106746590D01*
X130902093Y-106723498D01*
X130903074Y-106683365D01*
X130903074Y-106683361D01*
X130903156Y-106680000D01*
X130884852Y-106457361D01*
X130830431Y-106240702D01*
X130741354Y-106035840D01*
X130689058Y-105955003D01*
X130622822Y-105852617D01*
X130622820Y-105852614D01*
X130620014Y-105848277D01*
X130469670Y-105683051D01*
X130465619Y-105679852D01*
X130465615Y-105679848D01*
X130298414Y-105547800D01*
X130298410Y-105547798D01*
X130294359Y-105544598D01*
X130253053Y-105521796D01*
X130203084Y-105471364D01*
X130188312Y-105401921D01*
X130213428Y-105335516D01*
X130240780Y-105308909D01*
X130284603Y-105277650D01*
X130419860Y-105181173D01*
X130468734Y-105132470D01*
X130574435Y-105027137D01*
X130578096Y-105023489D01*
X130583118Y-105016501D01*
X130705435Y-104846277D01*
X130708453Y-104842077D01*
X130752354Y-104753251D01*
X130805136Y-104646453D01*
X130805137Y-104646451D01*
X130807430Y-104641811D01*
X130869332Y-104438068D01*
X130870865Y-104433023D01*
X130870865Y-104433021D01*
X130872370Y-104428069D01*
X130901529Y-104206590D01*
X130901611Y-104203240D01*
X130903074Y-104143365D01*
X130903074Y-104143361D01*
X130903156Y-104140000D01*
X130884852Y-103917361D01*
X130830431Y-103700702D01*
X130741354Y-103495840D01*
X130693562Y-103421965D01*
X130622822Y-103312617D01*
X130622820Y-103312614D01*
X130620014Y-103308277D01*
X130469670Y-103143051D01*
X130465619Y-103139852D01*
X130465615Y-103139848D01*
X130298414Y-103007800D01*
X130298410Y-103007798D01*
X130294359Y-103004598D01*
X130253053Y-102981796D01*
X130203084Y-102931364D01*
X130188312Y-102861921D01*
X130213428Y-102795516D01*
X130240780Y-102768909D01*
X130284603Y-102737650D01*
X130419860Y-102641173D01*
X130468734Y-102592470D01*
X130574435Y-102487137D01*
X130578096Y-102483489D01*
X130583118Y-102476501D01*
X130705435Y-102306277D01*
X130708453Y-102302077D01*
X130752354Y-102213251D01*
X130805136Y-102106453D01*
X130805137Y-102106451D01*
X130807430Y-102101811D01*
X130869332Y-101898068D01*
X130870865Y-101893023D01*
X130870865Y-101893021D01*
X130872370Y-101888069D01*
X130901529Y-101666590D01*
X130901611Y-101663240D01*
X130903074Y-101603365D01*
X130903074Y-101603361D01*
X130903156Y-101600000D01*
X130884852Y-101377361D01*
X130830431Y-101160702D01*
X130741354Y-100955840D01*
X130701906Y-100894862D01*
X130622822Y-100772617D01*
X130622820Y-100772614D01*
X130620014Y-100768277D01*
X130469670Y-100603051D01*
X130465619Y-100599852D01*
X130465615Y-100599848D01*
X130298414Y-100467800D01*
X130298410Y-100467798D01*
X130294359Y-100464598D01*
X130253053Y-100441796D01*
X130203084Y-100391364D01*
X130188312Y-100321921D01*
X130213428Y-100255516D01*
X130240780Y-100228909D01*
X130307633Y-100181223D01*
X130419860Y-100101173D01*
X130468734Y-100052470D01*
X130552997Y-99968500D01*
X130578096Y-99943489D01*
X130583118Y-99936501D01*
X130705435Y-99766277D01*
X130708453Y-99762077D01*
X130752354Y-99673251D01*
X130805136Y-99566453D01*
X130805137Y-99566451D01*
X130807430Y-99561811D01*
X130869332Y-99358068D01*
X130870865Y-99353023D01*
X130870865Y-99353021D01*
X130872370Y-99348069D01*
X130901529Y-99126590D01*
X130901688Y-99120092D01*
X130903074Y-99063365D01*
X130903074Y-99063361D01*
X130903156Y-99060000D01*
X130884852Y-98837361D01*
X130830431Y-98620702D01*
X130741354Y-98415840D01*
X130638365Y-98256643D01*
X130622822Y-98232617D01*
X130622820Y-98232614D01*
X130620014Y-98228277D01*
X130469670Y-98063051D01*
X130465619Y-98059852D01*
X130465615Y-98059848D01*
X130298414Y-97927800D01*
X130298410Y-97927798D01*
X130294359Y-97924598D01*
X130253053Y-97901796D01*
X130203084Y-97851364D01*
X130188312Y-97781921D01*
X130213428Y-97715516D01*
X130240780Y-97688909D01*
X130365325Y-97600072D01*
X130419860Y-97561173D01*
X130468734Y-97512470D01*
X130520567Y-97460817D01*
X130578096Y-97403489D01*
X130583118Y-97396501D01*
X130705435Y-97226277D01*
X130708453Y-97222077D01*
X130752354Y-97133251D01*
X130805136Y-97026453D01*
X130805137Y-97026451D01*
X130807430Y-97021811D01*
X130843061Y-96904537D01*
X130870865Y-96813023D01*
X130870865Y-96813021D01*
X130872370Y-96808069D01*
X130901529Y-96586590D01*
X130901611Y-96583240D01*
X130903074Y-96523365D01*
X130903074Y-96523361D01*
X130903156Y-96520000D01*
X130884852Y-96297361D01*
X130830431Y-96080702D01*
X130741354Y-95875840D01*
X130701906Y-95814862D01*
X130622822Y-95692617D01*
X130622820Y-95692614D01*
X130620014Y-95688277D01*
X130469670Y-95523051D01*
X130465619Y-95519852D01*
X130465615Y-95519848D01*
X130298414Y-95387800D01*
X130298410Y-95387798D01*
X130294359Y-95384598D01*
X130253053Y-95361796D01*
X130203084Y-95311364D01*
X130188312Y-95241921D01*
X130213428Y-95175516D01*
X130240780Y-95148909D01*
X130332016Y-95083831D01*
X130419860Y-95021173D01*
X130468734Y-94972470D01*
X130574435Y-94867137D01*
X130578096Y-94863489D01*
X130583118Y-94856501D01*
X130705435Y-94686277D01*
X130708453Y-94682077D01*
X130734362Y-94629655D01*
X130805136Y-94486453D01*
X130805137Y-94486451D01*
X130807430Y-94481811D01*
X130869332Y-94278068D01*
X130870865Y-94273023D01*
X130870865Y-94273021D01*
X130872370Y-94268069D01*
X130901529Y-94046590D01*
X130901611Y-94043240D01*
X130903074Y-93983365D01*
X130903074Y-93983361D01*
X130903156Y-93980000D01*
X130884852Y-93757361D01*
X130830431Y-93540702D01*
X130741354Y-93335840D01*
X130683845Y-93246944D01*
X130622822Y-93152617D01*
X130622820Y-93152614D01*
X130620014Y-93148277D01*
X130469670Y-92983051D01*
X130465619Y-92979852D01*
X130465615Y-92979848D01*
X130298414Y-92847800D01*
X130298410Y-92847798D01*
X130294359Y-92844598D01*
X130252569Y-92821529D01*
X130202598Y-92771097D01*
X130187826Y-92701654D01*
X130212942Y-92635248D01*
X130240294Y-92608641D01*
X130415328Y-92483792D01*
X130423200Y-92477139D01*
X130574052Y-92326812D01*
X130580730Y-92318965D01*
X130705003Y-92146020D01*
X130710313Y-92137183D01*
X130804670Y-91946267D01*
X130808469Y-91936672D01*
X130870377Y-91732910D01*
X130872555Y-91722837D01*
X130873986Y-91711962D01*
X130871775Y-91697778D01*
X130858617Y-91694000D01*
X128223225Y-91694000D01*
X128209694Y-91697973D01*
X128208257Y-91707966D01*
X128217272Y-91747966D01*
X128212736Y-91818817D01*
X128170615Y-91875969D01*
X128104281Y-91901275D01*
X128034796Y-91886702D01*
X128005260Y-91864762D01*
X127844300Y-91703802D01*
X127839792Y-91700645D01*
X127839789Y-91700643D01*
X127761611Y-91645902D01*
X127656749Y-91572477D01*
X127651767Y-91570154D01*
X127651762Y-91570151D01*
X127617543Y-91554195D01*
X127564258Y-91507278D01*
X127544797Y-91439001D01*
X127565339Y-91371041D01*
X127617543Y-91325805D01*
X127651762Y-91309849D01*
X127651767Y-91309846D01*
X127656749Y-91307523D01*
X127785513Y-91217361D01*
X127839789Y-91179357D01*
X127839792Y-91179355D01*
X127844300Y-91176198D01*
X128003392Y-91017106D01*
X128065704Y-90983080D01*
X128136519Y-90988145D01*
X128193355Y-91030692D01*
X128218166Y-91097212D01*
X128213904Y-91139874D01*
X128204389Y-91174184D01*
X128205912Y-91182607D01*
X128218292Y-91186000D01*
X130858344Y-91186000D01*
X130871875Y-91182027D01*
X130873180Y-91172947D01*
X130831214Y-91005875D01*
X130827894Y-90996124D01*
X130742972Y-90800814D01*
X130738105Y-90791739D01*
X130622426Y-90612926D01*
X130616136Y-90604757D01*
X130472806Y-90447240D01*
X130465273Y-90440215D01*
X130298139Y-90308222D01*
X130289556Y-90302520D01*
X130252602Y-90282120D01*
X130202631Y-90231687D01*
X130187859Y-90162245D01*
X130212975Y-90095839D01*
X130240327Y-90069232D01*
X130263797Y-90052491D01*
X130419860Y-89941173D01*
X130578096Y-89783489D01*
X130708453Y-89602077D01*
X130752354Y-89513251D01*
X130805136Y-89406453D01*
X130805137Y-89406451D01*
X130807430Y-89401811D01*
X130872370Y-89188069D01*
X130901529Y-88966590D01*
X130901611Y-88963240D01*
X130903074Y-88903365D01*
X130903074Y-88903361D01*
X130903156Y-88900000D01*
X130884852Y-88677361D01*
X130830431Y-88460702D01*
X130741354Y-88255840D01*
X130651032Y-88116223D01*
X130622822Y-88072617D01*
X130622820Y-88072614D01*
X130620014Y-88068277D01*
X130469670Y-87903051D01*
X130465619Y-87899852D01*
X130465615Y-87899848D01*
X130298414Y-87767800D01*
X130298410Y-87767798D01*
X130294359Y-87764598D01*
X130253053Y-87741796D01*
X130203084Y-87691364D01*
X130188312Y-87621921D01*
X130213428Y-87555516D01*
X130240780Y-87528909D01*
X130284603Y-87497650D01*
X130419860Y-87401173D01*
X130578096Y-87243489D01*
X130708453Y-87062077D01*
X130715824Y-87047164D01*
X130805136Y-86866453D01*
X130805137Y-86866451D01*
X130807430Y-86861811D01*
X130858185Y-86694756D01*
X130870865Y-86653023D01*
X130870865Y-86653021D01*
X130872370Y-86648069D01*
X130901529Y-86426590D01*
X130901611Y-86423240D01*
X130903074Y-86363365D01*
X130903074Y-86363361D01*
X130903156Y-86360000D01*
X130884852Y-86137361D01*
X130830431Y-85920702D01*
X130741354Y-85715840D01*
X130659725Y-85589661D01*
X130622822Y-85532617D01*
X130622820Y-85532614D01*
X130620014Y-85528277D01*
X130469670Y-85363051D01*
X130465619Y-85359852D01*
X130465615Y-85359848D01*
X130298414Y-85227800D01*
X130298410Y-85227798D01*
X130294359Y-85224598D01*
X130253053Y-85201796D01*
X130203084Y-85151364D01*
X130188312Y-85081921D01*
X130213428Y-85015516D01*
X130240780Y-84988909D01*
X130284603Y-84957650D01*
X130419860Y-84861173D01*
X130578096Y-84703489D01*
X130708453Y-84522077D01*
X130752354Y-84433251D01*
X130805136Y-84326453D01*
X130805137Y-84326451D01*
X130807430Y-84321811D01*
X130872370Y-84108069D01*
X130901529Y-83886590D01*
X130901611Y-83883240D01*
X130903074Y-83823365D01*
X130903074Y-83823361D01*
X130903156Y-83820000D01*
X130884852Y-83597361D01*
X130830431Y-83380702D01*
X130741354Y-83175840D01*
X130701906Y-83114862D01*
X130622822Y-82992617D01*
X130622820Y-82992614D01*
X130620014Y-82988277D01*
X130469670Y-82823051D01*
X130465619Y-82819852D01*
X130465615Y-82819848D01*
X130298414Y-82687800D01*
X130298410Y-82687798D01*
X130294359Y-82684598D01*
X130253053Y-82661796D01*
X130203084Y-82611364D01*
X130188312Y-82541921D01*
X130213428Y-82475516D01*
X130240780Y-82448909D01*
X130284603Y-82417650D01*
X130419860Y-82321173D01*
X130578096Y-82163489D01*
X130708453Y-81982077D01*
X130752354Y-81893251D01*
X130805136Y-81786453D01*
X130805137Y-81786451D01*
X130807430Y-81781811D01*
X130872370Y-81568069D01*
X130901529Y-81346590D01*
X130901611Y-81343240D01*
X130903074Y-81283365D01*
X130903074Y-81283361D01*
X130903156Y-81280000D01*
X130884852Y-81057361D01*
X130830431Y-80840702D01*
X130741354Y-80635840D01*
X130701906Y-80574862D01*
X130622822Y-80452617D01*
X130622820Y-80452614D01*
X130620014Y-80448277D01*
X130469670Y-80283051D01*
X130465619Y-80279852D01*
X130465615Y-80279848D01*
X130298414Y-80147800D01*
X130298410Y-80147798D01*
X130294359Y-80144598D01*
X130253053Y-80121796D01*
X130203084Y-80071364D01*
X130188312Y-80001921D01*
X130213428Y-79935516D01*
X130240780Y-79908909D01*
X130284603Y-79877650D01*
X130419860Y-79781173D01*
X130578096Y-79623489D01*
X130708453Y-79442077D01*
X130752354Y-79353251D01*
X130805136Y-79246453D01*
X130805137Y-79246451D01*
X130807430Y-79241811D01*
X130872370Y-79028069D01*
X130901529Y-78806590D01*
X130901611Y-78803240D01*
X130903074Y-78743365D01*
X130903074Y-78743361D01*
X130903156Y-78740000D01*
X130884852Y-78517361D01*
X130830431Y-78300702D01*
X130741354Y-78095840D01*
X130701906Y-78034862D01*
X130622822Y-77912617D01*
X130622820Y-77912614D01*
X130620014Y-77908277D01*
X130469670Y-77743051D01*
X130465619Y-77739852D01*
X130465615Y-77739848D01*
X130298414Y-77607800D01*
X130298410Y-77607798D01*
X130294359Y-77604598D01*
X130253053Y-77581796D01*
X130203084Y-77531364D01*
X130188312Y-77461921D01*
X130213428Y-77395516D01*
X130240780Y-77368909D01*
X130287584Y-77335524D01*
X130419860Y-77241173D01*
X130464993Y-77196198D01*
X130555478Y-77106028D01*
X130578096Y-77083489D01*
X130596326Y-77058120D01*
X130705435Y-76906277D01*
X130708453Y-76902077D01*
X130714077Y-76890699D01*
X130805136Y-76706453D01*
X130805137Y-76706451D01*
X130807430Y-76701811D01*
X130872370Y-76488069D01*
X130901529Y-76266590D01*
X130901611Y-76263240D01*
X130903074Y-76203365D01*
X130903074Y-76203361D01*
X130903156Y-76200000D01*
X130884852Y-75977361D01*
X130830431Y-75760702D01*
X130741354Y-75555840D01*
X130683845Y-75466944D01*
X130622822Y-75372617D01*
X130622820Y-75372614D01*
X130620014Y-75368277D01*
X130469670Y-75203051D01*
X130465619Y-75199852D01*
X130465615Y-75199848D01*
X130298414Y-75067800D01*
X130298410Y-75067798D01*
X130294359Y-75064598D01*
X130253053Y-75041796D01*
X130203084Y-74991364D01*
X130188312Y-74921921D01*
X130213428Y-74855516D01*
X130240780Y-74828909D01*
X130284603Y-74797650D01*
X130419860Y-74701173D01*
X130468734Y-74652470D01*
X130548937Y-74572546D01*
X130578096Y-74543489D01*
X130583118Y-74536501D01*
X130705435Y-74366277D01*
X130708453Y-74362077D01*
X130752354Y-74273251D01*
X130805136Y-74166453D01*
X130805137Y-74166451D01*
X130807430Y-74161811D01*
X130870582Y-73953953D01*
X130870865Y-73953023D01*
X130870865Y-73953021D01*
X130872370Y-73948069D01*
X130901529Y-73726590D01*
X130901611Y-73723240D01*
X130903074Y-73663365D01*
X130903074Y-73663361D01*
X130903156Y-73660000D01*
X130884852Y-73437361D01*
X130830431Y-73220702D01*
X130741354Y-73015840D01*
X130701906Y-72954862D01*
X130622822Y-72832617D01*
X130622820Y-72832614D01*
X130620014Y-72828277D01*
X130469670Y-72663051D01*
X130465619Y-72659852D01*
X130465615Y-72659848D01*
X130298414Y-72527800D01*
X130298410Y-72527798D01*
X130294359Y-72524598D01*
X130253053Y-72501796D01*
X130203084Y-72451364D01*
X130188312Y-72381921D01*
X130213428Y-72315516D01*
X130240780Y-72288909D01*
X130284603Y-72257650D01*
X130419860Y-72161173D01*
X130468734Y-72112470D01*
X130574435Y-72007137D01*
X130578096Y-72003489D01*
X130583118Y-71996501D01*
X130705435Y-71826277D01*
X130708453Y-71822077D01*
X130752354Y-71733251D01*
X130805136Y-71626453D01*
X130805137Y-71626451D01*
X130807430Y-71621811D01*
X130869332Y-71418068D01*
X130870865Y-71413023D01*
X130870865Y-71413021D01*
X130872370Y-71408069D01*
X130901529Y-71186590D01*
X130901688Y-71180091D01*
X130903074Y-71123365D01*
X130903074Y-71123361D01*
X130903156Y-71120000D01*
X130884852Y-70897361D01*
X130830431Y-70680702D01*
X130741354Y-70475840D01*
X130701906Y-70414862D01*
X130622822Y-70292617D01*
X130622820Y-70292614D01*
X130620014Y-70288277D01*
X130469670Y-70123051D01*
X130465619Y-70119852D01*
X130465615Y-70119848D01*
X130298414Y-69987800D01*
X130298410Y-69987798D01*
X130294359Y-69984598D01*
X130253053Y-69961796D01*
X130203084Y-69911364D01*
X130188312Y-69841921D01*
X130213428Y-69775516D01*
X130240780Y-69748909D01*
X130284603Y-69717650D01*
X130419860Y-69621173D01*
X130578096Y-69463489D01*
X130587670Y-69450166D01*
X130705435Y-69286277D01*
X130708453Y-69282077D01*
X130713089Y-69272698D01*
X130805136Y-69086453D01*
X130805137Y-69086451D01*
X130807430Y-69081811D01*
X130872370Y-68868069D01*
X130901529Y-68646590D01*
X130901611Y-68643240D01*
X130903074Y-68583365D01*
X130903074Y-68583361D01*
X130903156Y-68580000D01*
X130884852Y-68357361D01*
X130830431Y-68140702D01*
X130741354Y-67935840D01*
X130701906Y-67874862D01*
X130622822Y-67752617D01*
X130622820Y-67752614D01*
X130620014Y-67748277D01*
X130469670Y-67583051D01*
X130465619Y-67579852D01*
X130465615Y-67579848D01*
X130298414Y-67447800D01*
X130298410Y-67447798D01*
X130294359Y-67444598D01*
X130253053Y-67421796D01*
X130203084Y-67371364D01*
X130188312Y-67301921D01*
X130213428Y-67235516D01*
X130240780Y-67208909D01*
X130284603Y-67177650D01*
X130419860Y-67081173D01*
X130578096Y-66923489D01*
X130602308Y-66889795D01*
X130705435Y-66746277D01*
X130708453Y-66742077D01*
X130752354Y-66653251D01*
X130805136Y-66546453D01*
X130805137Y-66546451D01*
X130807430Y-66541811D01*
X130872370Y-66328069D01*
X130901529Y-66106590D01*
X130901611Y-66103240D01*
X130903074Y-66043365D01*
X130903074Y-66043361D01*
X130903156Y-66040000D01*
X130884852Y-65817361D01*
X130830431Y-65600702D01*
X130741354Y-65395840D01*
X130669431Y-65284664D01*
X130622822Y-65212617D01*
X130622820Y-65212614D01*
X130620014Y-65208277D01*
X130469670Y-65043051D01*
X130465619Y-65039852D01*
X130465615Y-65039848D01*
X130298414Y-64907800D01*
X130298410Y-64907798D01*
X130294359Y-64904598D01*
X130253053Y-64881796D01*
X130203084Y-64831364D01*
X130188312Y-64761921D01*
X130213428Y-64695516D01*
X130240780Y-64668909D01*
X130287543Y-64635553D01*
X130419860Y-64541173D01*
X130578096Y-64383489D01*
X130708453Y-64202077D01*
X130752354Y-64113251D01*
X130805136Y-64006453D01*
X130805137Y-64006451D01*
X130807430Y-64001811D01*
X130872370Y-63788069D01*
X130901529Y-63566590D01*
X130901611Y-63563240D01*
X130903074Y-63503365D01*
X130903074Y-63503361D01*
X130903156Y-63500000D01*
X130884852Y-63277361D01*
X130830431Y-63060702D01*
X130741354Y-62855840D01*
X130700338Y-62792439D01*
X130622822Y-62672617D01*
X130622820Y-62672614D01*
X130620014Y-62668277D01*
X130469670Y-62503051D01*
X130465619Y-62499852D01*
X130465615Y-62499848D01*
X130298414Y-62367800D01*
X130298410Y-62367798D01*
X130294359Y-62364598D01*
X130098789Y-62256638D01*
X130093920Y-62254914D01*
X130093916Y-62254912D01*
X129893087Y-62183795D01*
X129893083Y-62183794D01*
X129888212Y-62182069D01*
X129883119Y-62181162D01*
X129883116Y-62181161D01*
X129673373Y-62143800D01*
X129673367Y-62143799D01*
X129668284Y-62142894D01*
X129594452Y-62141992D01*
X129450081Y-62140228D01*
X129450079Y-62140228D01*
X129444911Y-62140165D01*
X129224091Y-62173955D01*
X129011756Y-62243357D01*
X128813607Y-62346507D01*
X128809474Y-62349610D01*
X128809471Y-62349612D01*
X128664996Y-62458087D01*
X128634965Y-62480635D01*
X128631393Y-62484373D01*
X128492388Y-62629833D01*
X128430863Y-62665263D01*
X128359951Y-62661806D01*
X128302165Y-62620560D01*
X128275851Y-62554620D01*
X128279587Y-62510171D01*
X128292119Y-62463402D01*
X128292119Y-62463400D01*
X128293543Y-62458087D01*
X128313498Y-62230000D01*
X128293543Y-62001913D01*
X128292119Y-61996598D01*
X128235707Y-61786067D01*
X128235706Y-61786065D01*
X128234284Y-61780757D01*
X128191100Y-61688148D01*
X128139849Y-61578238D01*
X128139846Y-61578233D01*
X128137523Y-61573251D01*
X128043437Y-61438882D01*
X128009357Y-61390211D01*
X128009355Y-61390208D01*
X128006198Y-61385700D01*
X127844300Y-61223802D01*
X127839792Y-61220645D01*
X127839789Y-61220643D01*
X127761611Y-61165902D01*
X127656749Y-61092477D01*
X127651767Y-61090154D01*
X127651762Y-61090151D01*
X127454225Y-60998039D01*
X127454224Y-60998039D01*
X127449243Y-60995716D01*
X127443935Y-60994294D01*
X127443933Y-60994293D01*
X127233402Y-60937881D01*
X127233400Y-60937881D01*
X127228087Y-60936457D01*
X127000000Y-60916502D01*
X126771913Y-60936457D01*
X126766600Y-60937881D01*
X126766598Y-60937881D01*
X126556067Y-60994293D01*
X126556065Y-60994294D01*
X126550757Y-60995716D01*
X126545775Y-60998039D01*
X126545770Y-60998041D01*
X126542753Y-60999448D01*
X126541296Y-60999669D01*
X126540602Y-60999922D01*
X126540551Y-60999782D01*
X126472562Y-61010111D01*
X126407748Y-60981133D01*
X126368890Y-60921715D01*
X126363500Y-60885255D01*
X126363500Y-59768768D01*
X126364027Y-59757585D01*
X126365702Y-59750092D01*
X126363562Y-59682001D01*
X126363500Y-59678044D01*
X126363500Y-59650144D01*
X126362996Y-59646153D01*
X126362063Y-59634311D01*
X126360923Y-59598036D01*
X126360674Y-59590111D01*
X126355021Y-59570652D01*
X126351012Y-59551293D01*
X126350846Y-59549983D01*
X126348474Y-59531203D01*
X126345558Y-59523837D01*
X126345556Y-59523831D01*
X126332200Y-59490098D01*
X126328355Y-59478868D01*
X126318230Y-59444017D01*
X126318230Y-59444016D01*
X126316019Y-59436407D01*
X126305705Y-59418966D01*
X126297008Y-59401213D01*
X126292472Y-59389758D01*
X126289552Y-59382383D01*
X126263563Y-59346612D01*
X126257047Y-59336692D01*
X126238578Y-59305463D01*
X126234542Y-59298638D01*
X126220221Y-59284317D01*
X126207380Y-59269283D01*
X126200132Y-59259307D01*
X126195472Y-59252893D01*
X126161407Y-59224712D01*
X126152626Y-59216722D01*
X125659500Y-58723595D01*
X125625475Y-58661283D01*
X125630540Y-58590467D01*
X125673087Y-58533632D01*
X125739607Y-58508821D01*
X125748596Y-58508500D01*
X127263134Y-58508500D01*
X127325316Y-58501745D01*
X127461705Y-58450615D01*
X127578261Y-58363261D01*
X127665615Y-58246705D01*
X127716745Y-58110316D01*
X127723500Y-58048134D01*
X127723500Y-56251866D01*
X127716745Y-56189684D01*
X127665615Y-56053295D01*
X127578261Y-55936739D01*
X127461705Y-55849385D01*
X127325316Y-55798255D01*
X127263134Y-55791500D01*
X125466866Y-55791500D01*
X125404684Y-55798255D01*
X125268295Y-55849385D01*
X125151739Y-55936739D01*
X125064385Y-56053295D01*
X125061233Y-56061703D01*
X125019919Y-56171907D01*
X124977277Y-56228671D01*
X124910716Y-56253371D01*
X124841367Y-56238163D01*
X124808743Y-56212476D01*
X124758151Y-56156875D01*
X124758142Y-56156866D01*
X124754670Y-56153051D01*
X124750619Y-56149852D01*
X124750615Y-56149848D01*
X124583414Y-56017800D01*
X124583410Y-56017798D01*
X124579359Y-56014598D01*
X124383789Y-55906638D01*
X124378920Y-55904914D01*
X124378916Y-55904912D01*
X124178087Y-55833795D01*
X124178083Y-55833794D01*
X124173212Y-55832069D01*
X124168119Y-55831162D01*
X124168116Y-55831161D01*
X123958373Y-55793800D01*
X123958367Y-55793799D01*
X123953284Y-55792894D01*
X123879452Y-55791992D01*
X123735081Y-55790228D01*
X123735079Y-55790228D01*
X123729911Y-55790165D01*
X123509091Y-55823955D01*
X123296756Y-55893357D01*
X123098607Y-55996507D01*
X123094474Y-55999610D01*
X123094471Y-55999612D01*
X122924100Y-56127530D01*
X122919965Y-56130635D01*
X122880525Y-56171907D01*
X122826280Y-56228671D01*
X122765629Y-56292138D01*
X122639743Y-56476680D01*
X122545688Y-56679305D01*
X122485989Y-56894570D01*
X122462251Y-57116695D01*
X122475110Y-57339715D01*
X122476247Y-57344761D01*
X122476248Y-57344767D01*
X122500304Y-57451508D01*
X122524222Y-57557639D01*
X122608266Y-57764616D01*
X122724987Y-57955088D01*
X122871250Y-58123938D01*
X123043126Y-58266632D01*
X123128869Y-58316736D01*
X123177592Y-58368375D01*
X123191236Y-58421562D01*
X123191438Y-58427983D01*
X123191500Y-58431945D01*
X123191500Y-58459856D01*
X123191997Y-58463790D01*
X123191997Y-58463791D01*
X123192005Y-58463856D01*
X123192938Y-58475693D01*
X123194327Y-58519889D01*
X123198320Y-58533632D01*
X123199978Y-58539339D01*
X123203987Y-58558700D01*
X123206526Y-58578797D01*
X123209445Y-58586168D01*
X123209445Y-58586170D01*
X123222804Y-58619912D01*
X123226649Y-58631142D01*
X123234017Y-58656502D01*
X123238982Y-58673593D01*
X123243015Y-58680412D01*
X123243017Y-58680417D01*
X123249293Y-58691028D01*
X123257988Y-58708776D01*
X123265448Y-58727617D01*
X123270110Y-58734033D01*
X123270110Y-58734034D01*
X123291436Y-58763387D01*
X123297952Y-58773307D01*
X123320458Y-58811362D01*
X123334779Y-58825683D01*
X123347619Y-58840716D01*
X123359042Y-58856438D01*
X123382901Y-58923305D01*
X123366822Y-58992457D01*
X123315908Y-59041938D01*
X123257107Y-59056500D01*
X113344595Y-59056500D01*
X113276474Y-59036498D01*
X113255499Y-59019595D01*
X113065404Y-58829499D01*
X113031379Y-58767187D01*
X113028500Y-58740404D01*
X113028500Y-58430427D01*
X113048502Y-58362306D01*
X113089618Y-58322550D01*
X113092994Y-58320896D01*
X113274860Y-58191173D01*
X113383091Y-58083319D01*
X113445462Y-58049404D01*
X113516268Y-58054592D01*
X113573030Y-58097238D01*
X113590012Y-58128341D01*
X113634385Y-58246705D01*
X113721739Y-58363261D01*
X113838295Y-58450615D01*
X113974684Y-58501745D01*
X114036866Y-58508500D01*
X115833134Y-58508500D01*
X115895316Y-58501745D01*
X116031705Y-58450615D01*
X116148261Y-58363261D01*
X116235615Y-58246705D01*
X116286745Y-58110316D01*
X116293500Y-58048134D01*
X116293500Y-56251866D01*
X116286745Y-56189684D01*
X116235615Y-56053295D01*
X116148261Y-55936739D01*
X116031705Y-55849385D01*
X115895316Y-55798255D01*
X115833134Y-55791500D01*
X114036866Y-55791500D01*
X113974684Y-55798255D01*
X113838295Y-55849385D01*
X113721739Y-55936739D01*
X113634385Y-56053295D01*
X113631233Y-56061703D01*
X113589919Y-56171907D01*
X113547277Y-56228671D01*
X113480716Y-56253371D01*
X113411367Y-56238163D01*
X113378743Y-56212476D01*
X113328151Y-56156875D01*
X113328142Y-56156866D01*
X113324670Y-56153051D01*
X113320619Y-56149852D01*
X113320615Y-56149848D01*
X113153414Y-56017800D01*
X113153410Y-56017798D01*
X113149359Y-56014598D01*
X112953789Y-55906638D01*
X112948920Y-55904914D01*
X112948916Y-55904912D01*
X112748087Y-55833795D01*
X112748083Y-55833794D01*
X112743212Y-55832069D01*
X112738119Y-55831162D01*
X112738116Y-55831161D01*
X112528373Y-55793800D01*
X112528367Y-55793799D01*
X112523284Y-55792894D01*
X112449452Y-55791992D01*
X112305081Y-55790228D01*
X112305079Y-55790228D01*
X112299911Y-55790165D01*
X112079091Y-55823955D01*
X111866756Y-55893357D01*
X111668607Y-55996507D01*
X111664474Y-55999610D01*
X111664471Y-55999612D01*
X111494100Y-56127530D01*
X111489965Y-56130635D01*
X111450525Y-56171907D01*
X111396280Y-56228671D01*
X111335629Y-56292138D01*
X111209743Y-56476680D01*
X111115688Y-56679305D01*
X111055989Y-56894570D01*
X111032251Y-57116695D01*
X106045000Y-57116695D01*
X106045000Y-54736000D01*
X106065002Y-54667879D01*
X106118658Y-54621386D01*
X106171000Y-54610000D01*
X131954000Y-54610000D01*
X132022121Y-54630002D01*
G37*
%TD.AperFunction*%
%TA.AperFunction,Conductor*%
G36*
X110453243Y-107555619D02*
G01*
X110483308Y-107619936D01*
X110480460Y-107671585D01*
X110478606Y-107678503D01*
X110478942Y-107692599D01*
X110486884Y-107696000D01*
X111888000Y-107696000D01*
X111956121Y-107716002D01*
X112002614Y-107769658D01*
X112014000Y-107822000D01*
X112014000Y-108078000D01*
X111993998Y-108146121D01*
X111940342Y-108192614D01*
X111888000Y-108204000D01*
X110492033Y-108204000D01*
X110478502Y-108207973D01*
X110477273Y-108216523D01*
X110482201Y-108234915D01*
X110480511Y-108305892D01*
X110440716Y-108364687D01*
X110375451Y-108392634D01*
X110305438Y-108380860D01*
X110267300Y-108352324D01*
X110153151Y-108226876D01*
X110153145Y-108226870D01*
X110149670Y-108223051D01*
X110145619Y-108219852D01*
X110145615Y-108219848D01*
X109978414Y-108087800D01*
X109978410Y-108087798D01*
X109974359Y-108084598D01*
X109933053Y-108061796D01*
X109883084Y-108011364D01*
X109868312Y-107941921D01*
X109893428Y-107875516D01*
X109920780Y-107848909D01*
X109964603Y-107817650D01*
X110099860Y-107721173D01*
X110258096Y-107563489D01*
X110261108Y-107559297D01*
X110262802Y-107557307D01*
X110322186Y-107518395D01*
X110393179Y-107517766D01*
X110453243Y-107555619D01*
G37*
%TD.AperFunction*%
%TD*%
M02*
