M48
; DRILL file {KiCad (6.0.0)} date Sun Jun  5 20:03:15 2022
; FORMAT={-:-/ absolute / metric / decimal}
; #@! TF.CreationDate,2022-06-05T20:03:15+09:00
; #@! TF.GenerationSoftware,Kicad,Pcbnew,(6.0.0)
; #@! TF.FileFunction,Plated,1,2,PTH
FMAT,2
METRIC
; #@! TA.AperFunction,Plated,PTH,ViaDrill
T1C0.400
; #@! TA.AperFunction,Plated,PTH,ComponentDrill
T2C0.700
; #@! TA.AperFunction,Plated,PTH,ComponentDrill
T3C0.800
; #@! TA.AperFunction,Plated,PTH,ComponentDrill
T4C1.000
%
G90
G05
T1
X106.68Y-55.88
X106.68Y-72.39
X106.68Y-116.84
X107.315Y-62.23
X107.315Y-68.58
X113.03Y-93.98
X113.03Y-96.52
X113.03Y-99.06
X114.3Y-68.58
X114.3Y-78.74
X114.3Y-85.09
X114.3Y-87.63
X114.3Y-97.79
X114.3Y-106.68
X114.3Y-109.22
X114.3Y-111.76
X115.57Y-90.17
X115.57Y-99.06
X115.57Y-102.87
X116.205Y-95.25
X116.84Y-111.76
X118.11Y-99.06
X119.38Y-73.66
X119.38Y-83.82
X119.38Y-93.98
X119.38Y-101.6
X119.38Y-109.22
X121.92Y-106.68
X122.555Y-100.33
X123.825Y-92.71
X124.46Y-74.93
X124.46Y-78.74
X124.46Y-88.9
X124.46Y-95.25
X125.73Y-101.6
X129.54Y-60.96
X130.81Y-55.88
T2
X111.76Y-114.3
X116.84Y-114.3
T3
X111.76Y-62.23
X111.76Y-64.77
X111.76Y-67.31
X111.76Y-69.85
X111.76Y-72.39
X111.76Y-74.93
X111.76Y-77.47
X111.76Y-80.01
X111.76Y-82.55
X111.76Y-85.09
X111.76Y-87.63
X111.76Y-90.17
X111.76Y-92.71
X111.76Y-95.25
X111.76Y-97.79
X111.76Y-100.33
X111.76Y-102.87
X111.76Y-105.41
X111.76Y-107.95
X111.76Y-110.49
X121.285Y-114.3
X126.285Y-114.3
X127.0Y-62.23
X127.0Y-64.77
X127.0Y-67.31
X127.0Y-69.85
X127.0Y-72.39
X127.0Y-74.93
X127.0Y-77.47
X127.0Y-80.01
X127.0Y-82.55
X127.0Y-85.09
X127.0Y-87.63
X127.0Y-90.17
X127.0Y-92.71
X127.0Y-95.25
X127.0Y-97.79
X127.0Y-100.33
X127.0Y-102.87
X127.0Y-105.41
X127.0Y-107.95
X127.0Y-110.49
T4
X109.22Y-63.5
X109.22Y-66.04
X109.22Y-68.58
X109.22Y-71.12
X109.22Y-73.66
X109.22Y-76.2
X109.22Y-78.74
X109.22Y-81.28
X109.22Y-83.82
X109.22Y-86.36
X109.22Y-88.9
X109.22Y-91.44
X109.22Y-93.98
X109.22Y-96.52
X109.22Y-99.06
X109.22Y-101.6
X109.22Y-104.14
X109.22Y-106.68
X109.22Y-109.22
X109.22Y-111.76
X112.395Y-57.15
X114.935Y-57.15
X123.825Y-57.15
X126.365Y-57.15
X129.54Y-63.5
X129.54Y-66.04
X129.54Y-68.58
X129.54Y-71.12
X129.54Y-73.66
X129.54Y-76.2
X129.54Y-78.74
X129.54Y-81.28
X129.54Y-83.82
X129.54Y-86.36
X129.54Y-88.9
X129.54Y-91.44
X129.54Y-93.98
X129.54Y-96.52
X129.54Y-99.06
X129.54Y-101.6
X129.54Y-104.14
X129.54Y-106.68
X129.54Y-109.22
X129.54Y-111.76
T0
M30
