%TF.GenerationSoftware,KiCad,Pcbnew,(6.0.0)*%
%TF.CreationDate,2022-06-05T20:03:01+09:00*%
%TF.ProjectId,phemu6809_emuz80_cnvpcb,7068656d-7536-4383-9039-5f656d757a38,rev?*%
%TF.SameCoordinates,Original*%
%TF.FileFunction,Legend,Top*%
%TF.FilePolarity,Positive*%
%FSLAX46Y46*%
G04 Gerber Fmt 4.6, Leading zero omitted, Abs format (unit mm)*
G04 Created by KiCad (PCBNEW (6.0.0)) date 2022-06-05 20:03:01*
%MOMM*%
%LPD*%
G01*
G04 APERTURE LIST*
%ADD10C,0.150000*%
%ADD11C,0.100000*%
%ADD12C,0.120000*%
%ADD13R,1.700000X1.700000*%
%ADD14O,1.700000X1.700000*%
%ADD15C,1.600000*%
%ADD16C,1.400000*%
%ADD17O,1.400000X1.400000*%
%ADD18R,1.600000X1.600000*%
%ADD19O,1.600000X1.600000*%
G04 APERTURE END LIST*
D10*
X107950000Y-63500000D02*
X106680000Y-62865000D01*
X118110000Y-56515000D02*
G75*
G03*
X120650000Y-56515000I1270000J0D01*
G01*
X106680000Y-64135000D02*
X107950000Y-63500000D01*
X126365000Y-112395000D02*
X127635000Y-112395000D01*
X108585000Y-54610000D02*
X106045000Y-57785000D01*
X118110000Y-54610000D02*
X118110000Y-56515000D01*
X127000000Y-111760000D02*
X126365000Y-112395000D01*
X120650000Y-54610000D02*
X120650000Y-56515000D01*
X127635000Y-112395000D02*
X127000000Y-111760000D01*
X106680000Y-62865000D02*
X106680000Y-64135000D01*
X126365000Y-112395000D02*
X125095000Y-112395000D01*
X107124523Y-99512380D02*
X106553095Y-99512380D01*
X106838809Y-99512380D02*
X106838809Y-98512380D01*
X106743571Y-98655238D01*
X106648333Y-98750476D01*
X106553095Y-98798095D01*
X108029285Y-98512380D02*
X107553095Y-98512380D01*
X107505476Y-98988571D01*
X107553095Y-98940952D01*
X107648333Y-98893333D01*
X107886428Y-98893333D01*
X107981666Y-98940952D01*
X108029285Y-98988571D01*
X108076904Y-99083809D01*
X108076904Y-99321904D01*
X108029285Y-99417142D01*
X107981666Y-99464761D01*
X107886428Y-99512380D01*
X107648333Y-99512380D01*
X107553095Y-99464761D01*
X107505476Y-99417142D01*
X106330714Y-63952380D02*
X105759285Y-63952380D01*
X106045000Y-63952380D02*
X106045000Y-62952380D01*
X105949761Y-63095238D01*
X105854523Y-63190476D01*
X105759285Y-63238095D01*
X130635476Y-75652380D02*
X131254523Y-75652380D01*
X130921190Y-76033333D01*
X131064047Y-76033333D01*
X131159285Y-76080952D01*
X131206904Y-76128571D01*
X131254523Y-76223809D01*
X131254523Y-76461904D01*
X131206904Y-76557142D01*
X131159285Y-76604761D01*
X131064047Y-76652380D01*
X130778333Y-76652380D01*
X130683095Y-76604761D01*
X130635476Y-76557142D01*
X132159285Y-75652380D02*
X131683095Y-75652380D01*
X131635476Y-76128571D01*
X131683095Y-76080952D01*
X131778333Y-76033333D01*
X132016428Y-76033333D01*
X132111666Y-76080952D01*
X132159285Y-76128571D01*
X132206904Y-76223809D01*
X132206904Y-76461904D01*
X132159285Y-76557142D01*
X132111666Y-76604761D01*
X132016428Y-76652380D01*
X131778333Y-76652380D01*
X131683095Y-76604761D01*
X131635476Y-76557142D01*
D11*
X117585000Y-112711666D02*
X117585000Y-112011666D01*
X117818333Y-112511666D01*
X118051666Y-112011666D01*
X118051666Y-112711666D01*
X118785000Y-112645000D02*
X118751666Y-112678333D01*
X118651666Y-112711666D01*
X118585000Y-112711666D01*
X118485000Y-112678333D01*
X118418333Y-112611666D01*
X118385000Y-112545000D01*
X118351666Y-112411666D01*
X118351666Y-112311666D01*
X118385000Y-112178333D01*
X118418333Y-112111666D01*
X118485000Y-112045000D01*
X118585000Y-112011666D01*
X118651666Y-112011666D01*
X118751666Y-112045000D01*
X118785000Y-112078333D01*
X119385000Y-112011666D02*
X119251666Y-112011666D01*
X119185000Y-112045000D01*
X119151666Y-112078333D01*
X119085000Y-112178333D01*
X119051666Y-112311666D01*
X119051666Y-112578333D01*
X119085000Y-112645000D01*
X119118333Y-112678333D01*
X119185000Y-112711666D01*
X119318333Y-112711666D01*
X119385000Y-112678333D01*
X119418333Y-112645000D01*
X119451666Y-112578333D01*
X119451666Y-112411666D01*
X119418333Y-112345000D01*
X119385000Y-112311666D01*
X119318333Y-112278333D01*
X119185000Y-112278333D01*
X119118333Y-112311666D01*
X119085000Y-112345000D01*
X119051666Y-112411666D01*
X119851666Y-112311666D02*
X119785000Y-112278333D01*
X119751666Y-112245000D01*
X119718333Y-112178333D01*
X119718333Y-112145000D01*
X119751666Y-112078333D01*
X119785000Y-112045000D01*
X119851666Y-112011666D01*
X119985000Y-112011666D01*
X120051666Y-112045000D01*
X120085000Y-112078333D01*
X120118333Y-112145000D01*
X120118333Y-112178333D01*
X120085000Y-112245000D01*
X120051666Y-112278333D01*
X119985000Y-112311666D01*
X119851666Y-112311666D01*
X119785000Y-112345000D01*
X119751666Y-112378333D01*
X119718333Y-112445000D01*
X119718333Y-112578333D01*
X119751666Y-112645000D01*
X119785000Y-112678333D01*
X119851666Y-112711666D01*
X119985000Y-112711666D01*
X120051666Y-112678333D01*
X120085000Y-112645000D01*
X120118333Y-112578333D01*
X120118333Y-112445000D01*
X120085000Y-112378333D01*
X120051666Y-112345000D01*
X119985000Y-112311666D01*
X120385000Y-112511666D02*
X120718333Y-112511666D01*
X120318333Y-112711666D02*
X120551666Y-112011666D01*
X120785000Y-112711666D01*
X121151666Y-112011666D02*
X121218333Y-112011666D01*
X121285000Y-112045000D01*
X121318333Y-112078333D01*
X121351666Y-112145000D01*
X121385000Y-112278333D01*
X121385000Y-112445000D01*
X121351666Y-112578333D01*
X121318333Y-112645000D01*
X121285000Y-112678333D01*
X121218333Y-112711666D01*
X121151666Y-112711666D01*
X121085000Y-112678333D01*
X121051666Y-112645000D01*
X121018333Y-112578333D01*
X120985000Y-112445000D01*
X120985000Y-112278333D01*
X121018333Y-112145000D01*
X121051666Y-112078333D01*
X121085000Y-112045000D01*
X121151666Y-112011666D01*
X121718333Y-112711666D02*
X121851666Y-112711666D01*
X121918333Y-112678333D01*
X121951666Y-112645000D01*
X122018333Y-112545000D01*
X122051666Y-112411666D01*
X122051666Y-112145000D01*
X122018333Y-112078333D01*
X121985000Y-112045000D01*
X121918333Y-112011666D01*
X121785000Y-112011666D01*
X121718333Y-112045000D01*
X121685000Y-112078333D01*
X121651666Y-112145000D01*
X121651666Y-112311666D01*
X121685000Y-112378333D01*
X121718333Y-112411666D01*
X121785000Y-112445000D01*
X121918333Y-112445000D01*
X121985000Y-112411666D01*
X122018333Y-112378333D01*
X122051666Y-112311666D01*
X122885000Y-112711666D02*
X122885000Y-112011666D01*
X123151666Y-112011666D01*
X123218333Y-112045000D01*
X123251666Y-112078333D01*
X123285000Y-112145000D01*
X123285000Y-112245000D01*
X123251666Y-112311666D01*
X123218333Y-112345000D01*
X123151666Y-112378333D01*
X122885000Y-112378333D01*
X123585000Y-112711666D02*
X123585000Y-112011666D01*
X123918333Y-112711666D02*
X123918333Y-112011666D01*
X124318333Y-112711666D01*
X124318333Y-112011666D01*
X125018333Y-112711666D02*
X124618333Y-112711666D01*
X124818333Y-112711666D02*
X124818333Y-112011666D01*
X124751666Y-112111666D01*
X124685000Y-112178333D01*
X124618333Y-112211666D01*
D10*
X130683095Y-111307619D02*
X130730714Y-111260000D01*
X130825952Y-111212380D01*
X131064047Y-111212380D01*
X131159285Y-111260000D01*
X131206904Y-111307619D01*
X131254523Y-111402857D01*
X131254523Y-111498095D01*
X131206904Y-111640952D01*
X130635476Y-112212380D01*
X131254523Y-112212380D01*
X132206904Y-112212380D02*
X131635476Y-112212380D01*
X131921190Y-112212380D02*
X131921190Y-111212380D01*
X131825952Y-111355238D01*
X131730714Y-111450476D01*
X131635476Y-111498095D01*
X107553095Y-73112380D02*
X107076904Y-73112380D01*
X107029285Y-73588571D01*
X107076904Y-73540952D01*
X107172142Y-73493333D01*
X107410238Y-73493333D01*
X107505476Y-73540952D01*
X107553095Y-73588571D01*
X107600714Y-73683809D01*
X107600714Y-73921904D01*
X107553095Y-74017142D01*
X107505476Y-74064761D01*
X107410238Y-74112380D01*
X107172142Y-74112380D01*
X107076904Y-74064761D01*
X107029285Y-74017142D01*
X130635476Y-88352380D02*
X131254523Y-88352380D01*
X130921190Y-88733333D01*
X131064047Y-88733333D01*
X131159285Y-88780952D01*
X131206904Y-88828571D01*
X131254523Y-88923809D01*
X131254523Y-89161904D01*
X131206904Y-89257142D01*
X131159285Y-89304761D01*
X131064047Y-89352380D01*
X130778333Y-89352380D01*
X130683095Y-89304761D01*
X130635476Y-89257142D01*
X131873571Y-88352380D02*
X131968809Y-88352380D01*
X132064047Y-88400000D01*
X132111666Y-88447619D01*
X132159285Y-88542857D01*
X132206904Y-88733333D01*
X132206904Y-88971428D01*
X132159285Y-89161904D01*
X132111666Y-89257142D01*
X132064047Y-89304761D01*
X131968809Y-89352380D01*
X131873571Y-89352380D01*
X131778333Y-89304761D01*
X131730714Y-89257142D01*
X131683095Y-89161904D01*
X131635476Y-88971428D01*
X131635476Y-88733333D01*
X131683095Y-88542857D01*
X131730714Y-88447619D01*
X131778333Y-88400000D01*
X131873571Y-88352380D01*
X131159285Y-63285714D02*
X131159285Y-63952380D01*
X130921190Y-62904761D02*
X130683095Y-63619047D01*
X131302142Y-63619047D01*
X131873571Y-62952380D02*
X131968809Y-62952380D01*
X132064047Y-63000000D01*
X132111666Y-63047619D01*
X132159285Y-63142857D01*
X132206904Y-63333333D01*
X132206904Y-63571428D01*
X132159285Y-63761904D01*
X132111666Y-63857142D01*
X132064047Y-63904761D01*
X131968809Y-63952380D01*
X131873571Y-63952380D01*
X131778333Y-63904761D01*
X131730714Y-63857142D01*
X131683095Y-63761904D01*
X131635476Y-63571428D01*
X131635476Y-63333333D01*
X131683095Y-63142857D01*
X131730714Y-63047619D01*
X131778333Y-63000000D01*
X131873571Y-62952380D01*
X106553095Y-111307619D02*
X106600714Y-111260000D01*
X106695952Y-111212380D01*
X106934047Y-111212380D01*
X107029285Y-111260000D01*
X107076904Y-111307619D01*
X107124523Y-111402857D01*
X107124523Y-111498095D01*
X107076904Y-111640952D01*
X106505476Y-112212380D01*
X107124523Y-112212380D01*
X107743571Y-111212380D02*
X107838809Y-111212380D01*
X107934047Y-111260000D01*
X107981666Y-111307619D01*
X108029285Y-111402857D01*
X108076904Y-111593333D01*
X108076904Y-111831428D01*
X108029285Y-112021904D01*
X107981666Y-112117142D01*
X107934047Y-112164761D01*
X107838809Y-112212380D01*
X107743571Y-112212380D01*
X107648333Y-112164761D01*
X107600714Y-112117142D01*
X107553095Y-112021904D01*
X107505476Y-111831428D01*
X107505476Y-111593333D01*
X107553095Y-111402857D01*
X107600714Y-111307619D01*
X107648333Y-111260000D01*
X107743571Y-111212380D01*
X130683095Y-101147619D02*
X130730714Y-101100000D01*
X130825952Y-101052380D01*
X131064047Y-101052380D01*
X131159285Y-101100000D01*
X131206904Y-101147619D01*
X131254523Y-101242857D01*
X131254523Y-101338095D01*
X131206904Y-101480952D01*
X130635476Y-102052380D01*
X131254523Y-102052380D01*
X132159285Y-101052380D02*
X131683095Y-101052380D01*
X131635476Y-101528571D01*
X131683095Y-101480952D01*
X131778333Y-101433333D01*
X132016428Y-101433333D01*
X132111666Y-101480952D01*
X132159285Y-101528571D01*
X132206904Y-101623809D01*
X132206904Y-101861904D01*
X132159285Y-101957142D01*
X132111666Y-102004761D01*
X132016428Y-102052380D01*
X131778333Y-102052380D01*
X131683095Y-102004761D01*
X131635476Y-101957142D01*
X116417380Y-76969523D02*
X117131666Y-76969523D01*
X117274523Y-77017142D01*
X117369761Y-77112380D01*
X117417380Y-77255238D01*
X117417380Y-77350476D01*
X116417380Y-76588571D02*
X116417380Y-75969523D01*
X116798333Y-76302857D01*
X116798333Y-76160000D01*
X116845952Y-76064761D01*
X116893571Y-76017142D01*
X116988809Y-75969523D01*
X117226904Y-75969523D01*
X117322142Y-76017142D01*
X117369761Y-76064761D01*
X117417380Y-76160000D01*
X117417380Y-76445714D01*
X117369761Y-76540952D01*
X117322142Y-76588571D01*
X117417380Y-74350476D02*
X116893571Y-74350476D01*
X116798333Y-74398095D01*
X116750714Y-74493333D01*
X116750714Y-74683809D01*
X116798333Y-74779047D01*
X117369761Y-74350476D02*
X117417380Y-74445714D01*
X117417380Y-74683809D01*
X117369761Y-74779047D01*
X117274523Y-74826666D01*
X117179285Y-74826666D01*
X117084047Y-74779047D01*
X117036428Y-74683809D01*
X117036428Y-74445714D01*
X116988809Y-74350476D01*
X116750714Y-73874285D02*
X117417380Y-73874285D01*
X116845952Y-73874285D02*
X116798333Y-73826666D01*
X116750714Y-73731428D01*
X116750714Y-73588571D01*
X116798333Y-73493333D01*
X116893571Y-73445714D01*
X117417380Y-73445714D01*
X117417380Y-72540952D02*
X116417380Y-72540952D01*
X117369761Y-72540952D02*
X117417380Y-72636190D01*
X117417380Y-72826666D01*
X117369761Y-72921904D01*
X117322142Y-72969523D01*
X117226904Y-73017142D01*
X116941190Y-73017142D01*
X116845952Y-72969523D01*
X116798333Y-72921904D01*
X116750714Y-72826666D01*
X116750714Y-72636190D01*
X116798333Y-72540952D01*
X116417380Y-71017142D02*
X117131666Y-71017142D01*
X117274523Y-71064761D01*
X117369761Y-71160000D01*
X117417380Y-71302857D01*
X117417380Y-71398095D01*
X116750714Y-70112380D02*
X117417380Y-70112380D01*
X116369761Y-70350476D02*
X117084047Y-70588571D01*
X117084047Y-69969523D01*
X118027380Y-81779047D02*
X118027380Y-81588571D01*
X118075000Y-81493333D01*
X118170238Y-81398095D01*
X118360714Y-81350476D01*
X118694047Y-81350476D01*
X118884523Y-81398095D01*
X118979761Y-81493333D01*
X119027380Y-81588571D01*
X119027380Y-81779047D01*
X118979761Y-81874285D01*
X118884523Y-81969523D01*
X118694047Y-82017142D01*
X118360714Y-82017142D01*
X118170238Y-81969523D01*
X118075000Y-81874285D01*
X118027380Y-81779047D01*
X118360714Y-80921904D02*
X119360714Y-80921904D01*
X118408333Y-80921904D02*
X118360714Y-80826666D01*
X118360714Y-80636190D01*
X118408333Y-80540952D01*
X118455952Y-80493333D01*
X118551190Y-80445714D01*
X118836904Y-80445714D01*
X118932142Y-80493333D01*
X118979761Y-80540952D01*
X119027380Y-80636190D01*
X119027380Y-80826666D01*
X118979761Y-80921904D01*
X118979761Y-79636190D02*
X119027380Y-79731428D01*
X119027380Y-79921904D01*
X118979761Y-80017142D01*
X118884523Y-80064761D01*
X118503571Y-80064761D01*
X118408333Y-80017142D01*
X118360714Y-79921904D01*
X118360714Y-79731428D01*
X118408333Y-79636190D01*
X118503571Y-79588571D01*
X118598809Y-79588571D01*
X118694047Y-80064761D01*
X118360714Y-79160000D02*
X119027380Y-79160000D01*
X118455952Y-79160000D02*
X118408333Y-79112380D01*
X118360714Y-79017142D01*
X118360714Y-78874285D01*
X118408333Y-78779047D01*
X118503571Y-78731428D01*
X119027380Y-78731428D01*
X118360714Y-77588571D02*
X119027380Y-77398095D01*
X118551190Y-77207619D01*
X119027380Y-77017142D01*
X118360714Y-76826666D01*
X119027380Y-76445714D02*
X118027380Y-76445714D01*
X119027380Y-76017142D02*
X118503571Y-76017142D01*
X118408333Y-76064761D01*
X118360714Y-76160000D01*
X118360714Y-76302857D01*
X118408333Y-76398095D01*
X118455952Y-76445714D01*
X118979761Y-75160000D02*
X119027380Y-75255238D01*
X119027380Y-75445714D01*
X118979761Y-75540952D01*
X118884523Y-75588571D01*
X118503571Y-75588571D01*
X118408333Y-75540952D01*
X118360714Y-75445714D01*
X118360714Y-75255238D01*
X118408333Y-75160000D01*
X118503571Y-75112380D01*
X118598809Y-75112380D01*
X118694047Y-75588571D01*
X118360714Y-74683809D02*
X119027380Y-74683809D01*
X118455952Y-74683809D02*
X118408333Y-74636190D01*
X118360714Y-74540952D01*
X118360714Y-74398095D01*
X118408333Y-74302857D01*
X118503571Y-74255238D01*
X119027380Y-74255238D01*
X118979761Y-72588571D02*
X119027380Y-72683809D01*
X119027380Y-72874285D01*
X118979761Y-72969523D01*
X118932142Y-73017142D01*
X118836904Y-73064761D01*
X118551190Y-73064761D01*
X118455952Y-73017142D01*
X118408333Y-72969523D01*
X118360714Y-72874285D01*
X118360714Y-72683809D01*
X118408333Y-72588571D01*
X119027380Y-72017142D02*
X118979761Y-72112380D01*
X118932142Y-72160000D01*
X118836904Y-72207619D01*
X118551190Y-72207619D01*
X118455952Y-72160000D01*
X118408333Y-72112380D01*
X118360714Y-72017142D01*
X118360714Y-71874285D01*
X118408333Y-71779047D01*
X118455952Y-71731428D01*
X118551190Y-71683809D01*
X118836904Y-71683809D01*
X118932142Y-71731428D01*
X118979761Y-71779047D01*
X119027380Y-71874285D01*
X119027380Y-72017142D01*
X118360714Y-71255238D02*
X119027380Y-71255238D01*
X118455952Y-71255238D02*
X118408333Y-71207619D01*
X118360714Y-71112380D01*
X118360714Y-70969523D01*
X118408333Y-70874285D01*
X118503571Y-70826666D01*
X119027380Y-70826666D01*
X118360714Y-70350476D02*
X119027380Y-70350476D01*
X118455952Y-70350476D02*
X118408333Y-70302857D01*
X118360714Y-70207619D01*
X118360714Y-70064761D01*
X118408333Y-69969523D01*
X118503571Y-69921904D01*
X119027380Y-69921904D01*
X118979761Y-69064761D02*
X119027380Y-69160000D01*
X119027380Y-69350476D01*
X118979761Y-69445714D01*
X118884523Y-69493333D01*
X118503571Y-69493333D01*
X118408333Y-69445714D01*
X118360714Y-69350476D01*
X118360714Y-69160000D01*
X118408333Y-69064761D01*
X118503571Y-69017142D01*
X118598809Y-69017142D01*
X118694047Y-69493333D01*
X118979761Y-68160000D02*
X119027380Y-68255238D01*
X119027380Y-68445714D01*
X118979761Y-68540952D01*
X118932142Y-68588571D01*
X118836904Y-68636190D01*
X118551190Y-68636190D01*
X118455952Y-68588571D01*
X118408333Y-68540952D01*
X118360714Y-68445714D01*
X118360714Y-68255238D01*
X118408333Y-68160000D01*
X118360714Y-67874285D02*
X118360714Y-67493333D01*
X118027380Y-67731428D02*
X118884523Y-67731428D01*
X118979761Y-67683809D01*
X119027380Y-67588571D01*
X119027380Y-67493333D01*
X119027380Y-67160000D02*
X118360714Y-67160000D01*
X118027380Y-67160000D02*
X118075000Y-67207619D01*
X118122619Y-67160000D01*
X118075000Y-67112380D01*
X118027380Y-67160000D01*
X118122619Y-67160000D01*
X118360714Y-66683809D02*
X119027380Y-66683809D01*
X118455952Y-66683809D02*
X118408333Y-66636190D01*
X118360714Y-66540952D01*
X118360714Y-66398095D01*
X118408333Y-66302857D01*
X118503571Y-66255238D01*
X119027380Y-66255238D01*
X118360714Y-65350476D02*
X119170238Y-65350476D01*
X119265476Y-65398095D01*
X119313095Y-65445714D01*
X119360714Y-65540952D01*
X119360714Y-65683809D01*
X119313095Y-65779047D01*
X118979761Y-65350476D02*
X119027380Y-65445714D01*
X119027380Y-65636190D01*
X118979761Y-65731428D01*
X118932142Y-65779047D01*
X118836904Y-65826666D01*
X118551190Y-65826666D01*
X118455952Y-65779047D01*
X118408333Y-65731428D01*
X118360714Y-65636190D01*
X118360714Y-65445714D01*
X118408333Y-65350476D01*
X119970714Y-81564761D02*
X119970714Y-81183809D01*
X119637380Y-81421904D02*
X120494523Y-81421904D01*
X120589761Y-81374285D01*
X120637380Y-81279047D01*
X120637380Y-81183809D01*
X120637380Y-80850476D02*
X119637380Y-80850476D01*
X120637380Y-80421904D02*
X120113571Y-80421904D01*
X120018333Y-80469523D01*
X119970714Y-80564761D01*
X119970714Y-80707619D01*
X120018333Y-80802857D01*
X120065952Y-80850476D01*
X120589761Y-79564761D02*
X120637380Y-79660000D01*
X120637380Y-79850476D01*
X120589761Y-79945714D01*
X120494523Y-79993333D01*
X120113571Y-79993333D01*
X120018333Y-79945714D01*
X119970714Y-79850476D01*
X119970714Y-79660000D01*
X120018333Y-79564761D01*
X120113571Y-79517142D01*
X120208809Y-79517142D01*
X120304047Y-79993333D01*
X120637380Y-78326666D02*
X119637380Y-78326666D01*
X120351666Y-77993333D01*
X119637380Y-77660000D01*
X120637380Y-77660000D01*
X120637380Y-77183809D02*
X119637380Y-77183809D01*
X119637380Y-76802857D01*
X119685000Y-76707619D01*
X119732619Y-76660000D01*
X119827857Y-76612380D01*
X119970714Y-76612380D01*
X120065952Y-76660000D01*
X120113571Y-76707619D01*
X120161190Y-76802857D01*
X120161190Y-77183809D01*
X120637380Y-75707619D02*
X120637380Y-76183809D01*
X119637380Y-76183809D01*
X120351666Y-75421904D02*
X120351666Y-74945714D01*
X120637380Y-75517142D02*
X119637380Y-75183809D01*
X120637380Y-74850476D01*
X120113571Y-74183809D02*
X120161190Y-74040952D01*
X120208809Y-73993333D01*
X120304047Y-73945714D01*
X120446904Y-73945714D01*
X120542142Y-73993333D01*
X120589761Y-74040952D01*
X120637380Y-74136190D01*
X120637380Y-74517142D01*
X119637380Y-74517142D01*
X119637380Y-74183809D01*
X119685000Y-74088571D01*
X119732619Y-74040952D01*
X119827857Y-73993333D01*
X119923095Y-73993333D01*
X120018333Y-74040952D01*
X120065952Y-74088571D01*
X120113571Y-74183809D01*
X120113571Y-74517142D01*
X120637380Y-72326666D02*
X119637380Y-72326666D01*
X120589761Y-72326666D02*
X120637380Y-72421904D01*
X120637380Y-72612380D01*
X120589761Y-72707619D01*
X120542142Y-72755238D01*
X120446904Y-72802857D01*
X120161190Y-72802857D01*
X120065952Y-72755238D01*
X120018333Y-72707619D01*
X119970714Y-72612380D01*
X119970714Y-72421904D01*
X120018333Y-72326666D01*
X120589761Y-71469523D02*
X120637380Y-71564761D01*
X120637380Y-71755238D01*
X120589761Y-71850476D01*
X120494523Y-71898095D01*
X120113571Y-71898095D01*
X120018333Y-71850476D01*
X119970714Y-71755238D01*
X119970714Y-71564761D01*
X120018333Y-71469523D01*
X120113571Y-71421904D01*
X120208809Y-71421904D01*
X120304047Y-71898095D01*
X120637380Y-70993333D02*
X119637380Y-70993333D01*
X120018333Y-70993333D02*
X119970714Y-70898095D01*
X119970714Y-70707619D01*
X120018333Y-70612380D01*
X120065952Y-70564761D01*
X120161190Y-70517142D01*
X120446904Y-70517142D01*
X120542142Y-70564761D01*
X120589761Y-70612380D01*
X120637380Y-70707619D01*
X120637380Y-70898095D01*
X120589761Y-70993333D01*
X119970714Y-69660000D02*
X120637380Y-69660000D01*
X119970714Y-70088571D02*
X120494523Y-70088571D01*
X120589761Y-70040952D01*
X120637380Y-69945714D01*
X120637380Y-69802857D01*
X120589761Y-69707619D01*
X120542142Y-69660000D01*
X119970714Y-68755238D02*
X120780238Y-68755238D01*
X120875476Y-68802857D01*
X120923095Y-68850476D01*
X120970714Y-68945714D01*
X120970714Y-69088571D01*
X120923095Y-69183809D01*
X120589761Y-68755238D02*
X120637380Y-68850476D01*
X120637380Y-69040952D01*
X120589761Y-69136190D01*
X120542142Y-69183809D01*
X120446904Y-69231428D01*
X120161190Y-69231428D01*
X120065952Y-69183809D01*
X120018333Y-69136190D01*
X119970714Y-69040952D01*
X119970714Y-68850476D01*
X120018333Y-68755238D01*
X119970714Y-67850476D02*
X120780238Y-67850476D01*
X120875476Y-67898095D01*
X120923095Y-67945714D01*
X120970714Y-68040952D01*
X120970714Y-68183809D01*
X120923095Y-68279047D01*
X120589761Y-67850476D02*
X120637380Y-67945714D01*
X120637380Y-68136190D01*
X120589761Y-68231428D01*
X120542142Y-68279047D01*
X120446904Y-68326666D01*
X120161190Y-68326666D01*
X120065952Y-68279047D01*
X120018333Y-68231428D01*
X119970714Y-68136190D01*
X119970714Y-67945714D01*
X120018333Y-67850476D01*
X120589761Y-66993333D02*
X120637380Y-67088571D01*
X120637380Y-67279047D01*
X120589761Y-67374285D01*
X120494523Y-67421904D01*
X120113571Y-67421904D01*
X120018333Y-67374285D01*
X119970714Y-67279047D01*
X119970714Y-67088571D01*
X120018333Y-66993333D01*
X120113571Y-66945714D01*
X120208809Y-66945714D01*
X120304047Y-67421904D01*
X120637380Y-66517142D02*
X119970714Y-66517142D01*
X120161190Y-66517142D02*
X120065952Y-66469523D01*
X120018333Y-66421904D01*
X119970714Y-66326666D01*
X119970714Y-66231428D01*
X120542142Y-65898095D02*
X120589761Y-65850476D01*
X120637380Y-65898095D01*
X120589761Y-65945714D01*
X120542142Y-65898095D01*
X120637380Y-65898095D01*
X122247380Y-79779047D02*
X121247380Y-79779047D01*
X122247380Y-79207619D01*
X121247380Y-79207619D01*
X122247380Y-78588571D02*
X122199761Y-78683809D01*
X122152142Y-78731428D01*
X122056904Y-78779047D01*
X121771190Y-78779047D01*
X121675952Y-78731428D01*
X121628333Y-78683809D01*
X121580714Y-78588571D01*
X121580714Y-78445714D01*
X121628333Y-78350476D01*
X121675952Y-78302857D01*
X121771190Y-78255238D01*
X122056904Y-78255238D01*
X122152142Y-78302857D01*
X122199761Y-78350476D01*
X122247380Y-78445714D01*
X122247380Y-78588571D01*
X122247380Y-77826666D02*
X121580714Y-77826666D01*
X121771190Y-77826666D02*
X121675952Y-77779047D01*
X121628333Y-77731428D01*
X121580714Y-77636190D01*
X121580714Y-77540952D01*
X122247380Y-77207619D02*
X121580714Y-77207619D01*
X121675952Y-77207619D02*
X121628333Y-77160000D01*
X121580714Y-77064761D01*
X121580714Y-76921904D01*
X121628333Y-76826666D01*
X121723571Y-76779047D01*
X122247380Y-76779047D01*
X121723571Y-76779047D02*
X121628333Y-76731428D01*
X121580714Y-76636190D01*
X121580714Y-76493333D01*
X121628333Y-76398095D01*
X121723571Y-76350476D01*
X122247380Y-76350476D01*
X122247380Y-75445714D02*
X121723571Y-75445714D01*
X121628333Y-75493333D01*
X121580714Y-75588571D01*
X121580714Y-75779047D01*
X121628333Y-75874285D01*
X122199761Y-75445714D02*
X122247380Y-75540952D01*
X122247380Y-75779047D01*
X122199761Y-75874285D01*
X122104523Y-75921904D01*
X122009285Y-75921904D01*
X121914047Y-75874285D01*
X121866428Y-75779047D01*
X121866428Y-75540952D01*
X121818809Y-75445714D01*
X122247380Y-74826666D02*
X122199761Y-74921904D01*
X122104523Y-74969523D01*
X121247380Y-74969523D01*
X122247380Y-74302857D02*
X122199761Y-74398095D01*
X122104523Y-74445714D01*
X121247380Y-74445714D01*
X121580714Y-74017142D02*
X122247380Y-73779047D01*
X121580714Y-73540952D02*
X122247380Y-73779047D01*
X122485476Y-73874285D01*
X122533095Y-73921904D01*
X122580714Y-74017142D01*
X122199761Y-71969523D02*
X122247380Y-72064761D01*
X122247380Y-72255238D01*
X122199761Y-72350476D01*
X122152142Y-72398095D01*
X122056904Y-72445714D01*
X121771190Y-72445714D01*
X121675952Y-72398095D01*
X121628333Y-72350476D01*
X121580714Y-72255238D01*
X121580714Y-72064761D01*
X121628333Y-71969523D01*
X122247380Y-71398095D02*
X122199761Y-71493333D01*
X122104523Y-71540952D01*
X121247380Y-71540952D01*
X122247380Y-70874285D02*
X122199761Y-70969523D01*
X122152142Y-71017142D01*
X122056904Y-71064761D01*
X121771190Y-71064761D01*
X121675952Y-71017142D01*
X121628333Y-70969523D01*
X121580714Y-70874285D01*
X121580714Y-70731428D01*
X121628333Y-70636190D01*
X121675952Y-70588571D01*
X121771190Y-70540952D01*
X122056904Y-70540952D01*
X122152142Y-70588571D01*
X122199761Y-70636190D01*
X122247380Y-70731428D01*
X122247380Y-70874285D01*
X122199761Y-70160000D02*
X122247380Y-70064761D01*
X122247380Y-69874285D01*
X122199761Y-69779047D01*
X122104523Y-69731428D01*
X122056904Y-69731428D01*
X121961666Y-69779047D01*
X121914047Y-69874285D01*
X121914047Y-70017142D01*
X121866428Y-70112380D01*
X121771190Y-70160000D01*
X121723571Y-70160000D01*
X121628333Y-70112380D01*
X121580714Y-70017142D01*
X121580714Y-69874285D01*
X121628333Y-69779047D01*
X122199761Y-68921904D02*
X122247380Y-69017142D01*
X122247380Y-69207619D01*
X122199761Y-69302857D01*
X122104523Y-69350476D01*
X121723571Y-69350476D01*
X121628333Y-69302857D01*
X121580714Y-69207619D01*
X121580714Y-69017142D01*
X121628333Y-68921904D01*
X121723571Y-68874285D01*
X121818809Y-68874285D01*
X121914047Y-69350476D01*
X122247380Y-68017142D02*
X121247380Y-68017142D01*
X122199761Y-68017142D02*
X122247380Y-68112380D01*
X122247380Y-68302857D01*
X122199761Y-68398095D01*
X122152142Y-68445714D01*
X122056904Y-68493333D01*
X121771190Y-68493333D01*
X121675952Y-68445714D01*
X121628333Y-68398095D01*
X121580714Y-68302857D01*
X121580714Y-68112380D01*
X121628333Y-68017142D01*
X122152142Y-67540952D02*
X122199761Y-67493333D01*
X122247380Y-67540952D01*
X122199761Y-67588571D01*
X122152142Y-67540952D01*
X122247380Y-67540952D01*
X107124523Y-86812380D02*
X106553095Y-86812380D01*
X106838809Y-86812380D02*
X106838809Y-85812380D01*
X106743571Y-85955238D01*
X106648333Y-86050476D01*
X106553095Y-86098095D01*
X107743571Y-85812380D02*
X107838809Y-85812380D01*
X107934047Y-85860000D01*
X107981666Y-85907619D01*
X108029285Y-86002857D01*
X108076904Y-86193333D01*
X108076904Y-86431428D01*
X108029285Y-86621904D01*
X107981666Y-86717142D01*
X107934047Y-86764761D01*
X107838809Y-86812380D01*
X107743571Y-86812380D01*
X107648333Y-86764761D01*
X107600714Y-86717142D01*
X107553095Y-86621904D01*
X107505476Y-86431428D01*
X107505476Y-86193333D01*
X107553095Y-86002857D01*
X107600714Y-85907619D01*
X107648333Y-85860000D01*
X107743571Y-85812380D01*
%TO.C,J3*%
X129206666Y-56602380D02*
X129206666Y-57316666D01*
X129159047Y-57459523D01*
X129063809Y-57554761D01*
X128920952Y-57602380D01*
X128825714Y-57602380D01*
X129587619Y-56602380D02*
X130206666Y-56602380D01*
X129873333Y-56983333D01*
X130016190Y-56983333D01*
X130111428Y-57030952D01*
X130159047Y-57078571D01*
X130206666Y-57173809D01*
X130206666Y-57411904D01*
X130159047Y-57507142D01*
X130111428Y-57554761D01*
X130016190Y-57602380D01*
X129730476Y-57602380D01*
X129635238Y-57554761D01*
X129587619Y-57507142D01*
%TO.C,C1*%
X123618333Y-117197142D02*
X123570714Y-117244761D01*
X123427857Y-117292380D01*
X123332619Y-117292380D01*
X123189761Y-117244761D01*
X123094523Y-117149523D01*
X123046904Y-117054285D01*
X122999285Y-116863809D01*
X122999285Y-116720952D01*
X123046904Y-116530476D01*
X123094523Y-116435238D01*
X123189761Y-116340000D01*
X123332619Y-116292380D01*
X123427857Y-116292380D01*
X123570714Y-116340000D01*
X123618333Y-116387619D01*
X124570714Y-117292380D02*
X123999285Y-117292380D01*
X124285000Y-117292380D02*
X124285000Y-116292380D01*
X124189761Y-116435238D01*
X124094523Y-116530476D01*
X123999285Y-116578095D01*
%TO.C,R1*%
X114133333Y-116672380D02*
X113800000Y-116196190D01*
X113561904Y-116672380D02*
X113561904Y-115672380D01*
X113942857Y-115672380D01*
X114038095Y-115720000D01*
X114085714Y-115767619D01*
X114133333Y-115862857D01*
X114133333Y-116005714D01*
X114085714Y-116100952D01*
X114038095Y-116148571D01*
X113942857Y-116196190D01*
X113561904Y-116196190D01*
X115085714Y-116672380D02*
X114514285Y-116672380D01*
X114800000Y-116672380D02*
X114800000Y-115672380D01*
X114704761Y-115815238D01*
X114609523Y-115910476D01*
X114514285Y-115958095D01*
%TO.C,U1*%
X118618095Y-59142380D02*
X118618095Y-59951904D01*
X118665714Y-60047142D01*
X118713333Y-60094761D01*
X118808571Y-60142380D01*
X118999047Y-60142380D01*
X119094285Y-60094761D01*
X119141904Y-60047142D01*
X119189523Y-59951904D01*
X119189523Y-59142380D01*
X120189523Y-60142380D02*
X119618095Y-60142380D01*
X119903809Y-60142380D02*
X119903809Y-59142380D01*
X119808571Y-59285238D01*
X119713333Y-59380476D01*
X119618095Y-59428095D01*
%TO.C,J4*%
X108886666Y-56602380D02*
X108886666Y-57316666D01*
X108839047Y-57459523D01*
X108743809Y-57554761D01*
X108600952Y-57602380D01*
X108505714Y-57602380D01*
X109791428Y-56935714D02*
X109791428Y-57602380D01*
X109553333Y-56554761D02*
X109315238Y-57269047D01*
X109934285Y-57269047D01*
D12*
%TO.C,J3*%
X126365000Y-55820000D02*
X127695000Y-55820000D01*
X122495000Y-55820000D02*
X122495000Y-58480000D01*
X125095000Y-58480000D02*
X122495000Y-58480000D01*
X125095000Y-55820000D02*
X125095000Y-58480000D01*
X125095000Y-55820000D02*
X122495000Y-55820000D01*
X127695000Y-55820000D02*
X127695000Y-57150000D01*
%TO.C,C1*%
X120165000Y-112930000D02*
X127405000Y-112930000D01*
X127405000Y-112930000D02*
X127405000Y-115670000D01*
X120165000Y-115670000D02*
X127405000Y-115670000D01*
X120165000Y-112930000D02*
X120165000Y-115670000D01*
%TO.C,R1*%
X116220000Y-113380000D02*
X112380000Y-113380000D01*
X116220000Y-115220000D02*
X112380000Y-115220000D01*
%TO.C,U1*%
X120380000Y-111820000D02*
X125840000Y-111820000D01*
X112920000Y-60900000D02*
X112920000Y-111820000D01*
X112920000Y-111820000D02*
X118380000Y-111820000D01*
X125840000Y-60900000D02*
X112920000Y-60900000D01*
X125840000Y-111820000D02*
X125840000Y-60900000D01*
X120380000Y-111820000D02*
G75*
G03*
X118380000Y-111820000I-1000000J0D01*
G01*
%TO.C,J4*%
X113665000Y-58480000D02*
X111065000Y-58480000D01*
X116265000Y-55820000D02*
X116265000Y-57150000D01*
X114935000Y-55820000D02*
X116265000Y-55820000D01*
X111065000Y-55820000D02*
X111065000Y-58480000D01*
X113665000Y-55820000D02*
X113665000Y-58480000D01*
X113665000Y-55820000D02*
X111065000Y-55820000D01*
%TD*%
%LPC*%
D13*
%TO.C,J3*%
X126365000Y-57150000D03*
D14*
X123825000Y-57150000D03*
%TD*%
D15*
%TO.C,C1*%
X121285000Y-114300000D03*
X126285000Y-114300000D03*
%TD*%
D16*
%TO.C,R1*%
X116840000Y-114300000D03*
D17*
X111760000Y-114300000D03*
%TD*%
D18*
%TO.C,U1*%
X127000000Y-110490000D03*
D19*
X127000000Y-107950000D03*
X127000000Y-105410000D03*
X127000000Y-102870000D03*
X127000000Y-100330000D03*
X127000000Y-97790000D03*
X127000000Y-95250000D03*
X127000000Y-92710000D03*
X127000000Y-90170000D03*
X127000000Y-87630000D03*
X127000000Y-85090000D03*
X127000000Y-82550000D03*
X127000000Y-80010000D03*
X127000000Y-77470000D03*
X127000000Y-74930000D03*
X127000000Y-72390000D03*
X127000000Y-69850000D03*
X127000000Y-67310000D03*
X127000000Y-64770000D03*
X127000000Y-62230000D03*
X111760000Y-62230000D03*
X111760000Y-64770000D03*
X111760000Y-67310000D03*
X111760000Y-69850000D03*
X111760000Y-72390000D03*
X111760000Y-74930000D03*
X111760000Y-77470000D03*
X111760000Y-80010000D03*
X111760000Y-82550000D03*
X111760000Y-85090000D03*
X111760000Y-87630000D03*
X111760000Y-90170000D03*
X111760000Y-92710000D03*
X111760000Y-95250000D03*
X111760000Y-97790000D03*
X111760000Y-100330000D03*
X111760000Y-102870000D03*
X111760000Y-105410000D03*
X111760000Y-107950000D03*
X111760000Y-110490000D03*
%TD*%
D13*
%TO.C,J4*%
X114935000Y-57150000D03*
D14*
X112395000Y-57150000D03*
%TD*%
D13*
%TO.C,J1*%
X109220000Y-63500000D03*
D14*
X109220000Y-66040000D03*
X109220000Y-68580000D03*
X109220000Y-71120000D03*
X109220000Y-73660000D03*
X109220000Y-76200000D03*
X109220000Y-78740000D03*
X109220000Y-81280000D03*
X109220000Y-83820000D03*
X109220000Y-86360000D03*
X109220000Y-88900000D03*
X109220000Y-91440000D03*
X109220000Y-93980000D03*
X109220000Y-96520000D03*
X109220000Y-99060000D03*
X109220000Y-101600000D03*
X109220000Y-104140000D03*
X109220000Y-106680000D03*
X109220000Y-109220000D03*
X109220000Y-111760000D03*
%TD*%
D13*
%TO.C,J2*%
X129540000Y-111760000D03*
D14*
X129540000Y-109220000D03*
X129540000Y-106680000D03*
X129540000Y-104140000D03*
X129540000Y-101600000D03*
X129540000Y-99060000D03*
X129540000Y-96520000D03*
X129540000Y-93980000D03*
X129540000Y-91440000D03*
X129540000Y-88900000D03*
X129540000Y-86360000D03*
X129540000Y-83820000D03*
X129540000Y-81280000D03*
X129540000Y-78740000D03*
X129540000Y-76200000D03*
X129540000Y-73660000D03*
X129540000Y-71120000D03*
X129540000Y-68580000D03*
X129540000Y-66040000D03*
X129540000Y-63500000D03*
%TD*%
M02*
